%TF.GenerationSoftware,KiCad,Pcbnew,7.0.9*%
%TF.CreationDate,2024-01-02T16:37:46-08:00*%
%TF.ProjectId,STM32F103C8T6,53544d33-3246-4313-9033-433854362e6b,rev?*%
%TF.SameCoordinates,Original*%
%TF.FileFunction,Legend,Bot*%
%TF.FilePolarity,Positive*%
%FSLAX46Y46*%
G04 Gerber Fmt 4.6, Leading zero omitted, Abs format (unit mm)*
G04 Created by KiCad (PCBNEW 7.0.9) date 2024-01-02 16:37:46*
%MOMM*%
%LPD*%
G01*
G04 APERTURE LIST*
%ADD10C,0.150000*%
G04 APERTURE END LIST*
D10*
X126710839Y-72492200D02*
X126567982Y-72539819D01*
X126567982Y-72539819D02*
X126329887Y-72539819D01*
X126329887Y-72539819D02*
X126234649Y-72492200D01*
X126234649Y-72492200D02*
X126187030Y-72444580D01*
X126187030Y-72444580D02*
X126139411Y-72349342D01*
X126139411Y-72349342D02*
X126139411Y-72254104D01*
X126139411Y-72254104D02*
X126187030Y-72158866D01*
X126187030Y-72158866D02*
X126234649Y-72111247D01*
X126234649Y-72111247D02*
X126329887Y-72063628D01*
X126329887Y-72063628D02*
X126520363Y-72016009D01*
X126520363Y-72016009D02*
X126615601Y-71968390D01*
X126615601Y-71968390D02*
X126663220Y-71920771D01*
X126663220Y-71920771D02*
X126710839Y-71825533D01*
X126710839Y-71825533D02*
X126710839Y-71730295D01*
X126710839Y-71730295D02*
X126663220Y-71635057D01*
X126663220Y-71635057D02*
X126615601Y-71587438D01*
X126615601Y-71587438D02*
X126520363Y-71539819D01*
X126520363Y-71539819D02*
X126282268Y-71539819D01*
X126282268Y-71539819D02*
X126139411Y-71587438D01*
X125853696Y-71539819D02*
X125282268Y-71539819D01*
X125567982Y-72539819D02*
X125567982Y-71539819D01*
X124948934Y-72539819D02*
X124948934Y-71539819D01*
X124948934Y-71539819D02*
X124615601Y-72254104D01*
X124615601Y-72254104D02*
X124282268Y-71539819D01*
X124282268Y-71539819D02*
X124282268Y-72539819D01*
X123901315Y-71539819D02*
X123282268Y-71539819D01*
X123282268Y-71539819D02*
X123615601Y-71920771D01*
X123615601Y-71920771D02*
X123472744Y-71920771D01*
X123472744Y-71920771D02*
X123377506Y-71968390D01*
X123377506Y-71968390D02*
X123329887Y-72016009D01*
X123329887Y-72016009D02*
X123282268Y-72111247D01*
X123282268Y-72111247D02*
X123282268Y-72349342D01*
X123282268Y-72349342D02*
X123329887Y-72444580D01*
X123329887Y-72444580D02*
X123377506Y-72492200D01*
X123377506Y-72492200D02*
X123472744Y-72539819D01*
X123472744Y-72539819D02*
X123758458Y-72539819D01*
X123758458Y-72539819D02*
X123853696Y-72492200D01*
X123853696Y-72492200D02*
X123901315Y-72444580D01*
X122901315Y-71635057D02*
X122853696Y-71587438D01*
X122853696Y-71587438D02*
X122758458Y-71539819D01*
X122758458Y-71539819D02*
X122520363Y-71539819D01*
X122520363Y-71539819D02*
X122425125Y-71587438D01*
X122425125Y-71587438D02*
X122377506Y-71635057D01*
X122377506Y-71635057D02*
X122329887Y-71730295D01*
X122329887Y-71730295D02*
X122329887Y-71825533D01*
X122329887Y-71825533D02*
X122377506Y-71968390D01*
X122377506Y-71968390D02*
X122948934Y-72539819D01*
X122948934Y-72539819D02*
X122329887Y-72539819D01*
X121567982Y-72016009D02*
X121901315Y-72016009D01*
X121901315Y-72539819D02*
X121901315Y-71539819D01*
X121901315Y-71539819D02*
X121425125Y-71539819D01*
X120520363Y-72539819D02*
X121091791Y-72539819D01*
X120806077Y-72539819D02*
X120806077Y-71539819D01*
X120806077Y-71539819D02*
X120901315Y-71682676D01*
X120901315Y-71682676D02*
X120996553Y-71777914D01*
X120996553Y-71777914D02*
X121091791Y-71825533D01*
X119901315Y-71539819D02*
X119806077Y-71539819D01*
X119806077Y-71539819D02*
X119710839Y-71587438D01*
X119710839Y-71587438D02*
X119663220Y-71635057D01*
X119663220Y-71635057D02*
X119615601Y-71730295D01*
X119615601Y-71730295D02*
X119567982Y-71920771D01*
X119567982Y-71920771D02*
X119567982Y-72158866D01*
X119567982Y-72158866D02*
X119615601Y-72349342D01*
X119615601Y-72349342D02*
X119663220Y-72444580D01*
X119663220Y-72444580D02*
X119710839Y-72492200D01*
X119710839Y-72492200D02*
X119806077Y-72539819D01*
X119806077Y-72539819D02*
X119901315Y-72539819D01*
X119901315Y-72539819D02*
X119996553Y-72492200D01*
X119996553Y-72492200D02*
X120044172Y-72444580D01*
X120044172Y-72444580D02*
X120091791Y-72349342D01*
X120091791Y-72349342D02*
X120139410Y-72158866D01*
X120139410Y-72158866D02*
X120139410Y-71920771D01*
X120139410Y-71920771D02*
X120091791Y-71730295D01*
X120091791Y-71730295D02*
X120044172Y-71635057D01*
X120044172Y-71635057D02*
X119996553Y-71587438D01*
X119996553Y-71587438D02*
X119901315Y-71539819D01*
X119234648Y-71539819D02*
X118615601Y-71539819D01*
X118615601Y-71539819D02*
X118948934Y-71920771D01*
X118948934Y-71920771D02*
X118806077Y-71920771D01*
X118806077Y-71920771D02*
X118710839Y-71968390D01*
X118710839Y-71968390D02*
X118663220Y-72016009D01*
X118663220Y-72016009D02*
X118615601Y-72111247D01*
X118615601Y-72111247D02*
X118615601Y-72349342D01*
X118615601Y-72349342D02*
X118663220Y-72444580D01*
X118663220Y-72444580D02*
X118710839Y-72492200D01*
X118710839Y-72492200D02*
X118806077Y-72539819D01*
X118806077Y-72539819D02*
X119091791Y-72539819D01*
X119091791Y-72539819D02*
X119187029Y-72492200D01*
X119187029Y-72492200D02*
X119234648Y-72444580D01*
X117615601Y-72444580D02*
X117663220Y-72492200D01*
X117663220Y-72492200D02*
X117806077Y-72539819D01*
X117806077Y-72539819D02*
X117901315Y-72539819D01*
X117901315Y-72539819D02*
X118044172Y-72492200D01*
X118044172Y-72492200D02*
X118139410Y-72396961D01*
X118139410Y-72396961D02*
X118187029Y-72301723D01*
X118187029Y-72301723D02*
X118234648Y-72111247D01*
X118234648Y-72111247D02*
X118234648Y-71968390D01*
X118234648Y-71968390D02*
X118187029Y-71777914D01*
X118187029Y-71777914D02*
X118139410Y-71682676D01*
X118139410Y-71682676D02*
X118044172Y-71587438D01*
X118044172Y-71587438D02*
X117901315Y-71539819D01*
X117901315Y-71539819D02*
X117806077Y-71539819D01*
X117806077Y-71539819D02*
X117663220Y-71587438D01*
X117663220Y-71587438D02*
X117615601Y-71635057D01*
X117044172Y-71968390D02*
X117139410Y-71920771D01*
X117139410Y-71920771D02*
X117187029Y-71873152D01*
X117187029Y-71873152D02*
X117234648Y-71777914D01*
X117234648Y-71777914D02*
X117234648Y-71730295D01*
X117234648Y-71730295D02*
X117187029Y-71635057D01*
X117187029Y-71635057D02*
X117139410Y-71587438D01*
X117139410Y-71587438D02*
X117044172Y-71539819D01*
X117044172Y-71539819D02*
X116853696Y-71539819D01*
X116853696Y-71539819D02*
X116758458Y-71587438D01*
X116758458Y-71587438D02*
X116710839Y-71635057D01*
X116710839Y-71635057D02*
X116663220Y-71730295D01*
X116663220Y-71730295D02*
X116663220Y-71777914D01*
X116663220Y-71777914D02*
X116710839Y-71873152D01*
X116710839Y-71873152D02*
X116758458Y-71920771D01*
X116758458Y-71920771D02*
X116853696Y-71968390D01*
X116853696Y-71968390D02*
X117044172Y-71968390D01*
X117044172Y-71968390D02*
X117139410Y-72016009D01*
X117139410Y-72016009D02*
X117187029Y-72063628D01*
X117187029Y-72063628D02*
X117234648Y-72158866D01*
X117234648Y-72158866D02*
X117234648Y-72349342D01*
X117234648Y-72349342D02*
X117187029Y-72444580D01*
X117187029Y-72444580D02*
X117139410Y-72492200D01*
X117139410Y-72492200D02*
X117044172Y-72539819D01*
X117044172Y-72539819D02*
X116853696Y-72539819D01*
X116853696Y-72539819D02*
X116758458Y-72492200D01*
X116758458Y-72492200D02*
X116710839Y-72444580D01*
X116710839Y-72444580D02*
X116663220Y-72349342D01*
X116663220Y-72349342D02*
X116663220Y-72158866D01*
X116663220Y-72158866D02*
X116710839Y-72063628D01*
X116710839Y-72063628D02*
X116758458Y-72016009D01*
X116758458Y-72016009D02*
X116853696Y-71968390D01*
X116377505Y-71539819D02*
X115806077Y-71539819D01*
X116091791Y-72539819D02*
X116091791Y-71539819D01*
X115044172Y-71539819D02*
X115234648Y-71539819D01*
X115234648Y-71539819D02*
X115329886Y-71587438D01*
X115329886Y-71587438D02*
X115377505Y-71635057D01*
X115377505Y-71635057D02*
X115472743Y-71777914D01*
X115472743Y-71777914D02*
X115520362Y-71968390D01*
X115520362Y-71968390D02*
X115520362Y-72349342D01*
X115520362Y-72349342D02*
X115472743Y-72444580D01*
X115472743Y-72444580D02*
X115425124Y-72492200D01*
X115425124Y-72492200D02*
X115329886Y-72539819D01*
X115329886Y-72539819D02*
X115139410Y-72539819D01*
X115139410Y-72539819D02*
X115044172Y-72492200D01*
X115044172Y-72492200D02*
X114996553Y-72444580D01*
X114996553Y-72444580D02*
X114948934Y-72349342D01*
X114948934Y-72349342D02*
X114948934Y-72111247D01*
X114948934Y-72111247D02*
X114996553Y-72016009D01*
X114996553Y-72016009D02*
X115044172Y-71968390D01*
X115044172Y-71968390D02*
X115139410Y-71920771D01*
X115139410Y-71920771D02*
X115329886Y-71920771D01*
X115329886Y-71920771D02*
X115425124Y-71968390D01*
X115425124Y-71968390D02*
X115472743Y-72016009D01*
X115472743Y-72016009D02*
X115520362Y-72111247D01*
X113901314Y-71539819D02*
X113329886Y-71539819D01*
X113615600Y-72539819D02*
X113615600Y-71539819D01*
X112615600Y-72492200D02*
X112710838Y-72539819D01*
X112710838Y-72539819D02*
X112901314Y-72539819D01*
X112901314Y-72539819D02*
X112996552Y-72492200D01*
X112996552Y-72492200D02*
X113044171Y-72396961D01*
X113044171Y-72396961D02*
X113044171Y-72016009D01*
X113044171Y-72016009D02*
X112996552Y-71920771D01*
X112996552Y-71920771D02*
X112901314Y-71873152D01*
X112901314Y-71873152D02*
X112710838Y-71873152D01*
X112710838Y-71873152D02*
X112615600Y-71920771D01*
X112615600Y-71920771D02*
X112567981Y-72016009D01*
X112567981Y-72016009D02*
X112567981Y-72111247D01*
X112567981Y-72111247D02*
X113044171Y-72206485D01*
X112187028Y-72492200D02*
X112091790Y-72539819D01*
X112091790Y-72539819D02*
X111901314Y-72539819D01*
X111901314Y-72539819D02*
X111806076Y-72492200D01*
X111806076Y-72492200D02*
X111758457Y-72396961D01*
X111758457Y-72396961D02*
X111758457Y-72349342D01*
X111758457Y-72349342D02*
X111806076Y-72254104D01*
X111806076Y-72254104D02*
X111901314Y-72206485D01*
X111901314Y-72206485D02*
X112044171Y-72206485D01*
X112044171Y-72206485D02*
X112139409Y-72158866D01*
X112139409Y-72158866D02*
X112187028Y-72063628D01*
X112187028Y-72063628D02*
X112187028Y-72016009D01*
X112187028Y-72016009D02*
X112139409Y-71920771D01*
X112139409Y-71920771D02*
X112044171Y-71873152D01*
X112044171Y-71873152D02*
X111901314Y-71873152D01*
X111901314Y-71873152D02*
X111806076Y-71920771D01*
X111472742Y-71873152D02*
X111091790Y-71873152D01*
X111329885Y-71539819D02*
X111329885Y-72396961D01*
X111329885Y-72396961D02*
X111282266Y-72492200D01*
X111282266Y-72492200D02*
X111187028Y-72539819D01*
X111187028Y-72539819D02*
X111091790Y-72539819D01*
X109663218Y-72016009D02*
X109520361Y-72063628D01*
X109520361Y-72063628D02*
X109472742Y-72111247D01*
X109472742Y-72111247D02*
X109425123Y-72206485D01*
X109425123Y-72206485D02*
X109425123Y-72349342D01*
X109425123Y-72349342D02*
X109472742Y-72444580D01*
X109472742Y-72444580D02*
X109520361Y-72492200D01*
X109520361Y-72492200D02*
X109615599Y-72539819D01*
X109615599Y-72539819D02*
X109996551Y-72539819D01*
X109996551Y-72539819D02*
X109996551Y-71539819D01*
X109996551Y-71539819D02*
X109663218Y-71539819D01*
X109663218Y-71539819D02*
X109567980Y-71587438D01*
X109567980Y-71587438D02*
X109520361Y-71635057D01*
X109520361Y-71635057D02*
X109472742Y-71730295D01*
X109472742Y-71730295D02*
X109472742Y-71825533D01*
X109472742Y-71825533D02*
X109520361Y-71920771D01*
X109520361Y-71920771D02*
X109567980Y-71968390D01*
X109567980Y-71968390D02*
X109663218Y-72016009D01*
X109663218Y-72016009D02*
X109996551Y-72016009D01*
X108853694Y-72539819D02*
X108948932Y-72492200D01*
X108948932Y-72492200D02*
X108996551Y-72444580D01*
X108996551Y-72444580D02*
X109044170Y-72349342D01*
X109044170Y-72349342D02*
X109044170Y-72063628D01*
X109044170Y-72063628D02*
X108996551Y-71968390D01*
X108996551Y-71968390D02*
X108948932Y-71920771D01*
X108948932Y-71920771D02*
X108853694Y-71873152D01*
X108853694Y-71873152D02*
X108710837Y-71873152D01*
X108710837Y-71873152D02*
X108615599Y-71920771D01*
X108615599Y-71920771D02*
X108567980Y-71968390D01*
X108567980Y-71968390D02*
X108520361Y-72063628D01*
X108520361Y-72063628D02*
X108520361Y-72349342D01*
X108520361Y-72349342D02*
X108567980Y-72444580D01*
X108567980Y-72444580D02*
X108615599Y-72492200D01*
X108615599Y-72492200D02*
X108710837Y-72539819D01*
X108710837Y-72539819D02*
X108853694Y-72539819D01*
X107663218Y-72539819D02*
X107663218Y-72016009D01*
X107663218Y-72016009D02*
X107710837Y-71920771D01*
X107710837Y-71920771D02*
X107806075Y-71873152D01*
X107806075Y-71873152D02*
X107996551Y-71873152D01*
X107996551Y-71873152D02*
X108091789Y-71920771D01*
X107663218Y-72492200D02*
X107758456Y-72539819D01*
X107758456Y-72539819D02*
X107996551Y-72539819D01*
X107996551Y-72539819D02*
X108091789Y-72492200D01*
X108091789Y-72492200D02*
X108139408Y-72396961D01*
X108139408Y-72396961D02*
X108139408Y-72301723D01*
X108139408Y-72301723D02*
X108091789Y-72206485D01*
X108091789Y-72206485D02*
X107996551Y-72158866D01*
X107996551Y-72158866D02*
X107758456Y-72158866D01*
X107758456Y-72158866D02*
X107663218Y-72111247D01*
X107187027Y-72539819D02*
X107187027Y-71873152D01*
X107187027Y-72063628D02*
X107139408Y-71968390D01*
X107139408Y-71968390D02*
X107091789Y-71920771D01*
X107091789Y-71920771D02*
X106996551Y-71873152D01*
X106996551Y-71873152D02*
X106901313Y-71873152D01*
X106139408Y-72539819D02*
X106139408Y-71539819D01*
X106139408Y-72492200D02*
X106234646Y-72539819D01*
X106234646Y-72539819D02*
X106425122Y-72539819D01*
X106425122Y-72539819D02*
X106520360Y-72492200D01*
X106520360Y-72492200D02*
X106567979Y-72444580D01*
X106567979Y-72444580D02*
X106615598Y-72349342D01*
X106615598Y-72349342D02*
X106615598Y-72063628D01*
X106615598Y-72063628D02*
X106567979Y-71968390D01*
X106567979Y-71968390D02*
X106520360Y-71920771D01*
X106520360Y-71920771D02*
X106425122Y-71873152D01*
X106425122Y-71873152D02*
X106234646Y-71873152D01*
X106234646Y-71873152D02*
X106139408Y-71920771D01*
X126377506Y-73149819D02*
X126377506Y-73864104D01*
X126377506Y-73864104D02*
X126425125Y-74006961D01*
X126425125Y-74006961D02*
X126520363Y-74102200D01*
X126520363Y-74102200D02*
X126663220Y-74149819D01*
X126663220Y-74149819D02*
X126758458Y-74149819D01*
X125472744Y-74149819D02*
X125472744Y-73626009D01*
X125472744Y-73626009D02*
X125520363Y-73530771D01*
X125520363Y-73530771D02*
X125615601Y-73483152D01*
X125615601Y-73483152D02*
X125806077Y-73483152D01*
X125806077Y-73483152D02*
X125901315Y-73530771D01*
X125472744Y-74102200D02*
X125567982Y-74149819D01*
X125567982Y-74149819D02*
X125806077Y-74149819D01*
X125806077Y-74149819D02*
X125901315Y-74102200D01*
X125901315Y-74102200D02*
X125948934Y-74006961D01*
X125948934Y-74006961D02*
X125948934Y-73911723D01*
X125948934Y-73911723D02*
X125901315Y-73816485D01*
X125901315Y-73816485D02*
X125806077Y-73768866D01*
X125806077Y-73768866D02*
X125567982Y-73768866D01*
X125567982Y-73768866D02*
X125472744Y-73721247D01*
X124996553Y-73483152D02*
X124996553Y-74149819D01*
X124996553Y-73578390D02*
X124948934Y-73530771D01*
X124948934Y-73530771D02*
X124853696Y-73483152D01*
X124853696Y-73483152D02*
X124710839Y-73483152D01*
X124710839Y-73483152D02*
X124615601Y-73530771D01*
X124615601Y-73530771D02*
X124567982Y-73626009D01*
X124567982Y-73626009D02*
X124567982Y-74149819D01*
X123377505Y-73245057D02*
X123329886Y-73197438D01*
X123329886Y-73197438D02*
X123234648Y-73149819D01*
X123234648Y-73149819D02*
X122996553Y-73149819D01*
X122996553Y-73149819D02*
X122901315Y-73197438D01*
X122901315Y-73197438D02*
X122853696Y-73245057D01*
X122853696Y-73245057D02*
X122806077Y-73340295D01*
X122806077Y-73340295D02*
X122806077Y-73435533D01*
X122806077Y-73435533D02*
X122853696Y-73578390D01*
X122853696Y-73578390D02*
X123425124Y-74149819D01*
X123425124Y-74149819D02*
X122806077Y-74149819D01*
X122187029Y-73149819D02*
X122091791Y-73149819D01*
X122091791Y-73149819D02*
X121996553Y-73197438D01*
X121996553Y-73197438D02*
X121948934Y-73245057D01*
X121948934Y-73245057D02*
X121901315Y-73340295D01*
X121901315Y-73340295D02*
X121853696Y-73530771D01*
X121853696Y-73530771D02*
X121853696Y-73768866D01*
X121853696Y-73768866D02*
X121901315Y-73959342D01*
X121901315Y-73959342D02*
X121948934Y-74054580D01*
X121948934Y-74054580D02*
X121996553Y-74102200D01*
X121996553Y-74102200D02*
X122091791Y-74149819D01*
X122091791Y-74149819D02*
X122187029Y-74149819D01*
X122187029Y-74149819D02*
X122282267Y-74102200D01*
X122282267Y-74102200D02*
X122329886Y-74054580D01*
X122329886Y-74054580D02*
X122377505Y-73959342D01*
X122377505Y-73959342D02*
X122425124Y-73768866D01*
X122425124Y-73768866D02*
X122425124Y-73530771D01*
X122425124Y-73530771D02*
X122377505Y-73340295D01*
X122377505Y-73340295D02*
X122329886Y-73245057D01*
X122329886Y-73245057D02*
X122282267Y-73197438D01*
X122282267Y-73197438D02*
X122187029Y-73149819D01*
X121472743Y-73245057D02*
X121425124Y-73197438D01*
X121425124Y-73197438D02*
X121329886Y-73149819D01*
X121329886Y-73149819D02*
X121091791Y-73149819D01*
X121091791Y-73149819D02*
X120996553Y-73197438D01*
X120996553Y-73197438D02*
X120948934Y-73245057D01*
X120948934Y-73245057D02*
X120901315Y-73340295D01*
X120901315Y-73340295D02*
X120901315Y-73435533D01*
X120901315Y-73435533D02*
X120948934Y-73578390D01*
X120948934Y-73578390D02*
X121520362Y-74149819D01*
X121520362Y-74149819D02*
X120901315Y-74149819D01*
X120044172Y-73483152D02*
X120044172Y-74149819D01*
X120282267Y-73102200D02*
X120520362Y-73816485D01*
X120520362Y-73816485D02*
X119901315Y-73816485D01*
X126663220Y-75759819D02*
X126663220Y-74759819D01*
X126663220Y-75140771D02*
X126567982Y-75093152D01*
X126567982Y-75093152D02*
X126377506Y-75093152D01*
X126377506Y-75093152D02*
X126282268Y-75140771D01*
X126282268Y-75140771D02*
X126234649Y-75188390D01*
X126234649Y-75188390D02*
X126187030Y-75283628D01*
X126187030Y-75283628D02*
X126187030Y-75569342D01*
X126187030Y-75569342D02*
X126234649Y-75664580D01*
X126234649Y-75664580D02*
X126282268Y-75712200D01*
X126282268Y-75712200D02*
X126377506Y-75759819D01*
X126377506Y-75759819D02*
X126567982Y-75759819D01*
X126567982Y-75759819D02*
X126663220Y-75712200D01*
X125853696Y-75093152D02*
X125615601Y-75759819D01*
X125377506Y-75093152D02*
X125615601Y-75759819D01*
X125615601Y-75759819D02*
X125710839Y-75997914D01*
X125710839Y-75997914D02*
X125758458Y-76045533D01*
X125758458Y-76045533D02*
X125853696Y-76093152D01*
X124234648Y-75759819D02*
X124234648Y-74759819D01*
X124234648Y-74759819D02*
X123901315Y-75474104D01*
X123901315Y-75474104D02*
X123567982Y-74759819D01*
X123567982Y-74759819D02*
X123567982Y-75759819D01*
X122663220Y-75759819D02*
X122663220Y-75236009D01*
X122663220Y-75236009D02*
X122710839Y-75140771D01*
X122710839Y-75140771D02*
X122806077Y-75093152D01*
X122806077Y-75093152D02*
X122996553Y-75093152D01*
X122996553Y-75093152D02*
X123091791Y-75140771D01*
X122663220Y-75712200D02*
X122758458Y-75759819D01*
X122758458Y-75759819D02*
X122996553Y-75759819D01*
X122996553Y-75759819D02*
X123091791Y-75712200D01*
X123091791Y-75712200D02*
X123139410Y-75616961D01*
X123139410Y-75616961D02*
X123139410Y-75521723D01*
X123139410Y-75521723D02*
X123091791Y-75426485D01*
X123091791Y-75426485D02*
X122996553Y-75378866D01*
X122996553Y-75378866D02*
X122758458Y-75378866D01*
X122758458Y-75378866D02*
X122663220Y-75331247D01*
X122329886Y-75093152D02*
X121948934Y-75093152D01*
X122187029Y-74759819D02*
X122187029Y-75616961D01*
X122187029Y-75616961D02*
X122139410Y-75712200D01*
X122139410Y-75712200D02*
X122044172Y-75759819D01*
X122044172Y-75759819D02*
X121948934Y-75759819D01*
X121615600Y-75759819D02*
X121615600Y-75093152D01*
X121615600Y-74759819D02*
X121663219Y-74807438D01*
X121663219Y-74807438D02*
X121615600Y-74855057D01*
X121615600Y-74855057D02*
X121567981Y-74807438D01*
X121567981Y-74807438D02*
X121615600Y-74759819D01*
X121615600Y-74759819D02*
X121615600Y-74855057D01*
X120710839Y-75759819D02*
X120710839Y-75236009D01*
X120710839Y-75236009D02*
X120758458Y-75140771D01*
X120758458Y-75140771D02*
X120853696Y-75093152D01*
X120853696Y-75093152D02*
X121044172Y-75093152D01*
X121044172Y-75093152D02*
X121139410Y-75140771D01*
X120710839Y-75712200D02*
X120806077Y-75759819D01*
X120806077Y-75759819D02*
X121044172Y-75759819D01*
X121044172Y-75759819D02*
X121139410Y-75712200D01*
X121139410Y-75712200D02*
X121187029Y-75616961D01*
X121187029Y-75616961D02*
X121187029Y-75521723D01*
X121187029Y-75521723D02*
X121139410Y-75426485D01*
X121139410Y-75426485D02*
X121044172Y-75378866D01*
X121044172Y-75378866D02*
X120806077Y-75378866D01*
X120806077Y-75378866D02*
X120710839Y-75331247D01*
X118901315Y-75664580D02*
X118948934Y-75712200D01*
X118948934Y-75712200D02*
X119091791Y-75759819D01*
X119091791Y-75759819D02*
X119187029Y-75759819D01*
X119187029Y-75759819D02*
X119329886Y-75712200D01*
X119329886Y-75712200D02*
X119425124Y-75616961D01*
X119425124Y-75616961D02*
X119472743Y-75521723D01*
X119472743Y-75521723D02*
X119520362Y-75331247D01*
X119520362Y-75331247D02*
X119520362Y-75188390D01*
X119520362Y-75188390D02*
X119472743Y-74997914D01*
X119472743Y-74997914D02*
X119425124Y-74902676D01*
X119425124Y-74902676D02*
X119329886Y-74807438D01*
X119329886Y-74807438D02*
X119187029Y-74759819D01*
X119187029Y-74759819D02*
X119091791Y-74759819D01*
X119091791Y-74759819D02*
X118948934Y-74807438D01*
X118948934Y-74807438D02*
X118901315Y-74855057D01*
X118472743Y-75759819D02*
X118472743Y-74759819D01*
X118044172Y-75759819D02*
X118044172Y-75236009D01*
X118044172Y-75236009D02*
X118091791Y-75140771D01*
X118091791Y-75140771D02*
X118187029Y-75093152D01*
X118187029Y-75093152D02*
X118329886Y-75093152D01*
X118329886Y-75093152D02*
X118425124Y-75140771D01*
X118425124Y-75140771D02*
X118472743Y-75188390D01*
X117425124Y-75759819D02*
X117520362Y-75712200D01*
X117520362Y-75712200D02*
X117567981Y-75664580D01*
X117567981Y-75664580D02*
X117615600Y-75569342D01*
X117615600Y-75569342D02*
X117615600Y-75283628D01*
X117615600Y-75283628D02*
X117567981Y-75188390D01*
X117567981Y-75188390D02*
X117520362Y-75140771D01*
X117520362Y-75140771D02*
X117425124Y-75093152D01*
X117425124Y-75093152D02*
X117282267Y-75093152D01*
X117282267Y-75093152D02*
X117187029Y-75140771D01*
X117187029Y-75140771D02*
X117139410Y-75188390D01*
X117139410Y-75188390D02*
X117091791Y-75283628D01*
X117091791Y-75283628D02*
X117091791Y-75569342D01*
X117091791Y-75569342D02*
X117139410Y-75664580D01*
X117139410Y-75664580D02*
X117187029Y-75712200D01*
X117187029Y-75712200D02*
X117282267Y-75759819D01*
X117282267Y-75759819D02*
X117425124Y-75759819D01*
X116663219Y-75759819D02*
X116663219Y-75093152D01*
X116663219Y-74759819D02*
X116710838Y-74807438D01*
X116710838Y-74807438D02*
X116663219Y-74855057D01*
X116663219Y-74855057D02*
X116615600Y-74807438D01*
X116615600Y-74807438D02*
X116663219Y-74759819D01*
X116663219Y-74759819D02*
X116663219Y-74855057D01*
X126139411Y-76417438D02*
X126234649Y-76369819D01*
X126234649Y-76369819D02*
X126377506Y-76369819D01*
X126377506Y-76369819D02*
X126520363Y-76417438D01*
X126520363Y-76417438D02*
X126615601Y-76512676D01*
X126615601Y-76512676D02*
X126663220Y-76607914D01*
X126663220Y-76607914D02*
X126710839Y-76798390D01*
X126710839Y-76798390D02*
X126710839Y-76941247D01*
X126710839Y-76941247D02*
X126663220Y-77131723D01*
X126663220Y-77131723D02*
X126615601Y-77226961D01*
X126615601Y-77226961D02*
X126520363Y-77322200D01*
X126520363Y-77322200D02*
X126377506Y-77369819D01*
X126377506Y-77369819D02*
X126282268Y-77369819D01*
X126282268Y-77369819D02*
X126139411Y-77322200D01*
X126139411Y-77322200D02*
X126091792Y-77274580D01*
X126091792Y-77274580D02*
X126091792Y-76941247D01*
X126091792Y-76941247D02*
X126282268Y-76941247D01*
X125663220Y-77369819D02*
X125663220Y-76703152D01*
X125663220Y-76369819D02*
X125710839Y-76417438D01*
X125710839Y-76417438D02*
X125663220Y-76465057D01*
X125663220Y-76465057D02*
X125615601Y-76417438D01*
X125615601Y-76417438D02*
X125663220Y-76369819D01*
X125663220Y-76369819D02*
X125663220Y-76465057D01*
X125329887Y-76703152D02*
X124948935Y-76703152D01*
X125187030Y-76369819D02*
X125187030Y-77226961D01*
X125187030Y-77226961D02*
X125139411Y-77322200D01*
X125139411Y-77322200D02*
X125044173Y-77369819D01*
X125044173Y-77369819D02*
X124948935Y-77369819D01*
X124615601Y-77369819D02*
X124615601Y-76369819D01*
X124187030Y-77369819D02*
X124187030Y-76846009D01*
X124187030Y-76846009D02*
X124234649Y-76750771D01*
X124234649Y-76750771D02*
X124329887Y-76703152D01*
X124329887Y-76703152D02*
X124472744Y-76703152D01*
X124472744Y-76703152D02*
X124567982Y-76750771D01*
X124567982Y-76750771D02*
X124615601Y-76798390D01*
X123282268Y-76703152D02*
X123282268Y-77369819D01*
X123710839Y-76703152D02*
X123710839Y-77226961D01*
X123710839Y-77226961D02*
X123663220Y-77322200D01*
X123663220Y-77322200D02*
X123567982Y-77369819D01*
X123567982Y-77369819D02*
X123425125Y-77369819D01*
X123425125Y-77369819D02*
X123329887Y-77322200D01*
X123329887Y-77322200D02*
X123282268Y-77274580D01*
X122806077Y-77369819D02*
X122806077Y-76369819D01*
X122806077Y-76750771D02*
X122710839Y-76703152D01*
X122710839Y-76703152D02*
X122520363Y-76703152D01*
X122520363Y-76703152D02*
X122425125Y-76750771D01*
X122425125Y-76750771D02*
X122377506Y-76798390D01*
X122377506Y-76798390D02*
X122329887Y-76893628D01*
X122329887Y-76893628D02*
X122329887Y-77179342D01*
X122329887Y-77179342D02*
X122377506Y-77274580D01*
X122377506Y-77274580D02*
X122425125Y-77322200D01*
X122425125Y-77322200D02*
X122520363Y-77369819D01*
X122520363Y-77369819D02*
X122710839Y-77369819D01*
X122710839Y-77369819D02*
X122806077Y-77322200D01*
X121901315Y-77274580D02*
X121853696Y-77322200D01*
X121853696Y-77322200D02*
X121901315Y-77369819D01*
X121901315Y-77369819D02*
X121948934Y-77322200D01*
X121948934Y-77322200D02*
X121901315Y-77274580D01*
X121901315Y-77274580D02*
X121901315Y-77369819D01*
X121901315Y-76750771D02*
X121853696Y-76798390D01*
X121853696Y-76798390D02*
X121901315Y-76846009D01*
X121901315Y-76846009D02*
X121948934Y-76798390D01*
X121948934Y-76798390D02*
X121901315Y-76750771D01*
X121901315Y-76750771D02*
X121901315Y-76846009D01*
X120663220Y-77369819D02*
X120663220Y-76703152D01*
X120663220Y-76798390D02*
X120615601Y-76750771D01*
X120615601Y-76750771D02*
X120520363Y-76703152D01*
X120520363Y-76703152D02*
X120377506Y-76703152D01*
X120377506Y-76703152D02*
X120282268Y-76750771D01*
X120282268Y-76750771D02*
X120234649Y-76846009D01*
X120234649Y-76846009D02*
X120234649Y-77369819D01*
X120234649Y-76846009D02*
X120187030Y-76750771D01*
X120187030Y-76750771D02*
X120091792Y-76703152D01*
X120091792Y-76703152D02*
X119948935Y-76703152D01*
X119948935Y-76703152D02*
X119853696Y-76750771D01*
X119853696Y-76750771D02*
X119806077Y-76846009D01*
X119806077Y-76846009D02*
X119806077Y-77369819D01*
X118901316Y-77369819D02*
X118901316Y-76846009D01*
X118901316Y-76846009D02*
X118948935Y-76750771D01*
X118948935Y-76750771D02*
X119044173Y-76703152D01*
X119044173Y-76703152D02*
X119234649Y-76703152D01*
X119234649Y-76703152D02*
X119329887Y-76750771D01*
X118901316Y-77322200D02*
X118996554Y-77369819D01*
X118996554Y-77369819D02*
X119234649Y-77369819D01*
X119234649Y-77369819D02*
X119329887Y-77322200D01*
X119329887Y-77322200D02*
X119377506Y-77226961D01*
X119377506Y-77226961D02*
X119377506Y-77131723D01*
X119377506Y-77131723D02*
X119329887Y-77036485D01*
X119329887Y-77036485D02*
X119234649Y-76988866D01*
X119234649Y-76988866D02*
X118996554Y-76988866D01*
X118996554Y-76988866D02*
X118901316Y-76941247D01*
X118567982Y-76703152D02*
X118187030Y-76703152D01*
X118425125Y-76369819D02*
X118425125Y-77226961D01*
X118425125Y-77226961D02*
X118377506Y-77322200D01*
X118377506Y-77322200D02*
X118282268Y-77369819D01*
X118282268Y-77369819D02*
X118187030Y-77369819D01*
X117853696Y-77369819D02*
X117853696Y-76703152D01*
X117853696Y-76369819D02*
X117901315Y-76417438D01*
X117901315Y-76417438D02*
X117853696Y-76465057D01*
X117853696Y-76465057D02*
X117806077Y-76417438D01*
X117806077Y-76417438D02*
X117853696Y-76369819D01*
X117853696Y-76369819D02*
X117853696Y-76465057D01*
X116948935Y-77369819D02*
X116948935Y-76846009D01*
X116948935Y-76846009D02*
X116996554Y-76750771D01*
X116996554Y-76750771D02*
X117091792Y-76703152D01*
X117091792Y-76703152D02*
X117282268Y-76703152D01*
X117282268Y-76703152D02*
X117377506Y-76750771D01*
X116948935Y-77322200D02*
X117044173Y-77369819D01*
X117044173Y-77369819D02*
X117282268Y-77369819D01*
X117282268Y-77369819D02*
X117377506Y-77322200D01*
X117377506Y-77322200D02*
X117425125Y-77226961D01*
X117425125Y-77226961D02*
X117425125Y-77131723D01*
X117425125Y-77131723D02*
X117377506Y-77036485D01*
X117377506Y-77036485D02*
X117282268Y-76988866D01*
X117282268Y-76988866D02*
X117044173Y-76988866D01*
X117044173Y-76988866D02*
X116948935Y-76941247D01*
X116044173Y-76369819D02*
X116234649Y-76369819D01*
X116234649Y-76369819D02*
X116329887Y-76417438D01*
X116329887Y-76417438D02*
X116377506Y-76465057D01*
X116377506Y-76465057D02*
X116472744Y-76607914D01*
X116472744Y-76607914D02*
X116520363Y-76798390D01*
X116520363Y-76798390D02*
X116520363Y-77179342D01*
X116520363Y-77179342D02*
X116472744Y-77274580D01*
X116472744Y-77274580D02*
X116425125Y-77322200D01*
X116425125Y-77322200D02*
X116329887Y-77369819D01*
X116329887Y-77369819D02*
X116139411Y-77369819D01*
X116139411Y-77369819D02*
X116044173Y-77322200D01*
X116044173Y-77322200D02*
X115996554Y-77274580D01*
X115996554Y-77274580D02*
X115948935Y-77179342D01*
X115948935Y-77179342D02*
X115948935Y-76941247D01*
X115948935Y-76941247D02*
X115996554Y-76846009D01*
X115996554Y-76846009D02*
X116044173Y-76798390D01*
X116044173Y-76798390D02*
X116139411Y-76750771D01*
X116139411Y-76750771D02*
X116329887Y-76750771D01*
X116329887Y-76750771D02*
X116425125Y-76798390D01*
X116425125Y-76798390D02*
X116472744Y-76846009D01*
X116472744Y-76846009D02*
X116520363Y-76941247D01*
X114996554Y-77369819D02*
X115567982Y-77369819D01*
X115282268Y-77369819D02*
X115282268Y-76369819D01*
X115282268Y-76369819D02*
X115377506Y-76512676D01*
X115377506Y-76512676D02*
X115472744Y-76607914D01*
X115472744Y-76607914D02*
X115567982Y-76655533D01*
X114663220Y-76369819D02*
X113996554Y-76369819D01*
X113996554Y-76369819D02*
X114425125Y-77369819D01*
X113425125Y-76369819D02*
X113329887Y-76369819D01*
X113329887Y-76369819D02*
X113234649Y-76417438D01*
X113234649Y-76417438D02*
X113187030Y-76465057D01*
X113187030Y-76465057D02*
X113139411Y-76560295D01*
X113139411Y-76560295D02*
X113091792Y-76750771D01*
X113091792Y-76750771D02*
X113091792Y-76988866D01*
X113091792Y-76988866D02*
X113139411Y-77179342D01*
X113139411Y-77179342D02*
X113187030Y-77274580D01*
X113187030Y-77274580D02*
X113234649Y-77322200D01*
X113234649Y-77322200D02*
X113329887Y-77369819D01*
X113329887Y-77369819D02*
X113425125Y-77369819D01*
X113425125Y-77369819D02*
X113520363Y-77322200D01*
X113520363Y-77322200D02*
X113567982Y-77274580D01*
X113567982Y-77274580D02*
X113615601Y-77179342D01*
X113615601Y-77179342D02*
X113663220Y-76988866D01*
X113663220Y-76988866D02*
X113663220Y-76750771D01*
X113663220Y-76750771D02*
X113615601Y-76560295D01*
X113615601Y-76560295D02*
X113567982Y-76465057D01*
X113567982Y-76465057D02*
X113520363Y-76417438D01*
X113520363Y-76417438D02*
X113425125Y-76369819D01*
M02*
