%TF.GenerationSoftware,KiCad,Pcbnew,7.0.9*%
%TF.CreationDate,2024-01-02T16:37:46-08:00*%
%TF.ProjectId,STM32F103C8T6,53544d33-3246-4313-9033-433854362e6b,rev?*%
%TF.SameCoordinates,Original*%
%TF.FileFunction,Legend,Top*%
%TF.FilePolarity,Positive*%
%FSLAX46Y46*%
G04 Gerber Fmt 4.6, Leading zero omitted, Abs format (unit mm)*
G04 Created by KiCad (PCBNEW 7.0.9) date 2024-01-02 16:37:46*
%MOMM*%
%LPD*%
G01*
G04 APERTURE LIST*
%ADD10C,0.125000*%
%ADD11C,0.150000*%
%ADD12C,0.100000*%
%ADD13C,0.120000*%
G04 APERTURE END LIST*
D10*
X100182236Y-94707833D02*
X100615569Y-94707833D01*
X100615569Y-94707833D02*
X100382236Y-94974500D01*
X100382236Y-94974500D02*
X100482236Y-94974500D01*
X100482236Y-94974500D02*
X100548902Y-95007833D01*
X100548902Y-95007833D02*
X100582236Y-95041166D01*
X100582236Y-95041166D02*
X100615569Y-95107833D01*
X100615569Y-95107833D02*
X100615569Y-95274500D01*
X100615569Y-95274500D02*
X100582236Y-95341166D01*
X100582236Y-95341166D02*
X100548902Y-95374500D01*
X100548902Y-95374500D02*
X100482236Y-95407833D01*
X100482236Y-95407833D02*
X100282236Y-95407833D01*
X100282236Y-95407833D02*
X100215569Y-95374500D01*
X100215569Y-95374500D02*
X100182236Y-95341166D01*
X100848903Y-94941166D02*
X101015569Y-95407833D01*
X101015569Y-95407833D02*
X101182236Y-94941166D01*
X101382236Y-94707833D02*
X101815569Y-94707833D01*
X101815569Y-94707833D02*
X101582236Y-94974500D01*
X101582236Y-94974500D02*
X101682236Y-94974500D01*
X101682236Y-94974500D02*
X101748902Y-95007833D01*
X101748902Y-95007833D02*
X101782236Y-95041166D01*
X101782236Y-95041166D02*
X101815569Y-95107833D01*
X101815569Y-95107833D02*
X101815569Y-95274500D01*
X101815569Y-95274500D02*
X101782236Y-95341166D01*
X101782236Y-95341166D02*
X101748902Y-95374500D01*
X101748902Y-95374500D02*
X101682236Y-95407833D01*
X101682236Y-95407833D02*
X101482236Y-95407833D01*
X101482236Y-95407833D02*
X101415569Y-95374500D01*
X101415569Y-95374500D02*
X101382236Y-95341166D01*
X102898902Y-70957833D02*
X103298902Y-70957833D01*
X103098902Y-71657833D02*
X103098902Y-70957833D01*
X103465569Y-70957833D02*
X103932235Y-71657833D01*
X103932235Y-70957833D02*
X103465569Y-71657833D01*
D11*
X119872493Y-72509819D02*
X119872493Y-73224104D01*
X119872493Y-73224104D02*
X119824874Y-73366961D01*
X119824874Y-73366961D02*
X119729636Y-73462200D01*
X119729636Y-73462200D02*
X119586779Y-73509819D01*
X119586779Y-73509819D02*
X119491541Y-73509819D01*
X120777255Y-73509819D02*
X120777255Y-72986009D01*
X120777255Y-72986009D02*
X120729636Y-72890771D01*
X120729636Y-72890771D02*
X120634398Y-72843152D01*
X120634398Y-72843152D02*
X120443922Y-72843152D01*
X120443922Y-72843152D02*
X120348684Y-72890771D01*
X120777255Y-73462200D02*
X120682017Y-73509819D01*
X120682017Y-73509819D02*
X120443922Y-73509819D01*
X120443922Y-73509819D02*
X120348684Y-73462200D01*
X120348684Y-73462200D02*
X120301065Y-73366961D01*
X120301065Y-73366961D02*
X120301065Y-73271723D01*
X120301065Y-73271723D02*
X120348684Y-73176485D01*
X120348684Y-73176485D02*
X120443922Y-73128866D01*
X120443922Y-73128866D02*
X120682017Y-73128866D01*
X120682017Y-73128866D02*
X120777255Y-73081247D01*
X121253446Y-72843152D02*
X121253446Y-73509819D01*
X121253446Y-72938390D02*
X121301065Y-72890771D01*
X121301065Y-72890771D02*
X121396303Y-72843152D01*
X121396303Y-72843152D02*
X121539160Y-72843152D01*
X121539160Y-72843152D02*
X121634398Y-72890771D01*
X121634398Y-72890771D02*
X121682017Y-72986009D01*
X121682017Y-72986009D02*
X121682017Y-73509819D01*
X122872494Y-72605057D02*
X122920113Y-72557438D01*
X122920113Y-72557438D02*
X123015351Y-72509819D01*
X123015351Y-72509819D02*
X123253446Y-72509819D01*
X123253446Y-72509819D02*
X123348684Y-72557438D01*
X123348684Y-72557438D02*
X123396303Y-72605057D01*
X123396303Y-72605057D02*
X123443922Y-72700295D01*
X123443922Y-72700295D02*
X123443922Y-72795533D01*
X123443922Y-72795533D02*
X123396303Y-72938390D01*
X123396303Y-72938390D02*
X122824875Y-73509819D01*
X122824875Y-73509819D02*
X123443922Y-73509819D01*
X124062970Y-72509819D02*
X124158208Y-72509819D01*
X124158208Y-72509819D02*
X124253446Y-72557438D01*
X124253446Y-72557438D02*
X124301065Y-72605057D01*
X124301065Y-72605057D02*
X124348684Y-72700295D01*
X124348684Y-72700295D02*
X124396303Y-72890771D01*
X124396303Y-72890771D02*
X124396303Y-73128866D01*
X124396303Y-73128866D02*
X124348684Y-73319342D01*
X124348684Y-73319342D02*
X124301065Y-73414580D01*
X124301065Y-73414580D02*
X124253446Y-73462200D01*
X124253446Y-73462200D02*
X124158208Y-73509819D01*
X124158208Y-73509819D02*
X124062970Y-73509819D01*
X124062970Y-73509819D02*
X123967732Y-73462200D01*
X123967732Y-73462200D02*
X123920113Y-73414580D01*
X123920113Y-73414580D02*
X123872494Y-73319342D01*
X123872494Y-73319342D02*
X123824875Y-73128866D01*
X123824875Y-73128866D02*
X123824875Y-72890771D01*
X123824875Y-72890771D02*
X123872494Y-72700295D01*
X123872494Y-72700295D02*
X123920113Y-72605057D01*
X123920113Y-72605057D02*
X123967732Y-72557438D01*
X123967732Y-72557438D02*
X124062970Y-72509819D01*
X124777256Y-72605057D02*
X124824875Y-72557438D01*
X124824875Y-72557438D02*
X124920113Y-72509819D01*
X124920113Y-72509819D02*
X125158208Y-72509819D01*
X125158208Y-72509819D02*
X125253446Y-72557438D01*
X125253446Y-72557438D02*
X125301065Y-72605057D01*
X125301065Y-72605057D02*
X125348684Y-72700295D01*
X125348684Y-72700295D02*
X125348684Y-72795533D01*
X125348684Y-72795533D02*
X125301065Y-72938390D01*
X125301065Y-72938390D02*
X124729637Y-73509819D01*
X124729637Y-73509819D02*
X125348684Y-73509819D01*
X126205827Y-72843152D02*
X126205827Y-73509819D01*
X125967732Y-72462200D02*
X125729637Y-73176485D01*
X125729637Y-73176485D02*
X126348684Y-73176485D01*
X119491541Y-74453152D02*
X119729636Y-75119819D01*
X119729636Y-75119819D02*
X119967731Y-74453152D01*
X120539160Y-74119819D02*
X120634398Y-74119819D01*
X120634398Y-74119819D02*
X120729636Y-74167438D01*
X120729636Y-74167438D02*
X120777255Y-74215057D01*
X120777255Y-74215057D02*
X120824874Y-74310295D01*
X120824874Y-74310295D02*
X120872493Y-74500771D01*
X120872493Y-74500771D02*
X120872493Y-74738866D01*
X120872493Y-74738866D02*
X120824874Y-74929342D01*
X120824874Y-74929342D02*
X120777255Y-75024580D01*
X120777255Y-75024580D02*
X120729636Y-75072200D01*
X120729636Y-75072200D02*
X120634398Y-75119819D01*
X120634398Y-75119819D02*
X120539160Y-75119819D01*
X120539160Y-75119819D02*
X120443922Y-75072200D01*
X120443922Y-75072200D02*
X120396303Y-75024580D01*
X120396303Y-75024580D02*
X120348684Y-74929342D01*
X120348684Y-74929342D02*
X120301065Y-74738866D01*
X120301065Y-74738866D02*
X120301065Y-74500771D01*
X120301065Y-74500771D02*
X120348684Y-74310295D01*
X120348684Y-74310295D02*
X120396303Y-74215057D01*
X120396303Y-74215057D02*
X120443922Y-74167438D01*
X120443922Y-74167438D02*
X120539160Y-74119819D01*
X121301065Y-75024580D02*
X121348684Y-75072200D01*
X121348684Y-75072200D02*
X121301065Y-75119819D01*
X121301065Y-75119819D02*
X121253446Y-75072200D01*
X121253446Y-75072200D02*
X121301065Y-75024580D01*
X121301065Y-75024580D02*
X121301065Y-75119819D01*
X122301064Y-75119819D02*
X121729636Y-75119819D01*
X122015350Y-75119819D02*
X122015350Y-74119819D01*
X122015350Y-74119819D02*
X121920112Y-74262676D01*
X121920112Y-74262676D02*
X121824874Y-74357914D01*
X121824874Y-74357914D02*
X121729636Y-74405533D01*
X114086779Y-73529700D02*
X114265350Y-73589223D01*
X114265350Y-73589223D02*
X114562969Y-73589223D01*
X114562969Y-73589223D02*
X114682017Y-73529700D01*
X114682017Y-73529700D02*
X114741541Y-73470176D01*
X114741541Y-73470176D02*
X114801064Y-73351128D01*
X114801064Y-73351128D02*
X114801064Y-73232080D01*
X114801064Y-73232080D02*
X114741541Y-73113033D01*
X114741541Y-73113033D02*
X114682017Y-73053509D01*
X114682017Y-73053509D02*
X114562969Y-72993985D01*
X114562969Y-72993985D02*
X114324874Y-72934461D01*
X114324874Y-72934461D02*
X114205826Y-72874938D01*
X114205826Y-72874938D02*
X114146303Y-72815414D01*
X114146303Y-72815414D02*
X114086779Y-72696366D01*
X114086779Y-72696366D02*
X114086779Y-72577319D01*
X114086779Y-72577319D02*
X114146303Y-72458271D01*
X114146303Y-72458271D02*
X114205826Y-72398747D01*
X114205826Y-72398747D02*
X114324874Y-72339223D01*
X114324874Y-72339223D02*
X114622493Y-72339223D01*
X114622493Y-72339223D02*
X114801064Y-72398747D01*
X115217731Y-72339223D02*
X115515350Y-73589223D01*
X115515350Y-73589223D02*
X115753445Y-72696366D01*
X115753445Y-72696366D02*
X115991540Y-73589223D01*
X115991540Y-73589223D02*
X116289160Y-72339223D01*
X116765350Y-73589223D02*
X116765350Y-72339223D01*
X116765350Y-72339223D02*
X117062969Y-72339223D01*
X117062969Y-72339223D02*
X117241540Y-72398747D01*
X117241540Y-72398747D02*
X117360588Y-72517795D01*
X117360588Y-72517795D02*
X117420111Y-72636842D01*
X117420111Y-72636842D02*
X117479635Y-72874938D01*
X117479635Y-72874938D02*
X117479635Y-73053509D01*
X117479635Y-73053509D02*
X117420111Y-73291604D01*
X117420111Y-73291604D02*
X117360588Y-73410652D01*
X117360588Y-73410652D02*
X117241540Y-73529700D01*
X117241540Y-73529700D02*
X117062969Y-73589223D01*
X117062969Y-73589223D02*
X116765350Y-73589223D01*
D10*
X118932236Y-70957833D02*
X119365569Y-70957833D01*
X119365569Y-70957833D02*
X119132236Y-71224500D01*
X119132236Y-71224500D02*
X119232236Y-71224500D01*
X119232236Y-71224500D02*
X119298902Y-71257833D01*
X119298902Y-71257833D02*
X119332236Y-71291166D01*
X119332236Y-71291166D02*
X119365569Y-71357833D01*
X119365569Y-71357833D02*
X119365569Y-71524500D01*
X119365569Y-71524500D02*
X119332236Y-71591166D01*
X119332236Y-71591166D02*
X119298902Y-71624500D01*
X119298902Y-71624500D02*
X119232236Y-71657833D01*
X119232236Y-71657833D02*
X119032236Y-71657833D01*
X119032236Y-71657833D02*
X118965569Y-71624500D01*
X118965569Y-71624500D02*
X118932236Y-71591166D01*
X119598903Y-71191166D02*
X119765569Y-71657833D01*
X119765569Y-71657833D02*
X119932236Y-71191166D01*
X120132236Y-70957833D02*
X120565569Y-70957833D01*
X120565569Y-70957833D02*
X120332236Y-71224500D01*
X120332236Y-71224500D02*
X120432236Y-71224500D01*
X120432236Y-71224500D02*
X120498902Y-71257833D01*
X120498902Y-71257833D02*
X120532236Y-71291166D01*
X120532236Y-71291166D02*
X120565569Y-71357833D01*
X120565569Y-71357833D02*
X120565569Y-71524500D01*
X120565569Y-71524500D02*
X120532236Y-71591166D01*
X120532236Y-71591166D02*
X120498902Y-71624500D01*
X120498902Y-71624500D02*
X120432236Y-71657833D01*
X120432236Y-71657833D02*
X120232236Y-71657833D01*
X120232236Y-71657833D02*
X120165569Y-71624500D01*
X120165569Y-71624500D02*
X120132236Y-71591166D01*
D11*
X119336779Y-77119819D02*
X119336779Y-76119819D01*
X119336779Y-76119819D02*
X119670112Y-76834104D01*
X119670112Y-76834104D02*
X120003445Y-76119819D01*
X120003445Y-76119819D02*
X120003445Y-77119819D01*
X120908207Y-77119819D02*
X120908207Y-76596009D01*
X120908207Y-76596009D02*
X120860588Y-76500771D01*
X120860588Y-76500771D02*
X120765350Y-76453152D01*
X120765350Y-76453152D02*
X120574874Y-76453152D01*
X120574874Y-76453152D02*
X120479636Y-76500771D01*
X120908207Y-77072200D02*
X120812969Y-77119819D01*
X120812969Y-77119819D02*
X120574874Y-77119819D01*
X120574874Y-77119819D02*
X120479636Y-77072200D01*
X120479636Y-77072200D02*
X120432017Y-76976961D01*
X120432017Y-76976961D02*
X120432017Y-76881723D01*
X120432017Y-76881723D02*
X120479636Y-76786485D01*
X120479636Y-76786485D02*
X120574874Y-76738866D01*
X120574874Y-76738866D02*
X120812969Y-76738866D01*
X120812969Y-76738866D02*
X120908207Y-76691247D01*
X121241541Y-76453152D02*
X121622493Y-76453152D01*
X121384398Y-76119819D02*
X121384398Y-76976961D01*
X121384398Y-76976961D02*
X121432017Y-77072200D01*
X121432017Y-77072200D02*
X121527255Y-77119819D01*
X121527255Y-77119819D02*
X121622493Y-77119819D01*
X121955827Y-77119819D02*
X121955827Y-76453152D01*
X121955827Y-76119819D02*
X121908208Y-76167438D01*
X121908208Y-76167438D02*
X121955827Y-76215057D01*
X121955827Y-76215057D02*
X122003446Y-76167438D01*
X122003446Y-76167438D02*
X121955827Y-76119819D01*
X121955827Y-76119819D02*
X121955827Y-76215057D01*
X122860588Y-77119819D02*
X122860588Y-76596009D01*
X122860588Y-76596009D02*
X122812969Y-76500771D01*
X122812969Y-76500771D02*
X122717731Y-76453152D01*
X122717731Y-76453152D02*
X122527255Y-76453152D01*
X122527255Y-76453152D02*
X122432017Y-76500771D01*
X122860588Y-77072200D02*
X122765350Y-77119819D01*
X122765350Y-77119819D02*
X122527255Y-77119819D01*
X122527255Y-77119819D02*
X122432017Y-77072200D01*
X122432017Y-77072200D02*
X122384398Y-76976961D01*
X122384398Y-76976961D02*
X122384398Y-76881723D01*
X122384398Y-76881723D02*
X122432017Y-76786485D01*
X122432017Y-76786485D02*
X122527255Y-76738866D01*
X122527255Y-76738866D02*
X122765350Y-76738866D01*
X122765350Y-76738866D02*
X122860588Y-76691247D01*
X124670112Y-77024580D02*
X124622493Y-77072200D01*
X124622493Y-77072200D02*
X124479636Y-77119819D01*
X124479636Y-77119819D02*
X124384398Y-77119819D01*
X124384398Y-77119819D02*
X124241541Y-77072200D01*
X124241541Y-77072200D02*
X124146303Y-76976961D01*
X124146303Y-76976961D02*
X124098684Y-76881723D01*
X124098684Y-76881723D02*
X124051065Y-76691247D01*
X124051065Y-76691247D02*
X124051065Y-76548390D01*
X124051065Y-76548390D02*
X124098684Y-76357914D01*
X124098684Y-76357914D02*
X124146303Y-76262676D01*
X124146303Y-76262676D02*
X124241541Y-76167438D01*
X124241541Y-76167438D02*
X124384398Y-76119819D01*
X124384398Y-76119819D02*
X124479636Y-76119819D01*
X124479636Y-76119819D02*
X124622493Y-76167438D01*
X124622493Y-76167438D02*
X124670112Y-76215057D01*
X125098684Y-77119819D02*
X125098684Y-76119819D01*
X125527255Y-77119819D02*
X125527255Y-76596009D01*
X125527255Y-76596009D02*
X125479636Y-76500771D01*
X125479636Y-76500771D02*
X125384398Y-76453152D01*
X125384398Y-76453152D02*
X125241541Y-76453152D01*
X125241541Y-76453152D02*
X125146303Y-76500771D01*
X125146303Y-76500771D02*
X125098684Y-76548390D01*
X126146303Y-77119819D02*
X126051065Y-77072200D01*
X126051065Y-77072200D02*
X126003446Y-77024580D01*
X126003446Y-77024580D02*
X125955827Y-76929342D01*
X125955827Y-76929342D02*
X125955827Y-76643628D01*
X125955827Y-76643628D02*
X126003446Y-76548390D01*
X126003446Y-76548390D02*
X126051065Y-76500771D01*
X126051065Y-76500771D02*
X126146303Y-76453152D01*
X126146303Y-76453152D02*
X126289160Y-76453152D01*
X126289160Y-76453152D02*
X126384398Y-76500771D01*
X126384398Y-76500771D02*
X126432017Y-76548390D01*
X126432017Y-76548390D02*
X126479636Y-76643628D01*
X126479636Y-76643628D02*
X126479636Y-76929342D01*
X126479636Y-76929342D02*
X126432017Y-77024580D01*
X126432017Y-77024580D02*
X126384398Y-77072200D01*
X126384398Y-77072200D02*
X126289160Y-77119819D01*
X126289160Y-77119819D02*
X126146303Y-77119819D01*
X126908208Y-77119819D02*
X126908208Y-76453152D01*
X126908208Y-76119819D02*
X126860589Y-76167438D01*
X126860589Y-76167438D02*
X126908208Y-76215057D01*
X126908208Y-76215057D02*
X126955827Y-76167438D01*
X126955827Y-76167438D02*
X126908208Y-76119819D01*
X126908208Y-76119819D02*
X126908208Y-76215057D01*
D10*
X102965569Y-95374500D02*
X103065569Y-95407833D01*
X103065569Y-95407833D02*
X103232236Y-95407833D01*
X103232236Y-95407833D02*
X103298902Y-95374500D01*
X103298902Y-95374500D02*
X103332236Y-95341166D01*
X103332236Y-95341166D02*
X103365569Y-95274500D01*
X103365569Y-95274500D02*
X103365569Y-95207833D01*
X103365569Y-95207833D02*
X103332236Y-95141166D01*
X103332236Y-95141166D02*
X103298902Y-95107833D01*
X103298902Y-95107833D02*
X103232236Y-95074500D01*
X103232236Y-95074500D02*
X103098902Y-95041166D01*
X103098902Y-95041166D02*
X103032236Y-95007833D01*
X103032236Y-95007833D02*
X102998902Y-94974500D01*
X102998902Y-94974500D02*
X102965569Y-94907833D01*
X102965569Y-94907833D02*
X102965569Y-94841166D01*
X102965569Y-94841166D02*
X102998902Y-94774500D01*
X102998902Y-94774500D02*
X103032236Y-94741166D01*
X103032236Y-94741166D02*
X103098902Y-94707833D01*
X103098902Y-94707833D02*
X103265569Y-94707833D01*
X103265569Y-94707833D02*
X103365569Y-94741166D01*
X104065569Y-95341166D02*
X104032236Y-95374500D01*
X104032236Y-95374500D02*
X103932236Y-95407833D01*
X103932236Y-95407833D02*
X103865569Y-95407833D01*
X103865569Y-95407833D02*
X103765569Y-95374500D01*
X103765569Y-95374500D02*
X103698903Y-95307833D01*
X103698903Y-95307833D02*
X103665569Y-95241166D01*
X103665569Y-95241166D02*
X103632236Y-95107833D01*
X103632236Y-95107833D02*
X103632236Y-95007833D01*
X103632236Y-95007833D02*
X103665569Y-94874500D01*
X103665569Y-94874500D02*
X103698903Y-94807833D01*
X103698903Y-94807833D02*
X103765569Y-94741166D01*
X103765569Y-94741166D02*
X103865569Y-94707833D01*
X103865569Y-94707833D02*
X103932236Y-94707833D01*
X103932236Y-94707833D02*
X104032236Y-94741166D01*
X104032236Y-94741166D02*
X104065569Y-94774500D01*
X104698903Y-95407833D02*
X104365569Y-95407833D01*
X104365569Y-95407833D02*
X104365569Y-94707833D01*
X105182236Y-70957833D02*
X105615569Y-70957833D01*
X105615569Y-70957833D02*
X105382236Y-71224500D01*
X105382236Y-71224500D02*
X105482236Y-71224500D01*
X105482236Y-71224500D02*
X105548902Y-71257833D01*
X105548902Y-71257833D02*
X105582236Y-71291166D01*
X105582236Y-71291166D02*
X105615569Y-71357833D01*
X105615569Y-71357833D02*
X105615569Y-71524500D01*
X105615569Y-71524500D02*
X105582236Y-71591166D01*
X105582236Y-71591166D02*
X105548902Y-71624500D01*
X105548902Y-71624500D02*
X105482236Y-71657833D01*
X105482236Y-71657833D02*
X105282236Y-71657833D01*
X105282236Y-71657833D02*
X105215569Y-71624500D01*
X105215569Y-71624500D02*
X105182236Y-71591166D01*
X105848903Y-71191166D02*
X106015569Y-71657833D01*
X106015569Y-71657833D02*
X106182236Y-71191166D01*
X106382236Y-70957833D02*
X106815569Y-70957833D01*
X106815569Y-70957833D02*
X106582236Y-71224500D01*
X106582236Y-71224500D02*
X106682236Y-71224500D01*
X106682236Y-71224500D02*
X106748902Y-71257833D01*
X106748902Y-71257833D02*
X106782236Y-71291166D01*
X106782236Y-71291166D02*
X106815569Y-71357833D01*
X106815569Y-71357833D02*
X106815569Y-71524500D01*
X106815569Y-71524500D02*
X106782236Y-71591166D01*
X106782236Y-71591166D02*
X106748902Y-71624500D01*
X106748902Y-71624500D02*
X106682236Y-71657833D01*
X106682236Y-71657833D02*
X106482236Y-71657833D01*
X106482236Y-71657833D02*
X106415569Y-71624500D01*
X106415569Y-71624500D02*
X106382236Y-71591166D01*
D12*
X116411027Y-71659800D02*
X116482455Y-71683609D01*
X116482455Y-71683609D02*
X116601503Y-71683609D01*
X116601503Y-71683609D02*
X116649122Y-71659800D01*
X116649122Y-71659800D02*
X116672931Y-71635990D01*
X116672931Y-71635990D02*
X116696741Y-71588371D01*
X116696741Y-71588371D02*
X116696741Y-71540752D01*
X116696741Y-71540752D02*
X116672931Y-71493133D01*
X116672931Y-71493133D02*
X116649122Y-71469323D01*
X116649122Y-71469323D02*
X116601503Y-71445514D01*
X116601503Y-71445514D02*
X116506265Y-71421704D01*
X116506265Y-71421704D02*
X116458646Y-71397895D01*
X116458646Y-71397895D02*
X116434836Y-71374085D01*
X116434836Y-71374085D02*
X116411027Y-71326466D01*
X116411027Y-71326466D02*
X116411027Y-71278847D01*
X116411027Y-71278847D02*
X116434836Y-71231228D01*
X116434836Y-71231228D02*
X116458646Y-71207419D01*
X116458646Y-71207419D02*
X116506265Y-71183609D01*
X116506265Y-71183609D02*
X116625312Y-71183609D01*
X116625312Y-71183609D02*
X116696741Y-71207419D01*
X116863407Y-71183609D02*
X116982455Y-71683609D01*
X116982455Y-71683609D02*
X117077693Y-71326466D01*
X117077693Y-71326466D02*
X117172931Y-71683609D01*
X117172931Y-71683609D02*
X117291979Y-71183609D01*
X117482455Y-71683609D02*
X117482455Y-71183609D01*
X117482455Y-71183609D02*
X117601503Y-71183609D01*
X117601503Y-71183609D02*
X117672931Y-71207419D01*
X117672931Y-71207419D02*
X117720550Y-71255038D01*
X117720550Y-71255038D02*
X117744360Y-71302657D01*
X117744360Y-71302657D02*
X117768169Y-71397895D01*
X117768169Y-71397895D02*
X117768169Y-71469323D01*
X117768169Y-71469323D02*
X117744360Y-71564561D01*
X117744360Y-71564561D02*
X117720550Y-71612180D01*
X117720550Y-71612180D02*
X117672931Y-71659800D01*
X117672931Y-71659800D02*
X117601503Y-71683609D01*
X117601503Y-71683609D02*
X117482455Y-71683609D01*
X117982455Y-71683609D02*
X117982455Y-71183609D01*
X118315788Y-71183609D02*
X118411026Y-71183609D01*
X118411026Y-71183609D02*
X118458645Y-71207419D01*
X118458645Y-71207419D02*
X118506264Y-71255038D01*
X118506264Y-71255038D02*
X118530074Y-71350276D01*
X118530074Y-71350276D02*
X118530074Y-71516942D01*
X118530074Y-71516942D02*
X118506264Y-71612180D01*
X118506264Y-71612180D02*
X118458645Y-71659800D01*
X118458645Y-71659800D02*
X118411026Y-71683609D01*
X118411026Y-71683609D02*
X118315788Y-71683609D01*
X118315788Y-71683609D02*
X118268169Y-71659800D01*
X118268169Y-71659800D02*
X118220550Y-71612180D01*
X118220550Y-71612180D02*
X118196741Y-71516942D01*
X118196741Y-71516942D02*
X118196741Y-71350276D01*
X118196741Y-71350276D02*
X118220550Y-71255038D01*
X118220550Y-71255038D02*
X118268169Y-71207419D01*
X118268169Y-71207419D02*
X118315788Y-71183609D01*
D10*
X97865569Y-70991166D02*
X97798902Y-70957833D01*
X97798902Y-70957833D02*
X97698902Y-70957833D01*
X97698902Y-70957833D02*
X97598902Y-70991166D01*
X97598902Y-70991166D02*
X97532236Y-71057833D01*
X97532236Y-71057833D02*
X97498902Y-71124500D01*
X97498902Y-71124500D02*
X97465569Y-71257833D01*
X97465569Y-71257833D02*
X97465569Y-71357833D01*
X97465569Y-71357833D02*
X97498902Y-71491166D01*
X97498902Y-71491166D02*
X97532236Y-71557833D01*
X97532236Y-71557833D02*
X97598902Y-71624500D01*
X97598902Y-71624500D02*
X97698902Y-71657833D01*
X97698902Y-71657833D02*
X97765569Y-71657833D01*
X97765569Y-71657833D02*
X97865569Y-71624500D01*
X97865569Y-71624500D02*
X97898902Y-71591166D01*
X97898902Y-71591166D02*
X97898902Y-71357833D01*
X97898902Y-71357833D02*
X97765569Y-71357833D01*
X98198902Y-71657833D02*
X98198902Y-70957833D01*
X98198902Y-70957833D02*
X98598902Y-71657833D01*
X98598902Y-71657833D02*
X98598902Y-70957833D01*
X98932235Y-71657833D02*
X98932235Y-70957833D01*
X98932235Y-70957833D02*
X99098902Y-70957833D01*
X99098902Y-70957833D02*
X99198902Y-70991166D01*
X99198902Y-70991166D02*
X99265569Y-71057833D01*
X99265569Y-71057833D02*
X99298902Y-71124500D01*
X99298902Y-71124500D02*
X99332235Y-71257833D01*
X99332235Y-71257833D02*
X99332235Y-71357833D01*
X99332235Y-71357833D02*
X99298902Y-71491166D01*
X99298902Y-71491166D02*
X99265569Y-71557833D01*
X99265569Y-71557833D02*
X99198902Y-71624500D01*
X99198902Y-71624500D02*
X99098902Y-71657833D01*
X99098902Y-71657833D02*
X98932235Y-71657833D01*
X100898902Y-71657833D02*
X100665569Y-71324500D01*
X100498902Y-71657833D02*
X100498902Y-70957833D01*
X100498902Y-70957833D02*
X100765569Y-70957833D01*
X100765569Y-70957833D02*
X100832236Y-70991166D01*
X100832236Y-70991166D02*
X100865569Y-71024500D01*
X100865569Y-71024500D02*
X100898902Y-71091166D01*
X100898902Y-71091166D02*
X100898902Y-71191166D01*
X100898902Y-71191166D02*
X100865569Y-71257833D01*
X100865569Y-71257833D02*
X100832236Y-71291166D01*
X100832236Y-71291166D02*
X100765569Y-71324500D01*
X100765569Y-71324500D02*
X100498902Y-71324500D01*
X101132236Y-70957833D02*
X101598902Y-71657833D01*
X101598902Y-70957833D02*
X101132236Y-71657833D01*
D11*
X89184461Y-85687030D02*
X89243985Y-85508458D01*
X89243985Y-85508458D02*
X89303509Y-85448935D01*
X89303509Y-85448935D02*
X89422557Y-85389411D01*
X89422557Y-85389411D02*
X89601128Y-85389411D01*
X89601128Y-85389411D02*
X89720176Y-85448935D01*
X89720176Y-85448935D02*
X89779700Y-85508458D01*
X89779700Y-85508458D02*
X89839223Y-85627506D01*
X89839223Y-85627506D02*
X89839223Y-86103696D01*
X89839223Y-86103696D02*
X88589223Y-86103696D01*
X88589223Y-86103696D02*
X88589223Y-85687030D01*
X88589223Y-85687030D02*
X88648747Y-85567982D01*
X88648747Y-85567982D02*
X88708271Y-85508458D01*
X88708271Y-85508458D02*
X88827319Y-85448935D01*
X88827319Y-85448935D02*
X88946366Y-85448935D01*
X88946366Y-85448935D02*
X89065414Y-85508458D01*
X89065414Y-85508458D02*
X89124938Y-85567982D01*
X89124938Y-85567982D02*
X89184461Y-85687030D01*
X89184461Y-85687030D02*
X89184461Y-86103696D01*
X88589223Y-84615601D02*
X88589223Y-84377506D01*
X88589223Y-84377506D02*
X88648747Y-84258458D01*
X88648747Y-84258458D02*
X88767795Y-84139411D01*
X88767795Y-84139411D02*
X89005890Y-84079887D01*
X89005890Y-84079887D02*
X89422557Y-84079887D01*
X89422557Y-84079887D02*
X89660652Y-84139411D01*
X89660652Y-84139411D02*
X89779700Y-84258458D01*
X89779700Y-84258458D02*
X89839223Y-84377506D01*
X89839223Y-84377506D02*
X89839223Y-84615601D01*
X89839223Y-84615601D02*
X89779700Y-84734649D01*
X89779700Y-84734649D02*
X89660652Y-84853696D01*
X89660652Y-84853696D02*
X89422557Y-84913220D01*
X89422557Y-84913220D02*
X89005890Y-84913220D01*
X89005890Y-84913220D02*
X88767795Y-84853696D01*
X88767795Y-84853696D02*
X88648747Y-84734649D01*
X88648747Y-84734649D02*
X88589223Y-84615601D01*
X88589223Y-83306077D02*
X88589223Y-83067982D01*
X88589223Y-83067982D02*
X88648747Y-82948934D01*
X88648747Y-82948934D02*
X88767795Y-82829887D01*
X88767795Y-82829887D02*
X89005890Y-82770363D01*
X89005890Y-82770363D02*
X89422557Y-82770363D01*
X89422557Y-82770363D02*
X89660652Y-82829887D01*
X89660652Y-82829887D02*
X89779700Y-82948934D01*
X89779700Y-82948934D02*
X89839223Y-83067982D01*
X89839223Y-83067982D02*
X89839223Y-83306077D01*
X89839223Y-83306077D02*
X89779700Y-83425125D01*
X89779700Y-83425125D02*
X89660652Y-83544172D01*
X89660652Y-83544172D02*
X89422557Y-83603696D01*
X89422557Y-83603696D02*
X89005890Y-83603696D01*
X89005890Y-83603696D02*
X88767795Y-83544172D01*
X88767795Y-83544172D02*
X88648747Y-83425125D01*
X88648747Y-83425125D02*
X88589223Y-83306077D01*
X88589223Y-82413220D02*
X88589223Y-81698934D01*
X89839223Y-82056077D02*
X88589223Y-82056077D01*
D10*
X111691759Y-70991166D02*
X111615569Y-70957833D01*
X111615569Y-70957833D02*
X111501283Y-70957833D01*
X111501283Y-70957833D02*
X111386997Y-70991166D01*
X111386997Y-70991166D02*
X111310807Y-71057833D01*
X111310807Y-71057833D02*
X111272712Y-71124500D01*
X111272712Y-71124500D02*
X111234616Y-71257833D01*
X111234616Y-71257833D02*
X111234616Y-71357833D01*
X111234616Y-71357833D02*
X111272712Y-71491166D01*
X111272712Y-71491166D02*
X111310807Y-71557833D01*
X111310807Y-71557833D02*
X111386997Y-71624500D01*
X111386997Y-71624500D02*
X111501283Y-71657833D01*
X111501283Y-71657833D02*
X111577474Y-71657833D01*
X111577474Y-71657833D02*
X111691759Y-71624500D01*
X111691759Y-71624500D02*
X111729855Y-71591166D01*
X111729855Y-71591166D02*
X111729855Y-71357833D01*
X111729855Y-71357833D02*
X111577474Y-71357833D01*
X112072712Y-71657833D02*
X112072712Y-70957833D01*
X112072712Y-70957833D02*
X112529855Y-71657833D01*
X112529855Y-71657833D02*
X112529855Y-70957833D01*
X112910807Y-71657833D02*
X112910807Y-70957833D01*
X112910807Y-70957833D02*
X113101283Y-70957833D01*
X113101283Y-70957833D02*
X113215569Y-70991166D01*
X113215569Y-70991166D02*
X113291759Y-71057833D01*
X113291759Y-71057833D02*
X113329854Y-71124500D01*
X113329854Y-71124500D02*
X113367950Y-71257833D01*
X113367950Y-71257833D02*
X113367950Y-71357833D01*
X113367950Y-71357833D02*
X113329854Y-71491166D01*
X113329854Y-71491166D02*
X113291759Y-71557833D01*
X113291759Y-71557833D02*
X113215569Y-71624500D01*
X113215569Y-71624500D02*
X113101283Y-71657833D01*
X113101283Y-71657833D02*
X112910807Y-71657833D01*
D12*
X113661027Y-71659800D02*
X113732455Y-71683609D01*
X113732455Y-71683609D02*
X113851503Y-71683609D01*
X113851503Y-71683609D02*
X113899122Y-71659800D01*
X113899122Y-71659800D02*
X113922931Y-71635990D01*
X113922931Y-71635990D02*
X113946741Y-71588371D01*
X113946741Y-71588371D02*
X113946741Y-71540752D01*
X113946741Y-71540752D02*
X113922931Y-71493133D01*
X113922931Y-71493133D02*
X113899122Y-71469323D01*
X113899122Y-71469323D02*
X113851503Y-71445514D01*
X113851503Y-71445514D02*
X113756265Y-71421704D01*
X113756265Y-71421704D02*
X113708646Y-71397895D01*
X113708646Y-71397895D02*
X113684836Y-71374085D01*
X113684836Y-71374085D02*
X113661027Y-71326466D01*
X113661027Y-71326466D02*
X113661027Y-71278847D01*
X113661027Y-71278847D02*
X113684836Y-71231228D01*
X113684836Y-71231228D02*
X113708646Y-71207419D01*
X113708646Y-71207419D02*
X113756265Y-71183609D01*
X113756265Y-71183609D02*
X113875312Y-71183609D01*
X113875312Y-71183609D02*
X113946741Y-71207419D01*
X114113407Y-71183609D02*
X114232455Y-71683609D01*
X114232455Y-71683609D02*
X114327693Y-71326466D01*
X114327693Y-71326466D02*
X114422931Y-71683609D01*
X114422931Y-71683609D02*
X114541979Y-71183609D01*
X115018169Y-71635990D02*
X114994360Y-71659800D01*
X114994360Y-71659800D02*
X114922931Y-71683609D01*
X114922931Y-71683609D02*
X114875312Y-71683609D01*
X114875312Y-71683609D02*
X114803884Y-71659800D01*
X114803884Y-71659800D02*
X114756265Y-71612180D01*
X114756265Y-71612180D02*
X114732455Y-71564561D01*
X114732455Y-71564561D02*
X114708646Y-71469323D01*
X114708646Y-71469323D02*
X114708646Y-71397895D01*
X114708646Y-71397895D02*
X114732455Y-71302657D01*
X114732455Y-71302657D02*
X114756265Y-71255038D01*
X114756265Y-71255038D02*
X114803884Y-71207419D01*
X114803884Y-71207419D02*
X114875312Y-71183609D01*
X114875312Y-71183609D02*
X114922931Y-71183609D01*
X114922931Y-71183609D02*
X114994360Y-71207419D01*
X114994360Y-71207419D02*
X115018169Y-71231228D01*
X115470550Y-71683609D02*
X115232455Y-71683609D01*
X115232455Y-71683609D02*
X115232455Y-71183609D01*
X115637217Y-71683609D02*
X115637217Y-71183609D01*
X115922931Y-71683609D02*
X115708646Y-71397895D01*
X115922931Y-71183609D02*
X115637217Y-71469323D01*
D10*
X108365569Y-94741166D02*
X108298902Y-94707833D01*
X108298902Y-94707833D02*
X108198902Y-94707833D01*
X108198902Y-94707833D02*
X108098902Y-94741166D01*
X108098902Y-94741166D02*
X108032236Y-94807833D01*
X108032236Y-94807833D02*
X107998902Y-94874500D01*
X107998902Y-94874500D02*
X107965569Y-95007833D01*
X107965569Y-95007833D02*
X107965569Y-95107833D01*
X107965569Y-95107833D02*
X107998902Y-95241166D01*
X107998902Y-95241166D02*
X108032236Y-95307833D01*
X108032236Y-95307833D02*
X108098902Y-95374500D01*
X108098902Y-95374500D02*
X108198902Y-95407833D01*
X108198902Y-95407833D02*
X108265569Y-95407833D01*
X108265569Y-95407833D02*
X108365569Y-95374500D01*
X108365569Y-95374500D02*
X108398902Y-95341166D01*
X108398902Y-95341166D02*
X108398902Y-95107833D01*
X108398902Y-95107833D02*
X108265569Y-95107833D01*
X108698902Y-95407833D02*
X108698902Y-94707833D01*
X108698902Y-94707833D02*
X109098902Y-95407833D01*
X109098902Y-95407833D02*
X109098902Y-94707833D01*
X109432235Y-95407833D02*
X109432235Y-94707833D01*
X109432235Y-94707833D02*
X109598902Y-94707833D01*
X109598902Y-94707833D02*
X109698902Y-94741166D01*
X109698902Y-94741166D02*
X109765569Y-94807833D01*
X109765569Y-94807833D02*
X109798902Y-94874500D01*
X109798902Y-94874500D02*
X109832235Y-95007833D01*
X109832235Y-95007833D02*
X109832235Y-95107833D01*
X109832235Y-95107833D02*
X109798902Y-95241166D01*
X109798902Y-95241166D02*
X109765569Y-95307833D01*
X109765569Y-95307833D02*
X109698902Y-95374500D01*
X109698902Y-95374500D02*
X109598902Y-95407833D01*
X109598902Y-95407833D02*
X109432235Y-95407833D01*
D11*
X99896303Y-72339223D02*
X99896303Y-73351128D01*
X99896303Y-73351128D02*
X99955826Y-73470176D01*
X99955826Y-73470176D02*
X100015350Y-73529700D01*
X100015350Y-73529700D02*
X100134398Y-73589223D01*
X100134398Y-73589223D02*
X100372493Y-73589223D01*
X100372493Y-73589223D02*
X100491541Y-73529700D01*
X100491541Y-73529700D02*
X100551064Y-73470176D01*
X100551064Y-73470176D02*
X100610588Y-73351128D01*
X100610588Y-73351128D02*
X100610588Y-72339223D01*
X101146303Y-73232080D02*
X101741541Y-73232080D01*
X101027255Y-73589223D02*
X101443922Y-72339223D01*
X101443922Y-72339223D02*
X101860588Y-73589223D01*
X102991541Y-73589223D02*
X102574875Y-72993985D01*
X102277256Y-73589223D02*
X102277256Y-72339223D01*
X102277256Y-72339223D02*
X102753446Y-72339223D01*
X102753446Y-72339223D02*
X102872494Y-72398747D01*
X102872494Y-72398747D02*
X102932017Y-72458271D01*
X102932017Y-72458271D02*
X102991541Y-72577319D01*
X102991541Y-72577319D02*
X102991541Y-72755890D01*
X102991541Y-72755890D02*
X102932017Y-72874938D01*
X102932017Y-72874938D02*
X102872494Y-72934461D01*
X102872494Y-72934461D02*
X102753446Y-72993985D01*
X102753446Y-72993985D02*
X102277256Y-72993985D01*
X103348684Y-72339223D02*
X104062970Y-72339223D01*
X103705827Y-73589223D02*
X103705827Y-72339223D01*
X96396303Y-97589223D02*
X96396303Y-96339223D01*
X96932017Y-96458271D02*
X96991541Y-96398747D01*
X96991541Y-96398747D02*
X97110588Y-96339223D01*
X97110588Y-96339223D02*
X97408207Y-96339223D01*
X97408207Y-96339223D02*
X97527255Y-96398747D01*
X97527255Y-96398747D02*
X97586779Y-96458271D01*
X97586779Y-96458271D02*
X97646302Y-96577319D01*
X97646302Y-96577319D02*
X97646302Y-96696366D01*
X97646302Y-96696366D02*
X97586779Y-96874938D01*
X97586779Y-96874938D02*
X96872493Y-97589223D01*
X96872493Y-97589223D02*
X97646302Y-97589223D01*
X98896302Y-97470176D02*
X98836778Y-97529700D01*
X98836778Y-97529700D02*
X98658207Y-97589223D01*
X98658207Y-97589223D02*
X98539159Y-97589223D01*
X98539159Y-97589223D02*
X98360588Y-97529700D01*
X98360588Y-97529700D02*
X98241540Y-97410652D01*
X98241540Y-97410652D02*
X98182017Y-97291604D01*
X98182017Y-97291604D02*
X98122493Y-97053509D01*
X98122493Y-97053509D02*
X98122493Y-96874938D01*
X98122493Y-96874938D02*
X98182017Y-96636842D01*
X98182017Y-96636842D02*
X98241540Y-96517795D01*
X98241540Y-96517795D02*
X98360588Y-96398747D01*
X98360588Y-96398747D02*
X98539159Y-96339223D01*
X98539159Y-96339223D02*
X98658207Y-96339223D01*
X98658207Y-96339223D02*
X98836778Y-96398747D01*
X98836778Y-96398747D02*
X98896302Y-96458271D01*
D10*
X105465569Y-95374500D02*
X105565569Y-95407833D01*
X105565569Y-95407833D02*
X105732236Y-95407833D01*
X105732236Y-95407833D02*
X105798902Y-95374500D01*
X105798902Y-95374500D02*
X105832236Y-95341166D01*
X105832236Y-95341166D02*
X105865569Y-95274500D01*
X105865569Y-95274500D02*
X105865569Y-95207833D01*
X105865569Y-95207833D02*
X105832236Y-95141166D01*
X105832236Y-95141166D02*
X105798902Y-95107833D01*
X105798902Y-95107833D02*
X105732236Y-95074500D01*
X105732236Y-95074500D02*
X105598902Y-95041166D01*
X105598902Y-95041166D02*
X105532236Y-95007833D01*
X105532236Y-95007833D02*
X105498902Y-94974500D01*
X105498902Y-94974500D02*
X105465569Y-94907833D01*
X105465569Y-94907833D02*
X105465569Y-94841166D01*
X105465569Y-94841166D02*
X105498902Y-94774500D01*
X105498902Y-94774500D02*
X105532236Y-94741166D01*
X105532236Y-94741166D02*
X105598902Y-94707833D01*
X105598902Y-94707833D02*
X105765569Y-94707833D01*
X105765569Y-94707833D02*
X105865569Y-94741166D01*
X106165569Y-95407833D02*
X106165569Y-94707833D01*
X106165569Y-94707833D02*
X106332236Y-94707833D01*
X106332236Y-94707833D02*
X106432236Y-94741166D01*
X106432236Y-94741166D02*
X106498903Y-94807833D01*
X106498903Y-94807833D02*
X106532236Y-94874500D01*
X106532236Y-94874500D02*
X106565569Y-95007833D01*
X106565569Y-95007833D02*
X106565569Y-95107833D01*
X106565569Y-95107833D02*
X106532236Y-95241166D01*
X106532236Y-95241166D02*
X106498903Y-95307833D01*
X106498903Y-95307833D02*
X106432236Y-95374500D01*
X106432236Y-95374500D02*
X106332236Y-95407833D01*
X106332236Y-95407833D02*
X106165569Y-95407833D01*
X106832236Y-95207833D02*
X107165569Y-95207833D01*
X106765569Y-95407833D02*
X106998903Y-94707833D01*
X106998903Y-94707833D02*
X107232236Y-95407833D01*
D11*
X92217731Y-75857914D02*
X92217731Y-76619819D01*
X92408207Y-76429342D02*
X92217731Y-76619819D01*
X92217731Y-76619819D02*
X92027255Y-76429342D01*
X93598683Y-76619819D02*
X93027255Y-76619819D01*
X93312969Y-76619819D02*
X93312969Y-75619819D01*
X93312969Y-75619819D02*
X93217731Y-75762676D01*
X93217731Y-75762676D02*
X93122493Y-75857914D01*
X93122493Y-75857914D02*
X93027255Y-75905533D01*
X97583333Y-80359580D02*
X97535714Y-80407200D01*
X97535714Y-80407200D02*
X97392857Y-80454819D01*
X97392857Y-80454819D02*
X97297619Y-80454819D01*
X97297619Y-80454819D02*
X97154762Y-80407200D01*
X97154762Y-80407200D02*
X97059524Y-80311961D01*
X97059524Y-80311961D02*
X97011905Y-80216723D01*
X97011905Y-80216723D02*
X96964286Y-80026247D01*
X96964286Y-80026247D02*
X96964286Y-79883390D01*
X96964286Y-79883390D02*
X97011905Y-79692914D01*
X97011905Y-79692914D02*
X97059524Y-79597676D01*
X97059524Y-79597676D02*
X97154762Y-79502438D01*
X97154762Y-79502438D02*
X97297619Y-79454819D01*
X97297619Y-79454819D02*
X97392857Y-79454819D01*
X97392857Y-79454819D02*
X97535714Y-79502438D01*
X97535714Y-79502438D02*
X97583333Y-79550057D01*
X97964286Y-79550057D02*
X98011905Y-79502438D01*
X98011905Y-79502438D02*
X98107143Y-79454819D01*
X98107143Y-79454819D02*
X98345238Y-79454819D01*
X98345238Y-79454819D02*
X98440476Y-79502438D01*
X98440476Y-79502438D02*
X98488095Y-79550057D01*
X98488095Y-79550057D02*
X98535714Y-79645295D01*
X98535714Y-79645295D02*
X98535714Y-79740533D01*
X98535714Y-79740533D02*
X98488095Y-79883390D01*
X98488095Y-79883390D02*
X97916667Y-80454819D01*
X97916667Y-80454819D02*
X98535714Y-80454819D01*
X99833333Y-77609580D02*
X99785714Y-77657200D01*
X99785714Y-77657200D02*
X99642857Y-77704819D01*
X99642857Y-77704819D02*
X99547619Y-77704819D01*
X99547619Y-77704819D02*
X99404762Y-77657200D01*
X99404762Y-77657200D02*
X99309524Y-77561961D01*
X99309524Y-77561961D02*
X99261905Y-77466723D01*
X99261905Y-77466723D02*
X99214286Y-77276247D01*
X99214286Y-77276247D02*
X99214286Y-77133390D01*
X99214286Y-77133390D02*
X99261905Y-76942914D01*
X99261905Y-76942914D02*
X99309524Y-76847676D01*
X99309524Y-76847676D02*
X99404762Y-76752438D01*
X99404762Y-76752438D02*
X99547619Y-76704819D01*
X99547619Y-76704819D02*
X99642857Y-76704819D01*
X99642857Y-76704819D02*
X99785714Y-76752438D01*
X99785714Y-76752438D02*
X99833333Y-76800057D01*
X100785714Y-77704819D02*
X100214286Y-77704819D01*
X100500000Y-77704819D02*
X100500000Y-76704819D01*
X100500000Y-76704819D02*
X100404762Y-76847676D01*
X100404762Y-76847676D02*
X100309524Y-76942914D01*
X100309524Y-76942914D02*
X100214286Y-76990533D01*
X112333333Y-82859580D02*
X112285714Y-82907200D01*
X112285714Y-82907200D02*
X112142857Y-82954819D01*
X112142857Y-82954819D02*
X112047619Y-82954819D01*
X112047619Y-82954819D02*
X111904762Y-82907200D01*
X111904762Y-82907200D02*
X111809524Y-82811961D01*
X111809524Y-82811961D02*
X111761905Y-82716723D01*
X111761905Y-82716723D02*
X111714286Y-82526247D01*
X111714286Y-82526247D02*
X111714286Y-82383390D01*
X111714286Y-82383390D02*
X111761905Y-82192914D01*
X111761905Y-82192914D02*
X111809524Y-82097676D01*
X111809524Y-82097676D02*
X111904762Y-82002438D01*
X111904762Y-82002438D02*
X112047619Y-81954819D01*
X112047619Y-81954819D02*
X112142857Y-81954819D01*
X112142857Y-81954819D02*
X112285714Y-82002438D01*
X112285714Y-82002438D02*
X112333333Y-82050057D01*
X113190476Y-82288152D02*
X113190476Y-82954819D01*
X112952381Y-81907200D02*
X112714286Y-82621485D01*
X112714286Y-82621485D02*
X113333333Y-82621485D01*
X107803333Y-93954819D02*
X107470000Y-93478628D01*
X107231905Y-93954819D02*
X107231905Y-92954819D01*
X107231905Y-92954819D02*
X107612857Y-92954819D01*
X107612857Y-92954819D02*
X107708095Y-93002438D01*
X107708095Y-93002438D02*
X107755714Y-93050057D01*
X107755714Y-93050057D02*
X107803333Y-93145295D01*
X107803333Y-93145295D02*
X107803333Y-93288152D01*
X107803333Y-93288152D02*
X107755714Y-93383390D01*
X107755714Y-93383390D02*
X107708095Y-93431009D01*
X107708095Y-93431009D02*
X107612857Y-93478628D01*
X107612857Y-93478628D02*
X107231905Y-93478628D01*
X108708095Y-92954819D02*
X108231905Y-92954819D01*
X108231905Y-92954819D02*
X108184286Y-93431009D01*
X108184286Y-93431009D02*
X108231905Y-93383390D01*
X108231905Y-93383390D02*
X108327143Y-93335771D01*
X108327143Y-93335771D02*
X108565238Y-93335771D01*
X108565238Y-93335771D02*
X108660476Y-93383390D01*
X108660476Y-93383390D02*
X108708095Y-93431009D01*
X108708095Y-93431009D02*
X108755714Y-93526247D01*
X108755714Y-93526247D02*
X108755714Y-93764342D01*
X108755714Y-93764342D02*
X108708095Y-93859580D01*
X108708095Y-93859580D02*
X108660476Y-93907200D01*
X108660476Y-93907200D02*
X108565238Y-93954819D01*
X108565238Y-93954819D02*
X108327143Y-93954819D01*
X108327143Y-93954819D02*
X108231905Y-93907200D01*
X108231905Y-93907200D02*
X108184286Y-93859580D01*
X95808333Y-91959580D02*
X95760714Y-92007200D01*
X95760714Y-92007200D02*
X95617857Y-92054819D01*
X95617857Y-92054819D02*
X95522619Y-92054819D01*
X95522619Y-92054819D02*
X95379762Y-92007200D01*
X95379762Y-92007200D02*
X95284524Y-91911961D01*
X95284524Y-91911961D02*
X95236905Y-91816723D01*
X95236905Y-91816723D02*
X95189286Y-91626247D01*
X95189286Y-91626247D02*
X95189286Y-91483390D01*
X95189286Y-91483390D02*
X95236905Y-91292914D01*
X95236905Y-91292914D02*
X95284524Y-91197676D01*
X95284524Y-91197676D02*
X95379762Y-91102438D01*
X95379762Y-91102438D02*
X95522619Y-91054819D01*
X95522619Y-91054819D02*
X95617857Y-91054819D01*
X95617857Y-91054819D02*
X95760714Y-91102438D01*
X95760714Y-91102438D02*
X95808333Y-91150057D01*
X96379762Y-91483390D02*
X96284524Y-91435771D01*
X96284524Y-91435771D02*
X96236905Y-91388152D01*
X96236905Y-91388152D02*
X96189286Y-91292914D01*
X96189286Y-91292914D02*
X96189286Y-91245295D01*
X96189286Y-91245295D02*
X96236905Y-91150057D01*
X96236905Y-91150057D02*
X96284524Y-91102438D01*
X96284524Y-91102438D02*
X96379762Y-91054819D01*
X96379762Y-91054819D02*
X96570238Y-91054819D01*
X96570238Y-91054819D02*
X96665476Y-91102438D01*
X96665476Y-91102438D02*
X96713095Y-91150057D01*
X96713095Y-91150057D02*
X96760714Y-91245295D01*
X96760714Y-91245295D02*
X96760714Y-91292914D01*
X96760714Y-91292914D02*
X96713095Y-91388152D01*
X96713095Y-91388152D02*
X96665476Y-91435771D01*
X96665476Y-91435771D02*
X96570238Y-91483390D01*
X96570238Y-91483390D02*
X96379762Y-91483390D01*
X96379762Y-91483390D02*
X96284524Y-91531009D01*
X96284524Y-91531009D02*
X96236905Y-91578628D01*
X96236905Y-91578628D02*
X96189286Y-91673866D01*
X96189286Y-91673866D02*
X96189286Y-91864342D01*
X96189286Y-91864342D02*
X96236905Y-91959580D01*
X96236905Y-91959580D02*
X96284524Y-92007200D01*
X96284524Y-92007200D02*
X96379762Y-92054819D01*
X96379762Y-92054819D02*
X96570238Y-92054819D01*
X96570238Y-92054819D02*
X96665476Y-92007200D01*
X96665476Y-92007200D02*
X96713095Y-91959580D01*
X96713095Y-91959580D02*
X96760714Y-91864342D01*
X96760714Y-91864342D02*
X96760714Y-91673866D01*
X96760714Y-91673866D02*
X96713095Y-91578628D01*
X96713095Y-91578628D02*
X96665476Y-91531009D01*
X96665476Y-91531009D02*
X96570238Y-91483390D01*
X109583333Y-91359580D02*
X109535714Y-91407200D01*
X109535714Y-91407200D02*
X109392857Y-91454819D01*
X109392857Y-91454819D02*
X109297619Y-91454819D01*
X109297619Y-91454819D02*
X109154762Y-91407200D01*
X109154762Y-91407200D02*
X109059524Y-91311961D01*
X109059524Y-91311961D02*
X109011905Y-91216723D01*
X109011905Y-91216723D02*
X108964286Y-91026247D01*
X108964286Y-91026247D02*
X108964286Y-90883390D01*
X108964286Y-90883390D02*
X109011905Y-90692914D01*
X109011905Y-90692914D02*
X109059524Y-90597676D01*
X109059524Y-90597676D02*
X109154762Y-90502438D01*
X109154762Y-90502438D02*
X109297619Y-90454819D01*
X109297619Y-90454819D02*
X109392857Y-90454819D01*
X109392857Y-90454819D02*
X109535714Y-90502438D01*
X109535714Y-90502438D02*
X109583333Y-90550057D01*
X110488095Y-90454819D02*
X110011905Y-90454819D01*
X110011905Y-90454819D02*
X109964286Y-90931009D01*
X109964286Y-90931009D02*
X110011905Y-90883390D01*
X110011905Y-90883390D02*
X110107143Y-90835771D01*
X110107143Y-90835771D02*
X110345238Y-90835771D01*
X110345238Y-90835771D02*
X110440476Y-90883390D01*
X110440476Y-90883390D02*
X110488095Y-90931009D01*
X110488095Y-90931009D02*
X110535714Y-91026247D01*
X110535714Y-91026247D02*
X110535714Y-91264342D01*
X110535714Y-91264342D02*
X110488095Y-91359580D01*
X110488095Y-91359580D02*
X110440476Y-91407200D01*
X110440476Y-91407200D02*
X110345238Y-91454819D01*
X110345238Y-91454819D02*
X110107143Y-91454819D01*
X110107143Y-91454819D02*
X110011905Y-91407200D01*
X110011905Y-91407200D02*
X109964286Y-91359580D01*
X125511905Y-90204819D02*
X125511905Y-89204819D01*
X125511905Y-89204819D02*
X125750000Y-89204819D01*
X125750000Y-89204819D02*
X125892857Y-89252438D01*
X125892857Y-89252438D02*
X125988095Y-89347676D01*
X125988095Y-89347676D02*
X126035714Y-89442914D01*
X126035714Y-89442914D02*
X126083333Y-89633390D01*
X126083333Y-89633390D02*
X126083333Y-89776247D01*
X126083333Y-89776247D02*
X126035714Y-89966723D01*
X126035714Y-89966723D02*
X125988095Y-90061961D01*
X125988095Y-90061961D02*
X125892857Y-90157200D01*
X125892857Y-90157200D02*
X125750000Y-90204819D01*
X125750000Y-90204819D02*
X125511905Y-90204819D01*
X127035714Y-90204819D02*
X126464286Y-90204819D01*
X126750000Y-90204819D02*
X126750000Y-89204819D01*
X126750000Y-89204819D02*
X126654762Y-89347676D01*
X126654762Y-89347676D02*
X126559524Y-89442914D01*
X126559524Y-89442914D02*
X126464286Y-89490533D01*
X119107142Y-91159580D02*
X119059523Y-91207200D01*
X119059523Y-91207200D02*
X118916666Y-91254819D01*
X118916666Y-91254819D02*
X118821428Y-91254819D01*
X118821428Y-91254819D02*
X118678571Y-91207200D01*
X118678571Y-91207200D02*
X118583333Y-91111961D01*
X118583333Y-91111961D02*
X118535714Y-91016723D01*
X118535714Y-91016723D02*
X118488095Y-90826247D01*
X118488095Y-90826247D02*
X118488095Y-90683390D01*
X118488095Y-90683390D02*
X118535714Y-90492914D01*
X118535714Y-90492914D02*
X118583333Y-90397676D01*
X118583333Y-90397676D02*
X118678571Y-90302438D01*
X118678571Y-90302438D02*
X118821428Y-90254819D01*
X118821428Y-90254819D02*
X118916666Y-90254819D01*
X118916666Y-90254819D02*
X119059523Y-90302438D01*
X119059523Y-90302438D02*
X119107142Y-90350057D01*
X120059523Y-91254819D02*
X119488095Y-91254819D01*
X119773809Y-91254819D02*
X119773809Y-90254819D01*
X119773809Y-90254819D02*
X119678571Y-90397676D01*
X119678571Y-90397676D02*
X119583333Y-90492914D01*
X119583333Y-90492914D02*
X119488095Y-90540533D01*
X120392857Y-90254819D02*
X121011904Y-90254819D01*
X121011904Y-90254819D02*
X120678571Y-90635771D01*
X120678571Y-90635771D02*
X120821428Y-90635771D01*
X120821428Y-90635771D02*
X120916666Y-90683390D01*
X120916666Y-90683390D02*
X120964285Y-90731009D01*
X120964285Y-90731009D02*
X121011904Y-90826247D01*
X121011904Y-90826247D02*
X121011904Y-91064342D01*
X121011904Y-91064342D02*
X120964285Y-91159580D01*
X120964285Y-91159580D02*
X120916666Y-91207200D01*
X120916666Y-91207200D02*
X120821428Y-91254819D01*
X120821428Y-91254819D02*
X120535714Y-91254819D01*
X120535714Y-91254819D02*
X120440476Y-91207200D01*
X120440476Y-91207200D02*
X120392857Y-91159580D01*
X99833333Y-79359580D02*
X99785714Y-79407200D01*
X99785714Y-79407200D02*
X99642857Y-79454819D01*
X99642857Y-79454819D02*
X99547619Y-79454819D01*
X99547619Y-79454819D02*
X99404762Y-79407200D01*
X99404762Y-79407200D02*
X99309524Y-79311961D01*
X99309524Y-79311961D02*
X99261905Y-79216723D01*
X99261905Y-79216723D02*
X99214286Y-79026247D01*
X99214286Y-79026247D02*
X99214286Y-78883390D01*
X99214286Y-78883390D02*
X99261905Y-78692914D01*
X99261905Y-78692914D02*
X99309524Y-78597676D01*
X99309524Y-78597676D02*
X99404762Y-78502438D01*
X99404762Y-78502438D02*
X99547619Y-78454819D01*
X99547619Y-78454819D02*
X99642857Y-78454819D01*
X99642857Y-78454819D02*
X99785714Y-78502438D01*
X99785714Y-78502438D02*
X99833333Y-78550057D01*
X100166667Y-78454819D02*
X100785714Y-78454819D01*
X100785714Y-78454819D02*
X100452381Y-78835771D01*
X100452381Y-78835771D02*
X100595238Y-78835771D01*
X100595238Y-78835771D02*
X100690476Y-78883390D01*
X100690476Y-78883390D02*
X100738095Y-78931009D01*
X100738095Y-78931009D02*
X100785714Y-79026247D01*
X100785714Y-79026247D02*
X100785714Y-79264342D01*
X100785714Y-79264342D02*
X100738095Y-79359580D01*
X100738095Y-79359580D02*
X100690476Y-79407200D01*
X100690476Y-79407200D02*
X100595238Y-79454819D01*
X100595238Y-79454819D02*
X100309524Y-79454819D01*
X100309524Y-79454819D02*
X100214286Y-79407200D01*
X100214286Y-79407200D02*
X100166667Y-79359580D01*
X110857142Y-88409580D02*
X110809523Y-88457200D01*
X110809523Y-88457200D02*
X110666666Y-88504819D01*
X110666666Y-88504819D02*
X110571428Y-88504819D01*
X110571428Y-88504819D02*
X110428571Y-88457200D01*
X110428571Y-88457200D02*
X110333333Y-88361961D01*
X110333333Y-88361961D02*
X110285714Y-88266723D01*
X110285714Y-88266723D02*
X110238095Y-88076247D01*
X110238095Y-88076247D02*
X110238095Y-87933390D01*
X110238095Y-87933390D02*
X110285714Y-87742914D01*
X110285714Y-87742914D02*
X110333333Y-87647676D01*
X110333333Y-87647676D02*
X110428571Y-87552438D01*
X110428571Y-87552438D02*
X110571428Y-87504819D01*
X110571428Y-87504819D02*
X110666666Y-87504819D01*
X110666666Y-87504819D02*
X110809523Y-87552438D01*
X110809523Y-87552438D02*
X110857142Y-87600057D01*
X111809523Y-88504819D02*
X111238095Y-88504819D01*
X111523809Y-88504819D02*
X111523809Y-87504819D01*
X111523809Y-87504819D02*
X111428571Y-87647676D01*
X111428571Y-87647676D02*
X111333333Y-87742914D01*
X111333333Y-87742914D02*
X111238095Y-87790533D01*
X112190476Y-87600057D02*
X112238095Y-87552438D01*
X112238095Y-87552438D02*
X112333333Y-87504819D01*
X112333333Y-87504819D02*
X112571428Y-87504819D01*
X112571428Y-87504819D02*
X112666666Y-87552438D01*
X112666666Y-87552438D02*
X112714285Y-87600057D01*
X112714285Y-87600057D02*
X112761904Y-87695295D01*
X112761904Y-87695295D02*
X112761904Y-87790533D01*
X112761904Y-87790533D02*
X112714285Y-87933390D01*
X112714285Y-87933390D02*
X112142857Y-88504819D01*
X112142857Y-88504819D02*
X112761904Y-88504819D01*
X98583333Y-88109580D02*
X98535714Y-88157200D01*
X98535714Y-88157200D02*
X98392857Y-88204819D01*
X98392857Y-88204819D02*
X98297619Y-88204819D01*
X98297619Y-88204819D02*
X98154762Y-88157200D01*
X98154762Y-88157200D02*
X98059524Y-88061961D01*
X98059524Y-88061961D02*
X98011905Y-87966723D01*
X98011905Y-87966723D02*
X97964286Y-87776247D01*
X97964286Y-87776247D02*
X97964286Y-87633390D01*
X97964286Y-87633390D02*
X98011905Y-87442914D01*
X98011905Y-87442914D02*
X98059524Y-87347676D01*
X98059524Y-87347676D02*
X98154762Y-87252438D01*
X98154762Y-87252438D02*
X98297619Y-87204819D01*
X98297619Y-87204819D02*
X98392857Y-87204819D01*
X98392857Y-87204819D02*
X98535714Y-87252438D01*
X98535714Y-87252438D02*
X98583333Y-87300057D01*
X99440476Y-87204819D02*
X99250000Y-87204819D01*
X99250000Y-87204819D02*
X99154762Y-87252438D01*
X99154762Y-87252438D02*
X99107143Y-87300057D01*
X99107143Y-87300057D02*
X99011905Y-87442914D01*
X99011905Y-87442914D02*
X98964286Y-87633390D01*
X98964286Y-87633390D02*
X98964286Y-88014342D01*
X98964286Y-88014342D02*
X99011905Y-88109580D01*
X99011905Y-88109580D02*
X99059524Y-88157200D01*
X99059524Y-88157200D02*
X99154762Y-88204819D01*
X99154762Y-88204819D02*
X99345238Y-88204819D01*
X99345238Y-88204819D02*
X99440476Y-88157200D01*
X99440476Y-88157200D02*
X99488095Y-88109580D01*
X99488095Y-88109580D02*
X99535714Y-88014342D01*
X99535714Y-88014342D02*
X99535714Y-87776247D01*
X99535714Y-87776247D02*
X99488095Y-87681009D01*
X99488095Y-87681009D02*
X99440476Y-87633390D01*
X99440476Y-87633390D02*
X99345238Y-87585771D01*
X99345238Y-87585771D02*
X99154762Y-87585771D01*
X99154762Y-87585771D02*
X99059524Y-87633390D01*
X99059524Y-87633390D02*
X99011905Y-87681009D01*
X99011905Y-87681009D02*
X98964286Y-87776247D01*
X101553333Y-93954819D02*
X101220000Y-93478628D01*
X100981905Y-93954819D02*
X100981905Y-92954819D01*
X100981905Y-92954819D02*
X101362857Y-92954819D01*
X101362857Y-92954819D02*
X101458095Y-93002438D01*
X101458095Y-93002438D02*
X101505714Y-93050057D01*
X101505714Y-93050057D02*
X101553333Y-93145295D01*
X101553333Y-93145295D02*
X101553333Y-93288152D01*
X101553333Y-93288152D02*
X101505714Y-93383390D01*
X101505714Y-93383390D02*
X101458095Y-93431009D01*
X101458095Y-93431009D02*
X101362857Y-93478628D01*
X101362857Y-93478628D02*
X100981905Y-93478628D01*
X102410476Y-93288152D02*
X102410476Y-93954819D01*
X102172381Y-92907200D02*
X101934286Y-93621485D01*
X101934286Y-93621485D02*
X102553333Y-93621485D01*
X122333333Y-92454819D02*
X122000000Y-91978628D01*
X121761905Y-92454819D02*
X121761905Y-91454819D01*
X121761905Y-91454819D02*
X122142857Y-91454819D01*
X122142857Y-91454819D02*
X122238095Y-91502438D01*
X122238095Y-91502438D02*
X122285714Y-91550057D01*
X122285714Y-91550057D02*
X122333333Y-91645295D01*
X122333333Y-91645295D02*
X122333333Y-91788152D01*
X122333333Y-91788152D02*
X122285714Y-91883390D01*
X122285714Y-91883390D02*
X122238095Y-91931009D01*
X122238095Y-91931009D02*
X122142857Y-91978628D01*
X122142857Y-91978628D02*
X121761905Y-91978628D01*
X122666667Y-91454819D02*
X123285714Y-91454819D01*
X123285714Y-91454819D02*
X122952381Y-91835771D01*
X122952381Y-91835771D02*
X123095238Y-91835771D01*
X123095238Y-91835771D02*
X123190476Y-91883390D01*
X123190476Y-91883390D02*
X123238095Y-91931009D01*
X123238095Y-91931009D02*
X123285714Y-92026247D01*
X123285714Y-92026247D02*
X123285714Y-92264342D01*
X123285714Y-92264342D02*
X123238095Y-92359580D01*
X123238095Y-92359580D02*
X123190476Y-92407200D01*
X123190476Y-92407200D02*
X123095238Y-92454819D01*
X123095238Y-92454819D02*
X122809524Y-92454819D01*
X122809524Y-92454819D02*
X122714286Y-92407200D01*
X122714286Y-92407200D02*
X122666667Y-92359580D01*
X97916666Y-92931009D02*
X97583333Y-92931009D01*
X97583333Y-93454819D02*
X97583333Y-92454819D01*
X97583333Y-92454819D02*
X98059523Y-92454819D01*
X98773809Y-92931009D02*
X98916666Y-92978628D01*
X98916666Y-92978628D02*
X98964285Y-93026247D01*
X98964285Y-93026247D02*
X99011904Y-93121485D01*
X99011904Y-93121485D02*
X99011904Y-93264342D01*
X99011904Y-93264342D02*
X98964285Y-93359580D01*
X98964285Y-93359580D02*
X98916666Y-93407200D01*
X98916666Y-93407200D02*
X98821428Y-93454819D01*
X98821428Y-93454819D02*
X98440476Y-93454819D01*
X98440476Y-93454819D02*
X98440476Y-92454819D01*
X98440476Y-92454819D02*
X98773809Y-92454819D01*
X98773809Y-92454819D02*
X98869047Y-92502438D01*
X98869047Y-92502438D02*
X98916666Y-92550057D01*
X98916666Y-92550057D02*
X98964285Y-92645295D01*
X98964285Y-92645295D02*
X98964285Y-92740533D01*
X98964285Y-92740533D02*
X98916666Y-92835771D01*
X98916666Y-92835771D02*
X98869047Y-92883390D01*
X98869047Y-92883390D02*
X98773809Y-92931009D01*
X98773809Y-92931009D02*
X98440476Y-92931009D01*
X99964285Y-93454819D02*
X99392857Y-93454819D01*
X99678571Y-93454819D02*
X99678571Y-92454819D01*
X99678571Y-92454819D02*
X99583333Y-92597676D01*
X99583333Y-92597676D02*
X99488095Y-92692914D01*
X99488095Y-92692914D02*
X99392857Y-92740533D01*
X95833333Y-90359580D02*
X95785714Y-90407200D01*
X95785714Y-90407200D02*
X95642857Y-90454819D01*
X95642857Y-90454819D02*
X95547619Y-90454819D01*
X95547619Y-90454819D02*
X95404762Y-90407200D01*
X95404762Y-90407200D02*
X95309524Y-90311961D01*
X95309524Y-90311961D02*
X95261905Y-90216723D01*
X95261905Y-90216723D02*
X95214286Y-90026247D01*
X95214286Y-90026247D02*
X95214286Y-89883390D01*
X95214286Y-89883390D02*
X95261905Y-89692914D01*
X95261905Y-89692914D02*
X95309524Y-89597676D01*
X95309524Y-89597676D02*
X95404762Y-89502438D01*
X95404762Y-89502438D02*
X95547619Y-89454819D01*
X95547619Y-89454819D02*
X95642857Y-89454819D01*
X95642857Y-89454819D02*
X95785714Y-89502438D01*
X95785714Y-89502438D02*
X95833333Y-89550057D01*
X96166667Y-89454819D02*
X96833333Y-89454819D01*
X96833333Y-89454819D02*
X96404762Y-90454819D01*
X95583333Y-77204819D02*
X95250000Y-76728628D01*
X95011905Y-77204819D02*
X95011905Y-76204819D01*
X95011905Y-76204819D02*
X95392857Y-76204819D01*
X95392857Y-76204819D02*
X95488095Y-76252438D01*
X95488095Y-76252438D02*
X95535714Y-76300057D01*
X95535714Y-76300057D02*
X95583333Y-76395295D01*
X95583333Y-76395295D02*
X95583333Y-76538152D01*
X95583333Y-76538152D02*
X95535714Y-76633390D01*
X95535714Y-76633390D02*
X95488095Y-76681009D01*
X95488095Y-76681009D02*
X95392857Y-76728628D01*
X95392857Y-76728628D02*
X95011905Y-76728628D01*
X96535714Y-77204819D02*
X95964286Y-77204819D01*
X96250000Y-77204819D02*
X96250000Y-76204819D01*
X96250000Y-76204819D02*
X96154762Y-76347676D01*
X96154762Y-76347676D02*
X96059524Y-76442914D01*
X96059524Y-76442914D02*
X95964286Y-76490533D01*
X116488095Y-98204819D02*
X116488095Y-99014342D01*
X116488095Y-99014342D02*
X116535714Y-99109580D01*
X116535714Y-99109580D02*
X116583333Y-99157200D01*
X116583333Y-99157200D02*
X116678571Y-99204819D01*
X116678571Y-99204819D02*
X116869047Y-99204819D01*
X116869047Y-99204819D02*
X116964285Y-99157200D01*
X116964285Y-99157200D02*
X117011904Y-99109580D01*
X117011904Y-99109580D02*
X117059523Y-99014342D01*
X117059523Y-99014342D02*
X117059523Y-98204819D01*
X117488095Y-98300057D02*
X117535714Y-98252438D01*
X117535714Y-98252438D02*
X117630952Y-98204819D01*
X117630952Y-98204819D02*
X117869047Y-98204819D01*
X117869047Y-98204819D02*
X117964285Y-98252438D01*
X117964285Y-98252438D02*
X118011904Y-98300057D01*
X118011904Y-98300057D02*
X118059523Y-98395295D01*
X118059523Y-98395295D02*
X118059523Y-98490533D01*
X118059523Y-98490533D02*
X118011904Y-98633390D01*
X118011904Y-98633390D02*
X117440476Y-99204819D01*
X117440476Y-99204819D02*
X118059523Y-99204819D01*
X104083333Y-91359580D02*
X104035714Y-91407200D01*
X104035714Y-91407200D02*
X103892857Y-91454819D01*
X103892857Y-91454819D02*
X103797619Y-91454819D01*
X103797619Y-91454819D02*
X103654762Y-91407200D01*
X103654762Y-91407200D02*
X103559524Y-91311961D01*
X103559524Y-91311961D02*
X103511905Y-91216723D01*
X103511905Y-91216723D02*
X103464286Y-91026247D01*
X103464286Y-91026247D02*
X103464286Y-90883390D01*
X103464286Y-90883390D02*
X103511905Y-90692914D01*
X103511905Y-90692914D02*
X103559524Y-90597676D01*
X103559524Y-90597676D02*
X103654762Y-90502438D01*
X103654762Y-90502438D02*
X103797619Y-90454819D01*
X103797619Y-90454819D02*
X103892857Y-90454819D01*
X103892857Y-90454819D02*
X104035714Y-90502438D01*
X104035714Y-90502438D02*
X104083333Y-90550057D01*
X104559524Y-91454819D02*
X104750000Y-91454819D01*
X104750000Y-91454819D02*
X104845238Y-91407200D01*
X104845238Y-91407200D02*
X104892857Y-91359580D01*
X104892857Y-91359580D02*
X104988095Y-91216723D01*
X104988095Y-91216723D02*
X105035714Y-91026247D01*
X105035714Y-91026247D02*
X105035714Y-90645295D01*
X105035714Y-90645295D02*
X104988095Y-90550057D01*
X104988095Y-90550057D02*
X104940476Y-90502438D01*
X104940476Y-90502438D02*
X104845238Y-90454819D01*
X104845238Y-90454819D02*
X104654762Y-90454819D01*
X104654762Y-90454819D02*
X104559524Y-90502438D01*
X104559524Y-90502438D02*
X104511905Y-90550057D01*
X104511905Y-90550057D02*
X104464286Y-90645295D01*
X104464286Y-90645295D02*
X104464286Y-90883390D01*
X104464286Y-90883390D02*
X104511905Y-90978628D01*
X104511905Y-90978628D02*
X104559524Y-91026247D01*
X104559524Y-91026247D02*
X104654762Y-91073866D01*
X104654762Y-91073866D02*
X104845238Y-91073866D01*
X104845238Y-91073866D02*
X104940476Y-91026247D01*
X104940476Y-91026247D02*
X104988095Y-90978628D01*
X104988095Y-90978628D02*
X105035714Y-90883390D01*
X91773809Y-87228628D02*
X91773809Y-87704819D01*
X91440476Y-86704819D02*
X91773809Y-87228628D01*
X91773809Y-87228628D02*
X92107142Y-86704819D01*
X92964285Y-87704819D02*
X92392857Y-87704819D01*
X92678571Y-87704819D02*
X92678571Y-86704819D01*
X92678571Y-86704819D02*
X92583333Y-86847676D01*
X92583333Y-86847676D02*
X92488095Y-86942914D01*
X92488095Y-86942914D02*
X92392857Y-86990533D01*
X117083333Y-82604819D02*
X116750000Y-82128628D01*
X116511905Y-82604819D02*
X116511905Y-81604819D01*
X116511905Y-81604819D02*
X116892857Y-81604819D01*
X116892857Y-81604819D02*
X116988095Y-81652438D01*
X116988095Y-81652438D02*
X117035714Y-81700057D01*
X117035714Y-81700057D02*
X117083333Y-81795295D01*
X117083333Y-81795295D02*
X117083333Y-81938152D01*
X117083333Y-81938152D02*
X117035714Y-82033390D01*
X117035714Y-82033390D02*
X116988095Y-82081009D01*
X116988095Y-82081009D02*
X116892857Y-82128628D01*
X116892857Y-82128628D02*
X116511905Y-82128628D01*
X117464286Y-81700057D02*
X117511905Y-81652438D01*
X117511905Y-81652438D02*
X117607143Y-81604819D01*
X117607143Y-81604819D02*
X117845238Y-81604819D01*
X117845238Y-81604819D02*
X117940476Y-81652438D01*
X117940476Y-81652438D02*
X117988095Y-81700057D01*
X117988095Y-81700057D02*
X118035714Y-81795295D01*
X118035714Y-81795295D02*
X118035714Y-81890533D01*
X118035714Y-81890533D02*
X117988095Y-82033390D01*
X117988095Y-82033390D02*
X117416667Y-82604819D01*
X117416667Y-82604819D02*
X118035714Y-82604819D01*
X119416666Y-86704819D02*
X119416666Y-87419104D01*
X119416666Y-87419104D02*
X119369047Y-87561961D01*
X119369047Y-87561961D02*
X119273809Y-87657200D01*
X119273809Y-87657200D02*
X119130952Y-87704819D01*
X119130952Y-87704819D02*
X119035714Y-87704819D01*
X120416666Y-87704819D02*
X119845238Y-87704819D01*
X120130952Y-87704819D02*
X120130952Y-86704819D01*
X120130952Y-86704819D02*
X120035714Y-86847676D01*
X120035714Y-86847676D02*
X119940476Y-86942914D01*
X119940476Y-86942914D02*
X119845238Y-86990533D01*
X104238095Y-78604819D02*
X104238095Y-79414342D01*
X104238095Y-79414342D02*
X104285714Y-79509580D01*
X104285714Y-79509580D02*
X104333333Y-79557200D01*
X104333333Y-79557200D02*
X104428571Y-79604819D01*
X104428571Y-79604819D02*
X104619047Y-79604819D01*
X104619047Y-79604819D02*
X104714285Y-79557200D01*
X104714285Y-79557200D02*
X104761904Y-79509580D01*
X104761904Y-79509580D02*
X104809523Y-79414342D01*
X104809523Y-79414342D02*
X104809523Y-78604819D01*
X105809523Y-79604819D02*
X105238095Y-79604819D01*
X105523809Y-79604819D02*
X105523809Y-78604819D01*
X105523809Y-78604819D02*
X105428571Y-78747676D01*
X105428571Y-78747676D02*
X105333333Y-78842914D01*
X105333333Y-78842914D02*
X105238095Y-78890533D01*
X95857142Y-81629580D02*
X95809523Y-81677200D01*
X95809523Y-81677200D02*
X95666666Y-81724819D01*
X95666666Y-81724819D02*
X95571428Y-81724819D01*
X95571428Y-81724819D02*
X95428571Y-81677200D01*
X95428571Y-81677200D02*
X95333333Y-81581961D01*
X95333333Y-81581961D02*
X95285714Y-81486723D01*
X95285714Y-81486723D02*
X95238095Y-81296247D01*
X95238095Y-81296247D02*
X95238095Y-81153390D01*
X95238095Y-81153390D02*
X95285714Y-80962914D01*
X95285714Y-80962914D02*
X95333333Y-80867676D01*
X95333333Y-80867676D02*
X95428571Y-80772438D01*
X95428571Y-80772438D02*
X95571428Y-80724819D01*
X95571428Y-80724819D02*
X95666666Y-80724819D01*
X95666666Y-80724819D02*
X95809523Y-80772438D01*
X95809523Y-80772438D02*
X95857142Y-80820057D01*
X96809523Y-81724819D02*
X96238095Y-81724819D01*
X96523809Y-81724819D02*
X96523809Y-80724819D01*
X96523809Y-80724819D02*
X96428571Y-80867676D01*
X96428571Y-80867676D02*
X96333333Y-80962914D01*
X96333333Y-80962914D02*
X96238095Y-81010533D01*
X97428571Y-80724819D02*
X97523809Y-80724819D01*
X97523809Y-80724819D02*
X97619047Y-80772438D01*
X97619047Y-80772438D02*
X97666666Y-80820057D01*
X97666666Y-80820057D02*
X97714285Y-80915295D01*
X97714285Y-80915295D02*
X97761904Y-81105771D01*
X97761904Y-81105771D02*
X97761904Y-81343866D01*
X97761904Y-81343866D02*
X97714285Y-81534342D01*
X97714285Y-81534342D02*
X97666666Y-81629580D01*
X97666666Y-81629580D02*
X97619047Y-81677200D01*
X97619047Y-81677200D02*
X97523809Y-81724819D01*
X97523809Y-81724819D02*
X97428571Y-81724819D01*
X97428571Y-81724819D02*
X97333333Y-81677200D01*
X97333333Y-81677200D02*
X97285714Y-81629580D01*
X97285714Y-81629580D02*
X97238095Y-81534342D01*
X97238095Y-81534342D02*
X97190476Y-81343866D01*
X97190476Y-81343866D02*
X97190476Y-81105771D01*
X97190476Y-81105771D02*
X97238095Y-80915295D01*
X97238095Y-80915295D02*
X97285714Y-80820057D01*
X97285714Y-80820057D02*
X97333333Y-80772438D01*
X97333333Y-80772438D02*
X97428571Y-80724819D01*
X95357142Y-87649580D02*
X95309523Y-87697200D01*
X95309523Y-87697200D02*
X95166666Y-87744819D01*
X95166666Y-87744819D02*
X95071428Y-87744819D01*
X95071428Y-87744819D02*
X94928571Y-87697200D01*
X94928571Y-87697200D02*
X94833333Y-87601961D01*
X94833333Y-87601961D02*
X94785714Y-87506723D01*
X94785714Y-87506723D02*
X94738095Y-87316247D01*
X94738095Y-87316247D02*
X94738095Y-87173390D01*
X94738095Y-87173390D02*
X94785714Y-86982914D01*
X94785714Y-86982914D02*
X94833333Y-86887676D01*
X94833333Y-86887676D02*
X94928571Y-86792438D01*
X94928571Y-86792438D02*
X95071428Y-86744819D01*
X95071428Y-86744819D02*
X95166666Y-86744819D01*
X95166666Y-86744819D02*
X95309523Y-86792438D01*
X95309523Y-86792438D02*
X95357142Y-86840057D01*
X96309523Y-87744819D02*
X95738095Y-87744819D01*
X96023809Y-87744819D02*
X96023809Y-86744819D01*
X96023809Y-86744819D02*
X95928571Y-86887676D01*
X95928571Y-86887676D02*
X95833333Y-86982914D01*
X95833333Y-86982914D02*
X95738095Y-87030533D01*
X97261904Y-87744819D02*
X96690476Y-87744819D01*
X96976190Y-87744819D02*
X96976190Y-86744819D01*
X96976190Y-86744819D02*
X96880952Y-86887676D01*
X96880952Y-86887676D02*
X96785714Y-86982914D01*
X96785714Y-86982914D02*
X96690476Y-87030533D01*
%TO.C,G\u002A\u002A\u002A*%
G36*
X92941737Y-89800351D02*
G01*
X92941737Y-90182773D01*
X92693554Y-90182773D01*
X92576234Y-90184097D01*
X92489161Y-90188885D01*
X92427078Y-90198366D01*
X92384729Y-90213767D01*
X92356855Y-90236318D01*
X92338937Y-90265614D01*
X92334029Y-90291160D01*
X92329860Y-90345297D01*
X92326408Y-90429053D01*
X92323654Y-90543459D01*
X92321576Y-90689545D01*
X92320155Y-90868340D01*
X92319371Y-91080875D01*
X92319188Y-91269993D01*
X92319188Y-92231028D01*
X92371181Y-92283021D01*
X92423174Y-92335014D01*
X92682456Y-92335014D01*
X92941737Y-92335014D01*
X92941737Y-92717437D01*
X92941737Y-93099860D01*
X91705533Y-93099860D01*
X90469328Y-93099860D01*
X90469328Y-92717437D01*
X90469328Y-92335014D01*
X90728609Y-92335014D01*
X90987891Y-92335014D01*
X91039884Y-92283021D01*
X91091877Y-92231028D01*
X91091877Y-91258894D01*
X91091877Y-90286760D01*
X91039884Y-90234767D01*
X90987891Y-90182773D01*
X90728609Y-90182773D01*
X90469328Y-90182773D01*
X90469328Y-89800351D01*
X90469328Y-89417928D01*
X91705533Y-89417928D01*
X92941737Y-89417928D01*
X92941737Y-89800351D01*
G37*
D13*
%TO.C,C2*%
X98640000Y-81857836D02*
X98640000Y-81642164D01*
X99360000Y-81857836D02*
X99360000Y-81642164D01*
%TO.C,J3*%
X107330000Y-67670000D02*
X107330000Y-69000000D01*
X106000000Y-67670000D02*
X107330000Y-67670000D01*
X104730000Y-67670000D02*
X97050000Y-67670000D01*
X104730000Y-67670000D02*
X104730000Y-70330000D01*
X97050000Y-67670000D02*
X97050000Y-70330000D01*
X104730000Y-70330000D02*
X97050000Y-70330000D01*
%TO.C,C1*%
X102359420Y-76740000D02*
X102640580Y-76740000D01*
X102359420Y-77760000D02*
X102640580Y-77760000D01*
%TO.C,C4*%
X111360000Y-82392164D02*
X111360000Y-82607836D01*
X110640000Y-82392164D02*
X110640000Y-82607836D01*
%TO.C,R5*%
X106123641Y-93880000D02*
X105816359Y-93880000D01*
X106123641Y-93120000D02*
X105816359Y-93120000D01*
%TO.C,C8*%
X98107836Y-91860000D02*
X97892164Y-91860000D01*
X98107836Y-91140000D02*
X97892164Y-91140000D01*
%TO.C,C5*%
X107857836Y-91360000D02*
X107642164Y-91360000D01*
X107857836Y-90640000D02*
X107642164Y-90640000D01*
%TO.C,D1*%
X125235000Y-89265000D02*
X123765000Y-89265000D01*
X123765000Y-89265000D02*
X123765000Y-91550000D01*
X125235000Y-91550000D02*
X125235000Y-89265000D01*
%TO.C,SW1*%
X90570000Y-73550000D02*
X89780000Y-73550000D01*
X88770000Y-74150000D02*
X88770000Y-79850000D01*
X91620000Y-75400000D02*
X91620000Y-77100000D01*
X91620000Y-78400000D02*
X91620000Y-78600000D01*
X89780000Y-80450000D02*
X90570000Y-80450000D01*
%TO.C,C13*%
X118765000Y-93561252D02*
X118765000Y-93038748D01*
X120235000Y-93561252D02*
X120235000Y-93038748D01*
%TO.C,C3*%
X102392164Y-78640000D02*
X102607836Y-78640000D01*
X102392164Y-79360000D02*
X102607836Y-79360000D01*
%TO.C,C12*%
X114488748Y-87315000D02*
X115011252Y-87315000D01*
X114488748Y-88785000D02*
X115011252Y-88785000D01*
%TO.C,C6*%
X98640000Y-86107836D02*
X98640000Y-85892164D01*
X99360000Y-86107836D02*
X99360000Y-85892164D01*
%TO.C,R4*%
X103566359Y-93120000D02*
X103873641Y-93120000D01*
X103566359Y-93880000D02*
X103873641Y-93880000D01*
%TO.C,R3*%
X123380000Y-90096359D02*
X123380000Y-90403641D01*
X122620000Y-90096359D02*
X122620000Y-90403641D01*
%TO.C,FB1*%
X100260000Y-90587221D02*
X100260000Y-90912779D01*
X99240000Y-90587221D02*
X99240000Y-90912779D01*
%TO.C,J2*%
X121130000Y-67670000D02*
X121130000Y-69000000D01*
X119800000Y-67670000D02*
X121130000Y-67670000D01*
X118530000Y-67670000D02*
X110850000Y-67670000D01*
X118530000Y-67670000D02*
X118530000Y-70330000D01*
X110850000Y-67670000D02*
X110850000Y-70330000D01*
X118530000Y-70330000D02*
X110850000Y-70330000D01*
%TO.C,C7*%
X98107836Y-90360000D02*
X97892164Y-90360000D01*
X98107836Y-89640000D02*
X97892164Y-89640000D01*
%TO.C,R1*%
X94571359Y-77620000D02*
X94878641Y-77620000D01*
X94571359Y-78380000D02*
X94878641Y-78380000D01*
%TO.C,U2*%
X118160000Y-89450000D02*
X118160000Y-95460000D01*
X111340000Y-91700000D02*
X111340000Y-95460000D01*
X118160000Y-95460000D02*
X116900000Y-95460000D01*
X111340000Y-95460000D02*
X112600000Y-95460000D01*
%TO.C,C9*%
X102142164Y-90640000D02*
X102357836Y-90640000D01*
X102142164Y-91360000D02*
X102357836Y-91360000D01*
%TO.C,Y1*%
X95650000Y-82270000D02*
X92350000Y-82270000D01*
X92350000Y-82270000D02*
X92350000Y-86270000D01*
%TO.C,R2*%
X116130000Y-82246359D02*
X116130000Y-82553641D01*
X115370000Y-82246359D02*
X115370000Y-82553641D01*
D11*
%TO.C,J1*%
X123345000Y-87150000D02*
X124745000Y-87150000D01*
X127145000Y-87150000D02*
X127295000Y-87150000D01*
X127295000Y-87150000D02*
X127295000Y-86850000D01*
X127295000Y-86850000D02*
X127745000Y-86850000D01*
X121170000Y-84800000D02*
X121595000Y-84800000D01*
X121595000Y-84800000D02*
X121595000Y-85800000D01*
X121170000Y-84075000D02*
X121170000Y-84800000D01*
X121595000Y-81200000D02*
X121595000Y-80200000D01*
X127295000Y-79150000D02*
X127295000Y-78850000D01*
X127745000Y-79150000D02*
X127295000Y-79150000D01*
X124745000Y-78850000D02*
X123345000Y-78850000D01*
X127295000Y-78850000D02*
X127145000Y-78850000D01*
D13*
%TO.C,U1*%
X101390000Y-81390000D02*
X101390000Y-81840000D01*
X101390000Y-81840000D02*
X100100000Y-81840000D01*
X101390000Y-88610000D02*
X101390000Y-88160000D01*
X101840000Y-81390000D02*
X101390000Y-81390000D01*
X101840000Y-88610000D02*
X101390000Y-88610000D01*
X108160000Y-81390000D02*
X108610000Y-81390000D01*
X108160000Y-88610000D02*
X108610000Y-88610000D01*
X108610000Y-81390000D02*
X108610000Y-81840000D01*
X108610000Y-88610000D02*
X108610000Y-88160000D01*
%TO.C,C10*%
X96390000Y-83127836D02*
X96390000Y-82912164D01*
X97110000Y-83127836D02*
X97110000Y-82912164D01*
%TO.C,C11*%
X96390000Y-85377836D02*
X96390000Y-85162164D01*
X97110000Y-85377836D02*
X97110000Y-85162164D01*
%TO.C,J4*%
X99870000Y-98330000D02*
X99870000Y-97000000D01*
X101200000Y-98330000D02*
X99870000Y-98330000D01*
X102470000Y-98330000D02*
X110150000Y-98330000D01*
X102470000Y-98330000D02*
X102470000Y-95670000D01*
X110150000Y-98330000D02*
X110150000Y-95670000D01*
X102470000Y-95670000D02*
X110150000Y-95670000D01*
%TD*%
M02*
