%TF.GenerationSoftware,KiCad,Pcbnew,7.0.9*%
%TF.CreationDate,2024-01-02T16:37:46-08:00*%
%TF.ProjectId,STM32F103C8T6,53544d33-3246-4313-9033-433854362e6b,rev?*%
%TF.SameCoordinates,Original*%
%TF.FileFunction,Copper,L2,Bot*%
%TF.FilePolarity,Positive*%
%FSLAX46Y46*%
G04 Gerber Fmt 4.6, Leading zero omitted, Abs format (unit mm)*
G04 Created by KiCad (PCBNEW 7.0.9) date 2024-01-02 16:37:46*
%MOMM*%
%LPD*%
G01*
G04 APERTURE LIST*
%TA.AperFunction,ComponentPad*%
%ADD10R,1.700000X1.700000*%
%TD*%
%TA.AperFunction,ComponentPad*%
%ADD11O,1.700000X1.700000*%
%TD*%
%TA.AperFunction,ComponentPad*%
%ADD12O,1.800000X1.150000*%
%TD*%
%TA.AperFunction,ComponentPad*%
%ADD13O,2.000000X1.450000*%
%TD*%
%TA.AperFunction,ViaPad*%
%ADD14C,0.700000*%
%TD*%
%TA.AperFunction,Conductor*%
%ADD15C,0.500000*%
%TD*%
G04 APERTURE END LIST*
D10*
%TO.P,J3,1,Pin_1*%
%TO.N,+3.3V*%
X106000000Y-69000000D03*
D11*
%TO.P,J3,2,Pin_2*%
%TO.N,/USART1_TX*%
X103460000Y-69000000D03*
%TO.P,J3,3,Pin_3*%
%TO.N,/USART1_RX*%
X100920000Y-69000000D03*
%TO.P,J3,4,Pin_4*%
%TO.N,GND*%
X98380000Y-69000000D03*
%TD*%
D10*
%TO.P,J2,1,Pin_1*%
%TO.N,+3.3V*%
X119800000Y-69000000D03*
D11*
%TO.P,J2,2,Pin_2*%
%TO.N,/SWDIO*%
X117260000Y-69000000D03*
%TO.P,J2,3,Pin_3*%
%TO.N,/SWCLK*%
X114720000Y-69000000D03*
%TO.P,J2,4,Pin_4*%
%TO.N,GND*%
X112180000Y-69000000D03*
%TD*%
D12*
%TO.P,J1,6,Shield*%
%TO.N,unconnected-(J1-Shield-Pad6)*%
X125945000Y-86875000D03*
D13*
X122145000Y-86725000D03*
X122145000Y-79275000D03*
D12*
X125945000Y-79125000D03*
%TD*%
D10*
%TO.P,J4,1,Pin_1*%
%TO.N,+3.3V*%
X101200000Y-97000000D03*
D11*
%TO.P,J4,2,Pin_2*%
%TO.N,/I2C2_SCL*%
X103740000Y-97000000D03*
%TO.P,J4,3,Pin_3*%
%TO.N,/I2C2_SDA*%
X106280000Y-97000000D03*
%TO.P,J4,4,Pin_4*%
%TO.N,GND*%
X108820000Y-97000000D03*
%TD*%
D14*
%TO.N,+3.3V*%
X105750000Y-92250000D03*
X102500000Y-94500000D03*
X104200000Y-94200000D03*
X107250000Y-92250000D03*
%TO.N,GND*%
X97500000Y-92500000D03*
X93500000Y-87000000D03*
X97500000Y-89000000D03*
X102350000Y-86025000D03*
X117250000Y-88500000D03*
X93650000Y-74750000D03*
X112000000Y-83125500D03*
X102775000Y-82450000D03*
X121875000Y-90775000D03*
X116500000Y-92000000D03*
X117250000Y-87500000D03*
X121000000Y-92250000D03*
X94750000Y-81750000D03*
X97600000Y-82500000D03*
X120225000Y-81700000D03*
X107250000Y-87850000D03*
X102725000Y-91950000D03*
X97800000Y-84400000D03*
X99000000Y-80400000D03*
X117500000Y-92000000D03*
X110000000Y-96000000D03*
%TD*%
D15*
%TO.N,+3.3V*%
X103800000Y-94200000D02*
X102800000Y-94200000D01*
X102800000Y-94200000D02*
X102500000Y-94500000D01*
X104200000Y-94200000D02*
X103800000Y-94200000D01*
X107250000Y-92250000D02*
X105750000Y-92250000D01*
%TD*%
%TA.AperFunction,Conductor*%
%TO.N,GND*%
G36*
X125001619Y-66500584D02*
G01*
X125133628Y-66507503D01*
X125317027Y-66517803D01*
X125323212Y-66518465D01*
X125475647Y-66542608D01*
X125638194Y-66570226D01*
X125643811Y-66571453D01*
X125796693Y-66612418D01*
X125889122Y-66639046D01*
X125951724Y-66657082D01*
X125956759Y-66658769D01*
X126106183Y-66716127D01*
X126254007Y-66777358D01*
X126258412Y-66779388D01*
X126324180Y-66812899D01*
X126401921Y-66852511D01*
X126477428Y-66894241D01*
X126541480Y-66929641D01*
X126545215Y-66931882D01*
X126619487Y-66980115D01*
X126680872Y-67019980D01*
X126768357Y-67082053D01*
X126810764Y-67112142D01*
X126813886Y-67114510D01*
X126938748Y-67215621D01*
X126941034Y-67217567D01*
X127058721Y-67322738D01*
X127061248Y-67325128D01*
X127174870Y-67438750D01*
X127177260Y-67441277D01*
X127282431Y-67558964D01*
X127284385Y-67561260D01*
X127385480Y-67686102D01*
X127387862Y-67689243D01*
X127480019Y-67819127D01*
X127531107Y-67897793D01*
X127568106Y-67954767D01*
X127570364Y-67958531D01*
X127647488Y-68098078D01*
X127720604Y-68241575D01*
X127722643Y-68245997D01*
X127783877Y-68393829D01*
X127841221Y-68543217D01*
X127842916Y-68548273D01*
X127887579Y-68703297D01*
X127928541Y-68856171D01*
X127929778Y-68861835D01*
X127957394Y-69024369D01*
X127981530Y-69176758D01*
X127982196Y-69182985D01*
X127992509Y-69366617D01*
X127999415Y-69498377D01*
X127999500Y-69501623D01*
X127999500Y-96498376D01*
X127999415Y-96501622D01*
X127992509Y-96633382D01*
X127982196Y-96817013D01*
X127981530Y-96823240D01*
X127957394Y-96975630D01*
X127929778Y-97138163D01*
X127928541Y-97143827D01*
X127887579Y-97296702D01*
X127842916Y-97451725D01*
X127841221Y-97456781D01*
X127783877Y-97606170D01*
X127722643Y-97754001D01*
X127720604Y-97758423D01*
X127647488Y-97901921D01*
X127570364Y-98041467D01*
X127568097Y-98045246D01*
X127480019Y-98180872D01*
X127387862Y-98310755D01*
X127385480Y-98313896D01*
X127284385Y-98438738D01*
X127282431Y-98441034D01*
X127177260Y-98558721D01*
X127174870Y-98561248D01*
X127061248Y-98674870D01*
X127058721Y-98677260D01*
X126941034Y-98782431D01*
X126938738Y-98784385D01*
X126813896Y-98885480D01*
X126810755Y-98887862D01*
X126680872Y-98980019D01*
X126545246Y-99068097D01*
X126541467Y-99070364D01*
X126401921Y-99147488D01*
X126258423Y-99220604D01*
X126254001Y-99222643D01*
X126106170Y-99283877D01*
X125956781Y-99341221D01*
X125951725Y-99342916D01*
X125796702Y-99387579D01*
X125643827Y-99428541D01*
X125638163Y-99429778D01*
X125475630Y-99457394D01*
X125323240Y-99481530D01*
X125317013Y-99482196D01*
X125133382Y-99492509D01*
X125001622Y-99499415D01*
X124998376Y-99499500D01*
X91001624Y-99499500D01*
X90998378Y-99499415D01*
X90866617Y-99492509D01*
X90682985Y-99482196D01*
X90676758Y-99481530D01*
X90524369Y-99457394D01*
X90361835Y-99429778D01*
X90356171Y-99428541D01*
X90203297Y-99387579D01*
X90048273Y-99342916D01*
X90043217Y-99341221D01*
X89893829Y-99283877D01*
X89745997Y-99222643D01*
X89741575Y-99220604D01*
X89598078Y-99147488D01*
X89458531Y-99070364D01*
X89454767Y-99068106D01*
X89401875Y-99033758D01*
X89319127Y-98980019D01*
X89189243Y-98887862D01*
X89186102Y-98885480D01*
X89061260Y-98784385D01*
X89058964Y-98782431D01*
X88941277Y-98677260D01*
X88938750Y-98674870D01*
X88825128Y-98561248D01*
X88822738Y-98558721D01*
X88717567Y-98441034D01*
X88715613Y-98438738D01*
X88676848Y-98390867D01*
X88614510Y-98313886D01*
X88612136Y-98310755D01*
X88519980Y-98180872D01*
X88474812Y-98111321D01*
X88431882Y-98045215D01*
X88429641Y-98041480D01*
X88394241Y-97977428D01*
X88352511Y-97901921D01*
X88348911Y-97894856D01*
X100049500Y-97894856D01*
X100049502Y-97894882D01*
X100052413Y-97919987D01*
X100052415Y-97919991D01*
X100097793Y-98022764D01*
X100097794Y-98022765D01*
X100177235Y-98102206D01*
X100280009Y-98147585D01*
X100305135Y-98150500D01*
X102094864Y-98150499D01*
X102094879Y-98150497D01*
X102094882Y-98150497D01*
X102119987Y-98147586D01*
X102119988Y-98147585D01*
X102119991Y-98147585D01*
X102222765Y-98102206D01*
X102302206Y-98022765D01*
X102347585Y-97919991D01*
X102350500Y-97894865D01*
X102350499Y-97156046D01*
X102370183Y-97089009D01*
X102422987Y-97043254D01*
X102492146Y-97033310D01*
X102555702Y-97062335D01*
X102593476Y-97121113D01*
X102597970Y-97144606D01*
X102604244Y-97212310D01*
X102662596Y-97417392D01*
X102662596Y-97417394D01*
X102757632Y-97608253D01*
X102882728Y-97773905D01*
X102886128Y-97778407D01*
X103043698Y-97922052D01*
X103224981Y-98034298D01*
X103423802Y-98111321D01*
X103633390Y-98150500D01*
X103633392Y-98150500D01*
X103846608Y-98150500D01*
X103846610Y-98150500D01*
X104056198Y-98111321D01*
X104255019Y-98034298D01*
X104436302Y-97922052D01*
X104593872Y-97778407D01*
X104722366Y-97608255D01*
X104757102Y-97538495D01*
X104817403Y-97417394D01*
X104817403Y-97417393D01*
X104817405Y-97417389D01*
X104875756Y-97212310D01*
X104886529Y-97096047D01*
X104912315Y-97031111D01*
X104954622Y-97000804D01*
X105063130Y-97000804D01*
X105099503Y-97021668D01*
X105131693Y-97083681D01*
X105133471Y-97096048D01*
X105144244Y-97212310D01*
X105202596Y-97417392D01*
X105202596Y-97417394D01*
X105297632Y-97608253D01*
X105422728Y-97773905D01*
X105426128Y-97778407D01*
X105583698Y-97922052D01*
X105764981Y-98034298D01*
X105963802Y-98111321D01*
X106173390Y-98150500D01*
X106173392Y-98150500D01*
X106386608Y-98150500D01*
X106386610Y-98150500D01*
X106596198Y-98111321D01*
X106795019Y-98034298D01*
X106976302Y-97922052D01*
X107133872Y-97778407D01*
X107262366Y-97608255D01*
X107329325Y-97473781D01*
X107376825Y-97422548D01*
X107444488Y-97405126D01*
X107510828Y-97427051D01*
X107552705Y-97476651D01*
X107646399Y-97677578D01*
X107781894Y-97871082D01*
X107948917Y-98038105D01*
X108142421Y-98173600D01*
X108356507Y-98273429D01*
X108356516Y-98273433D01*
X108570000Y-98330634D01*
X108570000Y-97435501D01*
X108677685Y-97484680D01*
X108784237Y-97500000D01*
X108855763Y-97500000D01*
X108962315Y-97484680D01*
X109070000Y-97435501D01*
X109070000Y-98330633D01*
X109283483Y-98273433D01*
X109283492Y-98273429D01*
X109497578Y-98173600D01*
X109691082Y-98038105D01*
X109858105Y-97871082D01*
X109993600Y-97677578D01*
X110093429Y-97463492D01*
X110093432Y-97463486D01*
X110150636Y-97250000D01*
X109253686Y-97250000D01*
X109279493Y-97209844D01*
X109320000Y-97071889D01*
X109320000Y-96928111D01*
X109279493Y-96790156D01*
X109253686Y-96750000D01*
X110150636Y-96750000D01*
X110150635Y-96749999D01*
X110093432Y-96536513D01*
X110093429Y-96536507D01*
X110076406Y-96500000D01*
X123644341Y-96500000D01*
X123664936Y-96735403D01*
X123664938Y-96735413D01*
X123726094Y-96963655D01*
X123726096Y-96963659D01*
X123726097Y-96963663D01*
X123757549Y-97031111D01*
X123825964Y-97177828D01*
X123825965Y-97177830D01*
X123961505Y-97371402D01*
X124128597Y-97538494D01*
X124322169Y-97674034D01*
X124322171Y-97674035D01*
X124536337Y-97773903D01*
X124536343Y-97773904D01*
X124536344Y-97773905D01*
X124553146Y-97778407D01*
X124764592Y-97835063D01*
X124941034Y-97850500D01*
X125058966Y-97850500D01*
X125235408Y-97835063D01*
X125463663Y-97773903D01*
X125677829Y-97674035D01*
X125871401Y-97538495D01*
X126038495Y-97371401D01*
X126174035Y-97177830D01*
X126273903Y-96963663D01*
X126335063Y-96735408D01*
X126355659Y-96500000D01*
X126335063Y-96264592D01*
X126285604Y-96080006D01*
X126273905Y-96036344D01*
X126273904Y-96036343D01*
X126273903Y-96036337D01*
X126174035Y-95822171D01*
X126174034Y-95822169D01*
X126038494Y-95628597D01*
X125871402Y-95461505D01*
X125677830Y-95325965D01*
X125677828Y-95325964D01*
X125570746Y-95276031D01*
X125463663Y-95226097D01*
X125463659Y-95226096D01*
X125463655Y-95226094D01*
X125235413Y-95164938D01*
X125235403Y-95164936D01*
X125058966Y-95149500D01*
X124941034Y-95149500D01*
X124764596Y-95164936D01*
X124764586Y-95164938D01*
X124536344Y-95226094D01*
X124536335Y-95226098D01*
X124322171Y-95325964D01*
X124322169Y-95325965D01*
X124128597Y-95461505D01*
X123961506Y-95628597D01*
X123961501Y-95628604D01*
X123825967Y-95822165D01*
X123825965Y-95822169D01*
X123726098Y-96036335D01*
X123726094Y-96036344D01*
X123664938Y-96264586D01*
X123664936Y-96264596D01*
X123644341Y-96499999D01*
X123644341Y-96500000D01*
X110076406Y-96500000D01*
X109993600Y-96322422D01*
X109993599Y-96322420D01*
X109858113Y-96128926D01*
X109858108Y-96128920D01*
X109691082Y-95961894D01*
X109497578Y-95826399D01*
X109283492Y-95726570D01*
X109283486Y-95726567D01*
X109070000Y-95669364D01*
X109070000Y-96564498D01*
X108962315Y-96515320D01*
X108855763Y-96500000D01*
X108784237Y-96500000D01*
X108677685Y-96515320D01*
X108570000Y-96564498D01*
X108570000Y-95669364D01*
X108569999Y-95669364D01*
X108356513Y-95726567D01*
X108356507Y-95726570D01*
X108142422Y-95826399D01*
X108142420Y-95826400D01*
X107948926Y-95961886D01*
X107948920Y-95961891D01*
X107781891Y-96128920D01*
X107781886Y-96128926D01*
X107646400Y-96322420D01*
X107646399Y-96322422D01*
X107552705Y-96523348D01*
X107506532Y-96575787D01*
X107439339Y-96594939D01*
X107372457Y-96574723D01*
X107329324Y-96526216D01*
X107262366Y-96391745D01*
X107133872Y-96221593D01*
X106976302Y-96077948D01*
X106795019Y-95965702D01*
X106795017Y-95965701D01*
X106695608Y-95927190D01*
X106596198Y-95888679D01*
X106386610Y-95849500D01*
X106173390Y-95849500D01*
X105963802Y-95888679D01*
X105963799Y-95888679D01*
X105963799Y-95888680D01*
X105764982Y-95965701D01*
X105764980Y-95965702D01*
X105583699Y-96077947D01*
X105426127Y-96221593D01*
X105297632Y-96391746D01*
X105202596Y-96582605D01*
X105202596Y-96582607D01*
X105144244Y-96787689D01*
X105133471Y-96903951D01*
X105107685Y-96968888D01*
X105063130Y-97000804D01*
X104954622Y-97000804D01*
X104956869Y-96999194D01*
X104920497Y-96978331D01*
X104888307Y-96916318D01*
X104886529Y-96903951D01*
X104883175Y-96867759D01*
X104875756Y-96787690D01*
X104817405Y-96582611D01*
X104817403Y-96582606D01*
X104817403Y-96582605D01*
X104722367Y-96391746D01*
X104593872Y-96221593D01*
X104436302Y-96077948D01*
X104255019Y-95965702D01*
X104255017Y-95965701D01*
X104155608Y-95927190D01*
X104056198Y-95888679D01*
X103846610Y-95849500D01*
X103633390Y-95849500D01*
X103423802Y-95888679D01*
X103423799Y-95888679D01*
X103423799Y-95888680D01*
X103224982Y-95965701D01*
X103224980Y-95965702D01*
X103043699Y-96077947D01*
X102886127Y-96221593D01*
X102757632Y-96391746D01*
X102662596Y-96582605D01*
X102662596Y-96582607D01*
X102604244Y-96787689D01*
X102597970Y-96855394D01*
X102572183Y-96920331D01*
X102515383Y-96961018D01*
X102445602Y-96964538D01*
X102384995Y-96929772D01*
X102352806Y-96867759D01*
X102350499Y-96843952D01*
X102350499Y-96105143D01*
X102350499Y-96105136D01*
X102350497Y-96105117D01*
X102347586Y-96080012D01*
X102347585Y-96080010D01*
X102347585Y-96080009D01*
X102302206Y-95977235D01*
X102222765Y-95897794D01*
X102202124Y-95888680D01*
X102119992Y-95852415D01*
X102094865Y-95849500D01*
X100305143Y-95849500D01*
X100305117Y-95849502D01*
X100280012Y-95852413D01*
X100280008Y-95852415D01*
X100177235Y-95897793D01*
X100097794Y-95977234D01*
X100052415Y-96080006D01*
X100052415Y-96080008D01*
X100049500Y-96105131D01*
X100049500Y-97894856D01*
X88348911Y-97894856D01*
X88289576Y-97778406D01*
X88279388Y-97758412D01*
X88277358Y-97754007D01*
X88216122Y-97606170D01*
X88158769Y-97456759D01*
X88157082Y-97451724D01*
X88112420Y-97296702D01*
X88107316Y-97277652D01*
X88071453Y-97143811D01*
X88070226Y-97138194D01*
X88042601Y-96975606D01*
X88018465Y-96823212D01*
X88017803Y-96817027D01*
X88007490Y-96633382D01*
X88000584Y-96501620D01*
X88000542Y-96500000D01*
X89644341Y-96500000D01*
X89664936Y-96735403D01*
X89664938Y-96735413D01*
X89726094Y-96963655D01*
X89726096Y-96963659D01*
X89726097Y-96963663D01*
X89757549Y-97031111D01*
X89825964Y-97177828D01*
X89825965Y-97177830D01*
X89961505Y-97371402D01*
X90128597Y-97538494D01*
X90322169Y-97674034D01*
X90322171Y-97674035D01*
X90536337Y-97773903D01*
X90536343Y-97773904D01*
X90536344Y-97773905D01*
X90553146Y-97778407D01*
X90764592Y-97835063D01*
X90941034Y-97850500D01*
X91058966Y-97850500D01*
X91235408Y-97835063D01*
X91463663Y-97773903D01*
X91677829Y-97674035D01*
X91871401Y-97538495D01*
X92038495Y-97371401D01*
X92174035Y-97177830D01*
X92273903Y-96963663D01*
X92335063Y-96735408D01*
X92355659Y-96500000D01*
X92335063Y-96264592D01*
X92285604Y-96080006D01*
X92273905Y-96036344D01*
X92273904Y-96036343D01*
X92273903Y-96036337D01*
X92174035Y-95822171D01*
X92174034Y-95822169D01*
X92038494Y-95628597D01*
X91871402Y-95461505D01*
X91677830Y-95325965D01*
X91677828Y-95325964D01*
X91570746Y-95276031D01*
X91463663Y-95226097D01*
X91463659Y-95226096D01*
X91463655Y-95226094D01*
X91235413Y-95164938D01*
X91235403Y-95164936D01*
X91058966Y-95149500D01*
X90941034Y-95149500D01*
X90764596Y-95164936D01*
X90764586Y-95164938D01*
X90536344Y-95226094D01*
X90536335Y-95226098D01*
X90322171Y-95325964D01*
X90322169Y-95325965D01*
X90128597Y-95461505D01*
X89961506Y-95628597D01*
X89961501Y-95628604D01*
X89825967Y-95822165D01*
X89825965Y-95822169D01*
X89726098Y-96036335D01*
X89726094Y-96036344D01*
X89664938Y-96264586D01*
X89664936Y-96264596D01*
X89644341Y-96499999D01*
X89644341Y-96500000D01*
X88000542Y-96500000D01*
X88000500Y-96498377D01*
X88000500Y-94500000D01*
X101844722Y-94500000D01*
X101863762Y-94656818D01*
X101919604Y-94804060D01*
X101919780Y-94804523D01*
X102009517Y-94934530D01*
X102127760Y-95039283D01*
X102127762Y-95039284D01*
X102267634Y-95112696D01*
X102421014Y-95150500D01*
X102421015Y-95150500D01*
X102578985Y-95150500D01*
X102732365Y-95112696D01*
X102872240Y-95039283D01*
X102990483Y-94934530D01*
X103074579Y-94812696D01*
X103080540Y-94804060D01*
X103134823Y-94760070D01*
X103182590Y-94750500D01*
X103724335Y-94750500D01*
X103818569Y-94750500D01*
X103876194Y-94764703D01*
X103967635Y-94812696D01*
X104044325Y-94831598D01*
X104121014Y-94850500D01*
X104121015Y-94850500D01*
X104278985Y-94850500D01*
X104432365Y-94812696D01*
X104448819Y-94804060D01*
X104572240Y-94739283D01*
X104690483Y-94634530D01*
X104780220Y-94504523D01*
X104836237Y-94356818D01*
X104855278Y-94200000D01*
X104836237Y-94043182D01*
X104780220Y-93895477D01*
X104690483Y-93765470D01*
X104572240Y-93660717D01*
X104572238Y-93660716D01*
X104572237Y-93660715D01*
X104432365Y-93587303D01*
X104278986Y-93549500D01*
X104278985Y-93549500D01*
X104121015Y-93549500D01*
X104121014Y-93549500D01*
X103967636Y-93587303D01*
X103921763Y-93611379D01*
X103876194Y-93635296D01*
X103818569Y-93649500D01*
X102809397Y-93649500D01*
X102743174Y-93647238D01*
X102743173Y-93647238D01*
X102743171Y-93647238D01*
X102700170Y-93657717D01*
X102693930Y-93658902D01*
X102650079Y-93664930D01*
X102633616Y-93672081D01*
X102613575Y-93678820D01*
X102596150Y-93683066D01*
X102596145Y-93683068D01*
X102557567Y-93704758D01*
X102551881Y-93707582D01*
X102511279Y-93725220D01*
X102497357Y-93736546D01*
X102479883Y-93748438D01*
X102464246Y-93757230D01*
X102464239Y-93757235D01*
X102432939Y-93788535D01*
X102428225Y-93792789D01*
X102393891Y-93820722D01*
X102390273Y-93825848D01*
X102335528Y-93869262D01*
X102318649Y-93874730D01*
X102267632Y-93887304D01*
X102127762Y-93960715D01*
X102009516Y-94065471D01*
X101919781Y-94195475D01*
X101919780Y-94195476D01*
X101863762Y-94343181D01*
X101844722Y-94499999D01*
X101844722Y-94500000D01*
X88000500Y-94500000D01*
X88000500Y-92250000D01*
X105094722Y-92250000D01*
X105113762Y-92406818D01*
X105169780Y-92554523D01*
X105259517Y-92684530D01*
X105377760Y-92789283D01*
X105377762Y-92789284D01*
X105517634Y-92862696D01*
X105671014Y-92900500D01*
X105671015Y-92900500D01*
X105828985Y-92900500D01*
X105982365Y-92862696D01*
X106073805Y-92814703D01*
X106131431Y-92800500D01*
X106868569Y-92800500D01*
X106926194Y-92814703D01*
X107017635Y-92862696D01*
X107094325Y-92881598D01*
X107171014Y-92900500D01*
X107171015Y-92900500D01*
X107328985Y-92900500D01*
X107482365Y-92862696D01*
X107622240Y-92789283D01*
X107740483Y-92684530D01*
X107830220Y-92554523D01*
X107886237Y-92406818D01*
X107905278Y-92250000D01*
X107886237Y-92093182D01*
X107830220Y-91945477D01*
X107740483Y-91815470D01*
X107622240Y-91710717D01*
X107622238Y-91710716D01*
X107622237Y-91710715D01*
X107482365Y-91637303D01*
X107328986Y-91599500D01*
X107328985Y-91599500D01*
X107171015Y-91599500D01*
X107171014Y-91599500D01*
X107017636Y-91637303D01*
X106971763Y-91661379D01*
X106926194Y-91685296D01*
X106868569Y-91699500D01*
X106131431Y-91699500D01*
X106073805Y-91685296D01*
X105982365Y-91637304D01*
X105982364Y-91637303D01*
X105982363Y-91637303D01*
X105828986Y-91599500D01*
X105828985Y-91599500D01*
X105671015Y-91599500D01*
X105671014Y-91599500D01*
X105517634Y-91637303D01*
X105377762Y-91710715D01*
X105259516Y-91815471D01*
X105169781Y-91945475D01*
X105169780Y-91945476D01*
X105113762Y-92093181D01*
X105094722Y-92249999D01*
X105094722Y-92250000D01*
X88000500Y-92250000D01*
X88000500Y-86725000D01*
X120839538Y-86725000D01*
X120859337Y-86926031D01*
X120917978Y-87119345D01*
X121013198Y-87297488D01*
X121013203Y-87297495D01*
X121141352Y-87453647D01*
X121250016Y-87542824D01*
X121297506Y-87581798D01*
X121297509Y-87581799D01*
X121297511Y-87581801D01*
X121475654Y-87677021D01*
X121475656Y-87677021D01*
X121475659Y-87677023D01*
X121668967Y-87735662D01*
X121819620Y-87750500D01*
X121819623Y-87750500D01*
X122470377Y-87750500D01*
X122470380Y-87750500D01*
X122621033Y-87735662D01*
X122814341Y-87677023D01*
X122992494Y-87581798D01*
X123148647Y-87453647D01*
X123276798Y-87297494D01*
X123372023Y-87119341D01*
X123430662Y-86926033D01*
X123440384Y-86827324D01*
X124740630Y-86827324D01*
X124750939Y-87017475D01*
X124779223Y-87119345D01*
X124801887Y-87200969D01*
X124801888Y-87200972D01*
X124891087Y-87369217D01*
X124891088Y-87369220D01*
X125014368Y-87514356D01*
X125014369Y-87514357D01*
X125165971Y-87629602D01*
X125165972Y-87629602D01*
X125165973Y-87629603D01*
X125165974Y-87629604D01*
X125268466Y-87677021D01*
X125338803Y-87709562D01*
X125338804Y-87709562D01*
X125338806Y-87709563D01*
X125395227Y-87721982D01*
X125524784Y-87750500D01*
X125524785Y-87750500D01*
X126317459Y-87750500D01*
X126317465Y-87750500D01*
X126459316Y-87735073D01*
X126639780Y-87674267D01*
X126802954Y-87576089D01*
X126941207Y-87445129D01*
X127048075Y-87287510D01*
X127048077Y-87287506D01*
X127118561Y-87110606D01*
X127118562Y-87110602D01*
X127149370Y-86922678D01*
X127139061Y-86732525D01*
X127088114Y-86549033D01*
X126998914Y-86380784D01*
X126998911Y-86380781D01*
X126998911Y-86380779D01*
X126875631Y-86235643D01*
X126815962Y-86190284D01*
X126724029Y-86120398D01*
X126724028Y-86120397D01*
X126724026Y-86120396D01*
X126724025Y-86120395D01*
X126551193Y-86040436D01*
X126365216Y-85999500D01*
X125572535Y-85999500D01*
X125572533Y-85999500D01*
X125430683Y-86014927D01*
X125250217Y-86075734D01*
X125087048Y-86173909D01*
X124948791Y-86304872D01*
X124841922Y-86462493D01*
X124771438Y-86639393D01*
X124740630Y-86827324D01*
X123440384Y-86827324D01*
X123450462Y-86725000D01*
X123430662Y-86523967D01*
X123372023Y-86330659D01*
X123372022Y-86330657D01*
X123369700Y-86325051D01*
X123362234Y-86255581D01*
X123393511Y-86193103D01*
X123440300Y-86161657D01*
X123445218Y-86159791D01*
X123445225Y-86159790D01*
X123479707Y-86141691D01*
X123486507Y-86138630D01*
X123522930Y-86124818D01*
X123554981Y-86102693D01*
X123561379Y-86098825D01*
X123595852Y-86080734D01*
X123625002Y-86054908D01*
X123630871Y-86050310D01*
X123662929Y-86028183D01*
X123688748Y-85999037D01*
X123694037Y-85993748D01*
X123723183Y-85967929D01*
X123745310Y-85935871D01*
X123749908Y-85930002D01*
X123775734Y-85900852D01*
X123793825Y-85866379D01*
X123797693Y-85859981D01*
X123819818Y-85827930D01*
X123833630Y-85791507D01*
X123836691Y-85784707D01*
X123854790Y-85750225D01*
X123864106Y-85712427D01*
X123866335Y-85705271D01*
X123880140Y-85668872D01*
X123884834Y-85630206D01*
X123886177Y-85622875D01*
X123895500Y-85585056D01*
X123895500Y-85546126D01*
X123895952Y-85538646D01*
X123900645Y-85500000D01*
X123895951Y-85461347D01*
X123895500Y-85453872D01*
X123895500Y-85414943D01*
X123886183Y-85377147D01*
X123884832Y-85369773D01*
X123880140Y-85331130D01*
X123880140Y-85331128D01*
X123866329Y-85294712D01*
X123864110Y-85287590D01*
X123854790Y-85249775D01*
X123836687Y-85215283D01*
X123833627Y-85208484D01*
X123819818Y-85172070D01*
X123797694Y-85140018D01*
X123793823Y-85133614D01*
X123775736Y-85099151D01*
X123775732Y-85099145D01*
X123761150Y-85082685D01*
X123749916Y-85070005D01*
X123745299Y-85064111D01*
X123723185Y-85032073D01*
X123723183Y-85032071D01*
X123694037Y-85006250D01*
X123688743Y-85000955D01*
X123662933Y-84971821D01*
X123662930Y-84971819D01*
X123662929Y-84971817D01*
X123662925Y-84971814D01*
X123630882Y-84949695D01*
X123624986Y-84945075D01*
X123595851Y-84919265D01*
X123595848Y-84919263D01*
X123561387Y-84901177D01*
X123554974Y-84897300D01*
X123522933Y-84875183D01*
X123522931Y-84875182D01*
X123486524Y-84861374D01*
X123479693Y-84858299D01*
X123445226Y-84840210D01*
X123445221Y-84840209D01*
X123443601Y-84839809D01*
X123407424Y-84830892D01*
X123400276Y-84828665D01*
X123363876Y-84814861D01*
X123363869Y-84814859D01*
X123325223Y-84810166D01*
X123317855Y-84808816D01*
X123280058Y-84799500D01*
X123280056Y-84799500D01*
X123109944Y-84799500D01*
X123099363Y-84802107D01*
X123072143Y-84808816D01*
X123064776Y-84810166D01*
X123026126Y-84814860D01*
X122989725Y-84828664D01*
X122982576Y-84830891D01*
X122944775Y-84840210D01*
X122944770Y-84840212D01*
X122910296Y-84858303D01*
X122903467Y-84861377D01*
X122867071Y-84875180D01*
X122867069Y-84875181D01*
X122835027Y-84897299D01*
X122828617Y-84901174D01*
X122794149Y-84919265D01*
X122765005Y-84945082D01*
X122759110Y-84949700D01*
X122727072Y-84971815D01*
X122727071Y-84971816D01*
X122701253Y-85000957D01*
X122695957Y-85006253D01*
X122666816Y-85032071D01*
X122666815Y-85032072D01*
X122644700Y-85064110D01*
X122640082Y-85070005D01*
X122614265Y-85099149D01*
X122596174Y-85133617D01*
X122592299Y-85140027D01*
X122570181Y-85172069D01*
X122570180Y-85172071D01*
X122556377Y-85208467D01*
X122553303Y-85215296D01*
X122535212Y-85249770D01*
X122535210Y-85249775D01*
X122525891Y-85287576D01*
X122523664Y-85294725D01*
X122509860Y-85331126D01*
X122505166Y-85369776D01*
X122503816Y-85377143D01*
X122494500Y-85414945D01*
X122494500Y-85453872D01*
X122494048Y-85461352D01*
X122489355Y-85499999D01*
X122494048Y-85538646D01*
X122494500Y-85546126D01*
X122494500Y-85575500D01*
X122474815Y-85642539D01*
X122422011Y-85688294D01*
X122370500Y-85699500D01*
X121819620Y-85699500D01*
X121782433Y-85703162D01*
X121668968Y-85714337D01*
X121475654Y-85772978D01*
X121297511Y-85868198D01*
X121297504Y-85868203D01*
X121141352Y-85996352D01*
X121013203Y-86152504D01*
X121013198Y-86152511D01*
X120917978Y-86330654D01*
X120859337Y-86523968D01*
X120839538Y-86725000D01*
X88000500Y-86725000D01*
X88000500Y-79275000D01*
X120839538Y-79275000D01*
X120859337Y-79476031D01*
X120917978Y-79669345D01*
X121013198Y-79847488D01*
X121013201Y-79847492D01*
X121013202Y-79847494D01*
X121023502Y-79860045D01*
X121141352Y-80003647D01*
X121175990Y-80032073D01*
X121297506Y-80131798D01*
X121297509Y-80131799D01*
X121297511Y-80131801D01*
X121475654Y-80227021D01*
X121475656Y-80227021D01*
X121475659Y-80227023D01*
X121668967Y-80285662D01*
X121819620Y-80300500D01*
X121819623Y-80300500D01*
X122370500Y-80300500D01*
X122437539Y-80320185D01*
X122483294Y-80372989D01*
X122494500Y-80424500D01*
X122494500Y-80453872D01*
X122494048Y-80461352D01*
X122489355Y-80499999D01*
X122494048Y-80538646D01*
X122494500Y-80546126D01*
X122494500Y-80585058D01*
X122503816Y-80622855D01*
X122505166Y-80630223D01*
X122509859Y-80668869D01*
X122509861Y-80668876D01*
X122523665Y-80705276D01*
X122525894Y-80712429D01*
X122535209Y-80750221D01*
X122535210Y-80750226D01*
X122553299Y-80784693D01*
X122556374Y-80791524D01*
X122570182Y-80827931D01*
X122570183Y-80827933D01*
X122592300Y-80859974D01*
X122596177Y-80866387D01*
X122614263Y-80900848D01*
X122614265Y-80900851D01*
X122640075Y-80929986D01*
X122644695Y-80935882D01*
X122644701Y-80935890D01*
X122666816Y-80967928D01*
X122666821Y-80967933D01*
X122695955Y-80993743D01*
X122701250Y-80999037D01*
X122727069Y-81028181D01*
X122727073Y-81028185D01*
X122759111Y-81050299D01*
X122765005Y-81054916D01*
X122777685Y-81066150D01*
X122794145Y-81080732D01*
X122794151Y-81080736D01*
X122828614Y-81098823D01*
X122835018Y-81102694D01*
X122867070Y-81124818D01*
X122903484Y-81138627D01*
X122910283Y-81141687D01*
X122944775Y-81159790D01*
X122944777Y-81159790D01*
X122944778Y-81159791D01*
X122951914Y-81161549D01*
X122982590Y-81169110D01*
X122989712Y-81171329D01*
X123026128Y-81185140D01*
X123045572Y-81187500D01*
X123064773Y-81189832D01*
X123072140Y-81191181D01*
X123096369Y-81197153D01*
X123109943Y-81200500D01*
X123109944Y-81200500D01*
X123280058Y-81200500D01*
X123289590Y-81198149D01*
X123317875Y-81191177D01*
X123325206Y-81189834D01*
X123363872Y-81185140D01*
X123400277Y-81171333D01*
X123407427Y-81169106D01*
X123418744Y-81166316D01*
X123445225Y-81159790D01*
X123479707Y-81141691D01*
X123486507Y-81138630D01*
X123522930Y-81124818D01*
X123554981Y-81102693D01*
X123561379Y-81098825D01*
X123595852Y-81080734D01*
X123625002Y-81054908D01*
X123630871Y-81050310D01*
X123662929Y-81028183D01*
X123688748Y-80999037D01*
X123694037Y-80993748D01*
X123723183Y-80967929D01*
X123745310Y-80935871D01*
X123749908Y-80930002D01*
X123775734Y-80900852D01*
X123793825Y-80866379D01*
X123797693Y-80859981D01*
X123819818Y-80827930D01*
X123833630Y-80791507D01*
X123836691Y-80784707D01*
X123854790Y-80750225D01*
X123861316Y-80723744D01*
X123864106Y-80712427D01*
X123866333Y-80705277D01*
X123880140Y-80668872D01*
X123884834Y-80630206D01*
X123886177Y-80622875D01*
X123895500Y-80585056D01*
X123895500Y-80546126D01*
X123895952Y-80538646D01*
X123900645Y-80500000D01*
X123895951Y-80461347D01*
X123895500Y-80453872D01*
X123895500Y-80414943D01*
X123886183Y-80377147D01*
X123884832Y-80369773D01*
X123880140Y-80331130D01*
X123880140Y-80331128D01*
X123866329Y-80294712D01*
X123864110Y-80287590D01*
X123854790Y-80249775D01*
X123836687Y-80215283D01*
X123833627Y-80208484D01*
X123819818Y-80172070D01*
X123797694Y-80140018D01*
X123793823Y-80133614D01*
X123775736Y-80099151D01*
X123775732Y-80099145D01*
X123761150Y-80082685D01*
X123749916Y-80070005D01*
X123745299Y-80064111D01*
X123723185Y-80032073D01*
X123723183Y-80032071D01*
X123694037Y-80006250D01*
X123688743Y-80000955D01*
X123662933Y-79971821D01*
X123662930Y-79971819D01*
X123662929Y-79971817D01*
X123645177Y-79959563D01*
X123630882Y-79949695D01*
X123624986Y-79945075D01*
X123595851Y-79919265D01*
X123595848Y-79919263D01*
X123561387Y-79901177D01*
X123554974Y-79897300D01*
X123522933Y-79875183D01*
X123522931Y-79875182D01*
X123486524Y-79861374D01*
X123479693Y-79858299D01*
X123445220Y-79840207D01*
X123440288Y-79838337D01*
X123384587Y-79796158D01*
X123360532Y-79730559D01*
X123369702Y-79674945D01*
X123372020Y-79669347D01*
X123372021Y-79669345D01*
X123372023Y-79669341D01*
X123430662Y-79476033D01*
X123450462Y-79275000D01*
X123430993Y-79077324D01*
X124740630Y-79077324D01*
X124750939Y-79267476D01*
X124801887Y-79450969D01*
X124801888Y-79450972D01*
X124891087Y-79619217D01*
X124891088Y-79619220D01*
X125014368Y-79764356D01*
X125014369Y-79764357D01*
X125165971Y-79879602D01*
X125165972Y-79879602D01*
X125165973Y-79879603D01*
X125165974Y-79879604D01*
X125271758Y-79928543D01*
X125338803Y-79959562D01*
X125338804Y-79959562D01*
X125338806Y-79959563D01*
X125394464Y-79971814D01*
X125524784Y-80000500D01*
X125524785Y-80000500D01*
X126317459Y-80000500D01*
X126317465Y-80000500D01*
X126459316Y-79985073D01*
X126639780Y-79924267D01*
X126802954Y-79826089D01*
X126941207Y-79695129D01*
X127048075Y-79537510D01*
X127072571Y-79476031D01*
X127118561Y-79360606D01*
X127132595Y-79275000D01*
X127149370Y-79172678D01*
X127139061Y-78982525D01*
X127088114Y-78799033D01*
X126998914Y-78630784D01*
X126998911Y-78630781D01*
X126998911Y-78630779D01*
X126875631Y-78485643D01*
X126724026Y-78370396D01*
X126724025Y-78370395D01*
X126551193Y-78290436D01*
X126365216Y-78249500D01*
X125572535Y-78249500D01*
X125572533Y-78249500D01*
X125430683Y-78264927D01*
X125250217Y-78325734D01*
X125087048Y-78423909D01*
X124948791Y-78554872D01*
X124841922Y-78712493D01*
X124771438Y-78889393D01*
X124740630Y-79077324D01*
X123430993Y-79077324D01*
X123430662Y-79073967D01*
X123372023Y-78880659D01*
X123372021Y-78880656D01*
X123372021Y-78880654D01*
X123276801Y-78702511D01*
X123276799Y-78702509D01*
X123276798Y-78702506D01*
X123237824Y-78655016D01*
X123148647Y-78546352D01*
X122992495Y-78418203D01*
X122992488Y-78418198D01*
X122814345Y-78322978D01*
X122621031Y-78264337D01*
X122510900Y-78253490D01*
X122470380Y-78249500D01*
X121819620Y-78249500D01*
X121782433Y-78253162D01*
X121668968Y-78264337D01*
X121475654Y-78322978D01*
X121297511Y-78418198D01*
X121297504Y-78418203D01*
X121141352Y-78546352D01*
X121013203Y-78702504D01*
X121013198Y-78702511D01*
X120917978Y-78880654D01*
X120859337Y-79073968D01*
X120839538Y-79275000D01*
X88000500Y-79275000D01*
X88000500Y-78585055D01*
X89469500Y-78585055D01*
X89510210Y-78750226D01*
X89589263Y-78900849D01*
X89589266Y-78900852D01*
X89702071Y-79028183D01*
X89768400Y-79073967D01*
X89842068Y-79124817D01*
X89842069Y-79124817D01*
X89842070Y-79124818D01*
X90001128Y-79185140D01*
X90077028Y-79194356D01*
X90127626Y-79200500D01*
X90127628Y-79200500D01*
X90212374Y-79200500D01*
X90254538Y-79195380D01*
X90338872Y-79185140D01*
X90497930Y-79124818D01*
X90637929Y-79028183D01*
X90750734Y-78900852D01*
X90756749Y-78889393D01*
X90829789Y-78750226D01*
X90829790Y-78750225D01*
X90870500Y-78585056D01*
X90870500Y-78414944D01*
X90829790Y-78249775D01*
X90829646Y-78249500D01*
X90750736Y-78099150D01*
X90731560Y-78077505D01*
X90637929Y-77971817D01*
X90588177Y-77937475D01*
X90497931Y-77875182D01*
X90338874Y-77814860D01*
X90338868Y-77814859D01*
X90212374Y-77799500D01*
X90212372Y-77799500D01*
X90127628Y-77799500D01*
X90127626Y-77799500D01*
X90001131Y-77814859D01*
X90001125Y-77814860D01*
X89842068Y-77875182D01*
X89702072Y-77971816D01*
X89589263Y-78099150D01*
X89510210Y-78249773D01*
X89469500Y-78414944D01*
X89469500Y-78585055D01*
X88000500Y-78585055D01*
X88000500Y-75585055D01*
X89469500Y-75585055D01*
X89510210Y-75750226D01*
X89589263Y-75900849D01*
X89589266Y-75900852D01*
X89702071Y-76028183D01*
X89792318Y-76090476D01*
X89842068Y-76124817D01*
X89842069Y-76124817D01*
X89842070Y-76124818D01*
X90001128Y-76185140D01*
X90077028Y-76194356D01*
X90127626Y-76200500D01*
X90127628Y-76200500D01*
X90212374Y-76200500D01*
X90254538Y-76195380D01*
X90338872Y-76185140D01*
X90497930Y-76124818D01*
X90637929Y-76028183D01*
X90750734Y-75900852D01*
X90829790Y-75750225D01*
X90870500Y-75585056D01*
X90870500Y-75414944D01*
X90829790Y-75249775D01*
X90829789Y-75249773D01*
X90750736Y-75099150D01*
X90731560Y-75077505D01*
X90637929Y-74971817D01*
X90588177Y-74937475D01*
X90497931Y-74875182D01*
X90338874Y-74814860D01*
X90338868Y-74814859D01*
X90212374Y-74799500D01*
X90212372Y-74799500D01*
X90127628Y-74799500D01*
X90127626Y-74799500D01*
X90001131Y-74814859D01*
X90001125Y-74814860D01*
X89842068Y-74875182D01*
X89702072Y-74971816D01*
X89589263Y-75099150D01*
X89510210Y-75249773D01*
X89469500Y-75414944D01*
X89469500Y-75585055D01*
X88000500Y-75585055D01*
X88000500Y-69501622D01*
X88000542Y-69500000D01*
X89644341Y-69500000D01*
X89664936Y-69735403D01*
X89664938Y-69735413D01*
X89726094Y-69963655D01*
X89726096Y-69963659D01*
X89726097Y-69963663D01*
X89759035Y-70034298D01*
X89825964Y-70177828D01*
X89825965Y-70177830D01*
X89961505Y-70371402D01*
X90128597Y-70538494D01*
X90322169Y-70674034D01*
X90322171Y-70674035D01*
X90536337Y-70773903D01*
X90764592Y-70835063D01*
X90941034Y-70850500D01*
X91058966Y-70850500D01*
X91235408Y-70835063D01*
X91463663Y-70773903D01*
X91677829Y-70674035D01*
X91871401Y-70538495D01*
X92038495Y-70371401D01*
X92174035Y-70177830D01*
X92273903Y-69963663D01*
X92335063Y-69735408D01*
X92355659Y-69500000D01*
X92335063Y-69264592D01*
X92331153Y-69250000D01*
X97049364Y-69250000D01*
X97106567Y-69463486D01*
X97106570Y-69463492D01*
X97206399Y-69677578D01*
X97341894Y-69871082D01*
X97508917Y-70038105D01*
X97702421Y-70173600D01*
X97916507Y-70273429D01*
X97916516Y-70273433D01*
X98130000Y-70330634D01*
X98130000Y-69435501D01*
X98237685Y-69484680D01*
X98344237Y-69500000D01*
X98415763Y-69500000D01*
X98522315Y-69484680D01*
X98630000Y-69435501D01*
X98630000Y-70330633D01*
X98843483Y-70273433D01*
X98843492Y-70273429D01*
X99057578Y-70173600D01*
X99251082Y-70038105D01*
X99418105Y-69871082D01*
X99553600Y-69677578D01*
X99647294Y-69476651D01*
X99693466Y-69424212D01*
X99760660Y-69405060D01*
X99827541Y-69425276D01*
X99870676Y-69473785D01*
X99937632Y-69608253D01*
X100033656Y-69735408D01*
X100066128Y-69778407D01*
X100223698Y-69922052D01*
X100404981Y-70034298D01*
X100603802Y-70111321D01*
X100813390Y-70150500D01*
X100813392Y-70150500D01*
X101026608Y-70150500D01*
X101026610Y-70150500D01*
X101236198Y-70111321D01*
X101435019Y-70034298D01*
X101616302Y-69922052D01*
X101773872Y-69778407D01*
X101902366Y-69608255D01*
X101955462Y-69501623D01*
X101997403Y-69417394D01*
X101997403Y-69417393D01*
X101997405Y-69417389D01*
X102055756Y-69212310D01*
X102066529Y-69096047D01*
X102092315Y-69031111D01*
X102134622Y-69000804D01*
X102243130Y-69000804D01*
X102279503Y-69021668D01*
X102311693Y-69083681D01*
X102313471Y-69096048D01*
X102324244Y-69212310D01*
X102382596Y-69417392D01*
X102382596Y-69417394D01*
X102477632Y-69608253D01*
X102573656Y-69735408D01*
X102606128Y-69778407D01*
X102763698Y-69922052D01*
X102944981Y-70034298D01*
X103143802Y-70111321D01*
X103353390Y-70150500D01*
X103353392Y-70150500D01*
X103566608Y-70150500D01*
X103566610Y-70150500D01*
X103776198Y-70111321D01*
X103975019Y-70034298D01*
X104156302Y-69922052D01*
X104313872Y-69778407D01*
X104442366Y-69608255D01*
X104495462Y-69501623D01*
X104537403Y-69417394D01*
X104537403Y-69417393D01*
X104537405Y-69417389D01*
X104595756Y-69212310D01*
X104602029Y-69144605D01*
X104627814Y-69079669D01*
X104684614Y-69038981D01*
X104754395Y-69035461D01*
X104815002Y-69070225D01*
X104847193Y-69132238D01*
X104849500Y-69156047D01*
X104849500Y-69894856D01*
X104849502Y-69894882D01*
X104852413Y-69919987D01*
X104852415Y-69919991D01*
X104897793Y-70022764D01*
X104897794Y-70022765D01*
X104977235Y-70102206D01*
X105080009Y-70147585D01*
X105105135Y-70150500D01*
X106894864Y-70150499D01*
X106894879Y-70150497D01*
X106894882Y-70150497D01*
X106919987Y-70147586D01*
X106919988Y-70147585D01*
X106919991Y-70147585D01*
X107022765Y-70102206D01*
X107102206Y-70022765D01*
X107147585Y-69919991D01*
X107150500Y-69894865D01*
X107150500Y-69250000D01*
X110849364Y-69250000D01*
X110906567Y-69463486D01*
X110906570Y-69463492D01*
X111006399Y-69677578D01*
X111141894Y-69871082D01*
X111308917Y-70038105D01*
X111502421Y-70173600D01*
X111716507Y-70273429D01*
X111716516Y-70273433D01*
X111930000Y-70330634D01*
X111930000Y-69435501D01*
X112037685Y-69484680D01*
X112144237Y-69500000D01*
X112215763Y-69500000D01*
X112322315Y-69484680D01*
X112430000Y-69435501D01*
X112430000Y-70330633D01*
X112643483Y-70273433D01*
X112643492Y-70273429D01*
X112857578Y-70173600D01*
X113051082Y-70038105D01*
X113218105Y-69871082D01*
X113353600Y-69677578D01*
X113447294Y-69476651D01*
X113493466Y-69424212D01*
X113560660Y-69405060D01*
X113627541Y-69425276D01*
X113670676Y-69473785D01*
X113737632Y-69608253D01*
X113833656Y-69735408D01*
X113866128Y-69778407D01*
X114023698Y-69922052D01*
X114204981Y-70034298D01*
X114403802Y-70111321D01*
X114613390Y-70150500D01*
X114613392Y-70150500D01*
X114826608Y-70150500D01*
X114826610Y-70150500D01*
X115036198Y-70111321D01*
X115235019Y-70034298D01*
X115416302Y-69922052D01*
X115573872Y-69778407D01*
X115702366Y-69608255D01*
X115755462Y-69501623D01*
X115797403Y-69417394D01*
X115797403Y-69417393D01*
X115797405Y-69417389D01*
X115855756Y-69212310D01*
X115866529Y-69096047D01*
X115892315Y-69031111D01*
X115934622Y-69000804D01*
X116043130Y-69000804D01*
X116079503Y-69021668D01*
X116111693Y-69083681D01*
X116113471Y-69096048D01*
X116124244Y-69212310D01*
X116182596Y-69417392D01*
X116182596Y-69417394D01*
X116277632Y-69608253D01*
X116373656Y-69735408D01*
X116406128Y-69778407D01*
X116563698Y-69922052D01*
X116744981Y-70034298D01*
X116943802Y-70111321D01*
X117153390Y-70150500D01*
X117153392Y-70150500D01*
X117366608Y-70150500D01*
X117366610Y-70150500D01*
X117576198Y-70111321D01*
X117775019Y-70034298D01*
X117956302Y-69922052D01*
X118113872Y-69778407D01*
X118242366Y-69608255D01*
X118295462Y-69501623D01*
X118337403Y-69417394D01*
X118337403Y-69417393D01*
X118337405Y-69417389D01*
X118395756Y-69212310D01*
X118402029Y-69144605D01*
X118427814Y-69079669D01*
X118484614Y-69038981D01*
X118554395Y-69035461D01*
X118615002Y-69070225D01*
X118647193Y-69132238D01*
X118649500Y-69156047D01*
X118649500Y-69894856D01*
X118649502Y-69894882D01*
X118652413Y-69919987D01*
X118652415Y-69919991D01*
X118697793Y-70022764D01*
X118697794Y-70022765D01*
X118777235Y-70102206D01*
X118880009Y-70147585D01*
X118905135Y-70150500D01*
X120694864Y-70150499D01*
X120694879Y-70150497D01*
X120694882Y-70150497D01*
X120719987Y-70147586D01*
X120719988Y-70147585D01*
X120719991Y-70147585D01*
X120822765Y-70102206D01*
X120902206Y-70022765D01*
X120947585Y-69919991D01*
X120950500Y-69894865D01*
X120950500Y-69500000D01*
X123644341Y-69500000D01*
X123664936Y-69735403D01*
X123664938Y-69735413D01*
X123726094Y-69963655D01*
X123726096Y-69963659D01*
X123726097Y-69963663D01*
X123759035Y-70034298D01*
X123825964Y-70177828D01*
X123825965Y-70177830D01*
X123961505Y-70371402D01*
X124128597Y-70538494D01*
X124322169Y-70674034D01*
X124322171Y-70674035D01*
X124536337Y-70773903D01*
X124764592Y-70835063D01*
X124941034Y-70850500D01*
X125058966Y-70850500D01*
X125235408Y-70835063D01*
X125463663Y-70773903D01*
X125677829Y-70674035D01*
X125871401Y-70538495D01*
X126038495Y-70371401D01*
X126174035Y-70177830D01*
X126273903Y-69963663D01*
X126335063Y-69735408D01*
X126355659Y-69500000D01*
X126335063Y-69264592D01*
X126282983Y-69070225D01*
X126273905Y-69036344D01*
X126273904Y-69036343D01*
X126273903Y-69036337D01*
X126174035Y-68822171D01*
X126174034Y-68822169D01*
X126038494Y-68628597D01*
X125871402Y-68461505D01*
X125677830Y-68325965D01*
X125677828Y-68325964D01*
X125506338Y-68245997D01*
X125463663Y-68226097D01*
X125463659Y-68226096D01*
X125463655Y-68226094D01*
X125235413Y-68164938D01*
X125235403Y-68164936D01*
X125058966Y-68149500D01*
X124941034Y-68149500D01*
X124764596Y-68164936D01*
X124764586Y-68164938D01*
X124536344Y-68226094D01*
X124536335Y-68226098D01*
X124322171Y-68325964D01*
X124322169Y-68325965D01*
X124128597Y-68461505D01*
X123961506Y-68628597D01*
X123961501Y-68628604D01*
X123825967Y-68822165D01*
X123825965Y-68822169D01*
X123787830Y-68903951D01*
X123726506Y-69035461D01*
X123726098Y-69036335D01*
X123726094Y-69036344D01*
X123664938Y-69264586D01*
X123664936Y-69264596D01*
X123644341Y-69499999D01*
X123644341Y-69500000D01*
X120950500Y-69500000D01*
X120950499Y-68105136D01*
X120950497Y-68105117D01*
X120947586Y-68080012D01*
X120947585Y-68080010D01*
X120947585Y-68080009D01*
X120902206Y-67977235D01*
X120822765Y-67897794D01*
X120802124Y-67888680D01*
X120719992Y-67852415D01*
X120694865Y-67849500D01*
X118905143Y-67849500D01*
X118905117Y-67849502D01*
X118880012Y-67852413D01*
X118880008Y-67852415D01*
X118777235Y-67897793D01*
X118697794Y-67977234D01*
X118652415Y-68080006D01*
X118652415Y-68080008D01*
X118649500Y-68105131D01*
X118649500Y-68843951D01*
X118629815Y-68910990D01*
X118577011Y-68956745D01*
X118507853Y-68966689D01*
X118444297Y-68937664D01*
X118406523Y-68878886D01*
X118402029Y-68855391D01*
X118398950Y-68822165D01*
X118395756Y-68787690D01*
X118337405Y-68582611D01*
X118337403Y-68582606D01*
X118337403Y-68582605D01*
X118242367Y-68391746D01*
X118113872Y-68221593D01*
X117956302Y-68077948D01*
X117775019Y-67965702D01*
X117775017Y-67965701D01*
X117675608Y-67927190D01*
X117576198Y-67888679D01*
X117366610Y-67849500D01*
X117153390Y-67849500D01*
X116943802Y-67888679D01*
X116943799Y-67888679D01*
X116943799Y-67888680D01*
X116744982Y-67965701D01*
X116744980Y-67965702D01*
X116563699Y-68077947D01*
X116406127Y-68221593D01*
X116277632Y-68391746D01*
X116182596Y-68582605D01*
X116182596Y-68582607D01*
X116124244Y-68787689D01*
X116113471Y-68903951D01*
X116087685Y-68968888D01*
X116043130Y-69000804D01*
X115934622Y-69000804D01*
X115936869Y-68999194D01*
X115900497Y-68978331D01*
X115868307Y-68916318D01*
X115866529Y-68903951D01*
X115862626Y-68861835D01*
X115855756Y-68787690D01*
X115797405Y-68582611D01*
X115797403Y-68582606D01*
X115797403Y-68582605D01*
X115702367Y-68391746D01*
X115573872Y-68221593D01*
X115416302Y-68077948D01*
X115235019Y-67965702D01*
X115235017Y-67965701D01*
X115135608Y-67927190D01*
X115036198Y-67888679D01*
X114826610Y-67849500D01*
X114613390Y-67849500D01*
X114403802Y-67888679D01*
X114403799Y-67888679D01*
X114403799Y-67888680D01*
X114204982Y-67965701D01*
X114204980Y-67965702D01*
X114023699Y-68077947D01*
X113866127Y-68221593D01*
X113737634Y-68391744D01*
X113670676Y-68526215D01*
X113623173Y-68577452D01*
X113555510Y-68594873D01*
X113489170Y-68572947D01*
X113447294Y-68523348D01*
X113353600Y-68322422D01*
X113353599Y-68322420D01*
X113218113Y-68128926D01*
X113218108Y-68128920D01*
X113051082Y-67961894D01*
X112857578Y-67826399D01*
X112643492Y-67726570D01*
X112643486Y-67726567D01*
X112430000Y-67669364D01*
X112430000Y-68564498D01*
X112322315Y-68515320D01*
X112215763Y-68500000D01*
X112144237Y-68500000D01*
X112037685Y-68515320D01*
X111930000Y-68564498D01*
X111930000Y-67669364D01*
X111929999Y-67669364D01*
X111716513Y-67726567D01*
X111716507Y-67726570D01*
X111502422Y-67826399D01*
X111502420Y-67826400D01*
X111308926Y-67961886D01*
X111308920Y-67961891D01*
X111141891Y-68128920D01*
X111141886Y-68128926D01*
X111006400Y-68322420D01*
X111006399Y-68322422D01*
X110906570Y-68536507D01*
X110906567Y-68536513D01*
X110849364Y-68749999D01*
X110849364Y-68750000D01*
X111746314Y-68750000D01*
X111720507Y-68790156D01*
X111680000Y-68928111D01*
X111680000Y-69071889D01*
X111720507Y-69209844D01*
X111746314Y-69250000D01*
X110849364Y-69250000D01*
X107150500Y-69250000D01*
X107150499Y-68105136D01*
X107150497Y-68105117D01*
X107147586Y-68080012D01*
X107147585Y-68080010D01*
X107147585Y-68080009D01*
X107102206Y-67977235D01*
X107022765Y-67897794D01*
X107002124Y-67888680D01*
X106919992Y-67852415D01*
X106894865Y-67849500D01*
X105105143Y-67849500D01*
X105105117Y-67849502D01*
X105080012Y-67852413D01*
X105080008Y-67852415D01*
X104977235Y-67897793D01*
X104897794Y-67977234D01*
X104852415Y-68080006D01*
X104852415Y-68080008D01*
X104849500Y-68105131D01*
X104849500Y-68843951D01*
X104829815Y-68910990D01*
X104777011Y-68956745D01*
X104707853Y-68966689D01*
X104644297Y-68937664D01*
X104606523Y-68878886D01*
X104602029Y-68855391D01*
X104598950Y-68822165D01*
X104595756Y-68787690D01*
X104537405Y-68582611D01*
X104537403Y-68582606D01*
X104537403Y-68582605D01*
X104442367Y-68391746D01*
X104313872Y-68221593D01*
X104156302Y-68077948D01*
X103975019Y-67965702D01*
X103975017Y-67965701D01*
X103875608Y-67927190D01*
X103776198Y-67888679D01*
X103566610Y-67849500D01*
X103353390Y-67849500D01*
X103143802Y-67888679D01*
X103143799Y-67888679D01*
X103143799Y-67888680D01*
X102944982Y-67965701D01*
X102944980Y-67965702D01*
X102763699Y-68077947D01*
X102606127Y-68221593D01*
X102477632Y-68391746D01*
X102382596Y-68582605D01*
X102382596Y-68582607D01*
X102324244Y-68787689D01*
X102313471Y-68903951D01*
X102287685Y-68968888D01*
X102243130Y-69000804D01*
X102134622Y-69000804D01*
X102136869Y-68999194D01*
X102100497Y-68978331D01*
X102068307Y-68916318D01*
X102066529Y-68903951D01*
X102062626Y-68861835D01*
X102055756Y-68787690D01*
X101997405Y-68582611D01*
X101997403Y-68582606D01*
X101997403Y-68582605D01*
X101902367Y-68391746D01*
X101773872Y-68221593D01*
X101616302Y-68077948D01*
X101435019Y-67965702D01*
X101435017Y-67965701D01*
X101335608Y-67927190D01*
X101236198Y-67888679D01*
X101026610Y-67849500D01*
X100813390Y-67849500D01*
X100603802Y-67888679D01*
X100603799Y-67888679D01*
X100603799Y-67888680D01*
X100404982Y-67965701D01*
X100404980Y-67965702D01*
X100223699Y-68077947D01*
X100066127Y-68221593D01*
X99937634Y-68391744D01*
X99870676Y-68526215D01*
X99823173Y-68577452D01*
X99755510Y-68594873D01*
X99689170Y-68572947D01*
X99647294Y-68523348D01*
X99553600Y-68322422D01*
X99553599Y-68322420D01*
X99418113Y-68128926D01*
X99418108Y-68128920D01*
X99251082Y-67961894D01*
X99057578Y-67826399D01*
X98843492Y-67726570D01*
X98843486Y-67726567D01*
X98630000Y-67669364D01*
X98630000Y-68564498D01*
X98522315Y-68515320D01*
X98415763Y-68500000D01*
X98344237Y-68500000D01*
X98237685Y-68515320D01*
X98130000Y-68564498D01*
X98130000Y-67669364D01*
X98129999Y-67669364D01*
X97916513Y-67726567D01*
X97916507Y-67726570D01*
X97702422Y-67826399D01*
X97702420Y-67826400D01*
X97508926Y-67961886D01*
X97508920Y-67961891D01*
X97341891Y-68128920D01*
X97341886Y-68128926D01*
X97206400Y-68322420D01*
X97206399Y-68322422D01*
X97106570Y-68536507D01*
X97106567Y-68536513D01*
X97049364Y-68749999D01*
X97049364Y-68750000D01*
X97946314Y-68750000D01*
X97920507Y-68790156D01*
X97880000Y-68928111D01*
X97880000Y-69071889D01*
X97920507Y-69209844D01*
X97946314Y-69250000D01*
X97049364Y-69250000D01*
X92331153Y-69250000D01*
X92282983Y-69070225D01*
X92273905Y-69036344D01*
X92273904Y-69036343D01*
X92273903Y-69036337D01*
X92174035Y-68822171D01*
X92174034Y-68822169D01*
X92038494Y-68628597D01*
X91871402Y-68461505D01*
X91677830Y-68325965D01*
X91677828Y-68325964D01*
X91506338Y-68245997D01*
X91463663Y-68226097D01*
X91463659Y-68226096D01*
X91463655Y-68226094D01*
X91235413Y-68164938D01*
X91235403Y-68164936D01*
X91058966Y-68149500D01*
X90941034Y-68149500D01*
X90764596Y-68164936D01*
X90764586Y-68164938D01*
X90536344Y-68226094D01*
X90536335Y-68226098D01*
X90322171Y-68325964D01*
X90322169Y-68325965D01*
X90128597Y-68461505D01*
X89961506Y-68628597D01*
X89961501Y-68628604D01*
X89825967Y-68822165D01*
X89825965Y-68822169D01*
X89787830Y-68903951D01*
X89726506Y-69035461D01*
X89726098Y-69036335D01*
X89726094Y-69036344D01*
X89664938Y-69264586D01*
X89664936Y-69264596D01*
X89644341Y-69499999D01*
X89644341Y-69500000D01*
X88000542Y-69500000D01*
X88000585Y-69498376D01*
X88002413Y-69463492D01*
X88007497Y-69366486D01*
X88017803Y-69182968D01*
X88018464Y-69176791D01*
X88042611Y-69024331D01*
X88046609Y-69000804D01*
X88070227Y-68861796D01*
X88071451Y-68856196D01*
X88112425Y-68703279D01*
X88157083Y-68548268D01*
X88158764Y-68543254D01*
X88216127Y-68393815D01*
X88277366Y-68245972D01*
X88279379Y-68241606D01*
X88352511Y-68098078D01*
X88359688Y-68085090D01*
X88429655Y-67958494D01*
X88431867Y-67954808D01*
X88519980Y-67819127D01*
X88534130Y-67799182D01*
X88612154Y-67689220D01*
X88614486Y-67686143D01*
X88715655Y-67561209D01*
X88717537Y-67558998D01*
X88822773Y-67441239D01*
X88825092Y-67438787D01*
X88938787Y-67325092D01*
X88941239Y-67322773D01*
X89058998Y-67217537D01*
X89061209Y-67215655D01*
X89186143Y-67114486D01*
X89189220Y-67112154D01*
X89319127Y-67019980D01*
X89329046Y-67013537D01*
X89454808Y-66931867D01*
X89458494Y-66929655D01*
X89598078Y-66852511D01*
X89610063Y-66846403D01*
X89741606Y-66779379D01*
X89745972Y-66777366D01*
X89893815Y-66716127D01*
X90043254Y-66658764D01*
X90048268Y-66657083D01*
X90203279Y-66612425D01*
X90356196Y-66571451D01*
X90361796Y-66570227D01*
X90524284Y-66542618D01*
X90676791Y-66518464D01*
X90682968Y-66517803D01*
X90866566Y-66507493D01*
X90998380Y-66500584D01*
X91001622Y-66500500D01*
X124998378Y-66500500D01*
X125001619Y-66500584D01*
G37*
%TD.AperFunction*%
%TD*%
M02*
